<?xml version="1.0" encoding="UTF-8" standalone="no"?>
<!-- Created with Inkscape (http://www.inkscape.org/) -->

<svg
   xmlns:dc="http://purl.org/dc/elements/1.1/"
   xmlns:cc="http://creativecommons.org/ns#"
   xmlns:rdf="http://www.w3.org/1999/02/22-rdf-syntax-ns#"
   xmlns:svg="http://www.w3.org/2000/svg"
   xmlns="http://www.w3.org/2000/svg"
   xmlns:sodipodi="http://sodipodi.sourceforge.net/DTD/sodipodi-0.dtd"
   xmlns:inkscape="http://www.inkscape.org/namespaces/inkscape"
   width="892.03741"
   height="888.71875"
   id="svg3926"
   version="1.1"
   inkscape:version="0.48.3.1 r9886"
   sodipodi:docname="blood.svg"
   inkscape:export-filename="/media/Data/Atelier/QT/Projets/Zombu/graphics/blood.png"
   inkscape:export-xdpi="5.04"
   inkscape:export-ydpi="5.04">
  <defs
     id="defs3928" />
  <sodipodi:namedview
     id="base"
     pagecolor="#ffffff"
     bordercolor="#666666"
     borderopacity="1.0"
     inkscape:pageopacity="0.0"
     inkscape:pageshadow="2"
     inkscape:zoom="0.49497475"
     inkscape:cx="509.95003"
     inkscape:cy="426.50818"
     inkscape:document-units="px"
     inkscape:current-layer="layer1"
     showgrid="false"
     fit-margin-top="0"
     fit-margin-left="0"
     fit-margin-right="0"
     fit-margin-bottom="0"
     inkscape:window-width="1600"
     inkscape:window-height="876"
     inkscape:window-x="0"
     inkscape:window-y="148"
     inkscape:window-maximized="1" />
  <metadata
     id="metadata3931">
    <rdf:RDF>
      <cc:Work
         rdf:about="">
        <dc:format>image/svg+xml</dc:format>
        <dc:type
           rdf:resource="http://purl.org/dc/dcmitype/StillImage" />
        <dc:title></dc:title>
      </cc:Work>
    </rdf:RDF>
  </metadata>
  <g
     inkscape:label="Calque 1"
     inkscape:groupmode="layer"
     id="layer1"
     transform="translate(167.41547,147.65784)">
    <path
       style="fill:#a1000b;fill-opacity:0.6;stroke:none"
       d="m 330.86263,-147.65784 c -48.71664,0 -90.39412,27.30208 -107.44679,65.937503 -37.31147,16.91268 -63.32005,51.28782 -64.9582,91.3125024 C 135.90929,-18.389105 99.425041,-36.595337 58.267342,-36.595337 c -68.467931,0 -123.964825,50.318962 -123.964825,112.374999 0,33.525568 16.219993,63.574438 41.915703,84.156248 -4.621516,9.56779 -7.224651,20.13701 -7.224651,31.25 0,5.8906 0.73512,11.60788 2.100559,17.125 -20.077536,3.19576 -38.174222,11.58562 -52.577631,23.5625 -49.573677,12.56949 -85.931967,53.80586 -85.931967,102.75001 0,43.84793 29.18775,81.52295 70.909787,97.9375 -0.484366,2.97394 -0.732013,5.99779 -0.732013,9.09375 0,16.26093 6.9244,31.04994 18.236672,42.09375 -0.02556,0.8833 -0.03178,1.76735 -0.03178,2.65625 0,37.97785 23.507971,70.95941 58.051816,87.6875 -0.001,0.17766 0,0.35331 0,0.53125 0,42.88372 38.362718,77.625 85.677361,77.625 10.671228,0 20.881148,-1.76885 30.298974,-5 4.076297,1.65177 8.581513,2.5625 13.335373,2.5625 10.99179,0 20.70211,-4.90528 26.6389,-12.4375 -0.61586,4.05396 -0.92297,8.20099 -0.92297,12.40625 0,50.40956 45.08145,91.28125 100.69953,91.28125 29.15052,0 55.40966,-11.24383 73.80601,-29.1875 18.30225,-8.36892 33.79265,-21.02717 44.90741,-36.5 3.53627,0.45537 7.14601,0.6875 10.82106,0.6875 0.0321,0 0.0634,4e-5 0.0954,0 2.46473,1.2868 5.00833,2.47639 7.60661,3.5625 14.45154,9.75743 32.37591,15.53125 51.78192,15.53125 29.58544,0 55.69684,-13.44451 71.35535,-33.9375 11.24637,2.96363 23.14709,4.5625 35.45489,4.5625 3.58363,0 7.12205,-0.14163 10.63011,-0.40625 5.81119,21.70317 27.35411,37.84375 53.08685,37.84375 30.19011,0 54.67817,-22.1997 54.67817,-49.5625 0,-13.6814 -6.1165,-26.06542 -16.00873,-35.03125 15.3004,-18.97818 24.34732,-42.37786 24.34732,-67.6875 0,-34.22062 -16.51715,-64.95425 -42.71135,-86 0.38997,-0.6519 0.77504,-1.30636 1.14576,-1.96875 0.21204,10e-4 0.42429,0 0.63653,0 59.78846,0 108.24248,-43.93562 108.24248,-98.125 0,-44.73684 -33.03586,-82.47321 -78.19814,-94.28125 10.61809,-16.67573 16.67717,-36.0193 16.67717,-56.65626 0,-23.12092 -7.62271,-44.65492 -20.71908,-62.59375 20.23409,-18.49141 32.71778,-43.92932 32.71778,-72.031248 0,-36.80819 -21.44709,-69.069697 -53.62794,-87.0937466 -10.75609,-20.7060424 -33.96052,-35.0312524 -60.88434,-35.0312524 -15.69395,0 -30.12064,4.86803 -41.56561,13.03125 -13.23286,-13.96171 -32.84419,-22.8125 -54.74184,-22.8125 -6.22825,0 -12.28061,0.71809 -18.04577,2.0625 -4.39482,-54.275133 -54.36858,-97.093753 -115.3716,-97.093753 z"
       id="path4831"
       inkscape:connector-curvature="0" />
  </g>
</svg>
