<?xml version="1.0" encoding="UTF-8" standalone="no"?>
<!-- Created with Inkscape (http://www.inkscape.org/) -->

<svg
   xmlns:dc="http://purl.org/dc/elements/1.1/"
   xmlns:cc="http://creativecommons.org/ns#"
   xmlns:rdf="http://www.w3.org/1999/02/22-rdf-syntax-ns#"
   xmlns:svg="http://www.w3.org/2000/svg"
   xmlns="http://www.w3.org/2000/svg"
   xmlns:sodipodi="http://sodipodi.sourceforge.net/DTD/sodipodi-0.dtd"
   xmlns:inkscape="http://www.inkscape.org/namespaces/inkscape"
   width="354.99994"
   height="551.0625"
   id="svg2"
   version="1.1"
   inkscape:version="0.48.3.1 r9886"
   sodipodi:docname="hero.svg"
   inkscape:export-filename="/media/Data/Atelier/QT/Projets/Zombu/graphics/hero5.png"
   inkscape:export-xdpi="19.598503"
   inkscape:export-ydpi="19.598503">
  <defs
     id="defs4" />
  <sodipodi:namedview
     id="base"
     pagecolor="#ffffff"
     bordercolor="#666666"
     borderopacity="1.0"
     inkscape:pageopacity="0.0"
     inkscape:pageshadow="2"
     inkscape:zoom="0.98994949"
     inkscape:cx="-122.93666"
     inkscape:cy="280.37199"
     inkscape:document-units="px"
     inkscape:current-layer="svg2"
     showgrid="false"
     inkscape:window-width="1600"
     inkscape:window-height="876"
     inkscape:window-x="0"
     inkscape:window-y="148"
     inkscape:window-maximized="1"
     fit-margin-top="0"
     fit-margin-left="10"
     fit-margin-right="10"
     fit-margin-bottom="20" />
  <metadata
     id="metadata7">
    <rdf:RDF>
      <cc:Work
         rdf:about="">
        <dc:format>image/svg+xml</dc:format>
        <dc:type
           rdf:resource="http://purl.org/dc/dcmitype/StillImage" />
        <dc:title />
      </cc:Work>
    </rdf:RDF>
  </metadata>
  <g
     inkscape:label="Anim 1 (Original)"
     inkscape:groupmode="layer"
     id="layer1"
     transform="translate(-121.0625,59.40625)"
     style="display:inline">
    <path
       style="fill:#241c6a;fill-opacity:1;stroke:none"
       d="m 361.38136,317.12281 48.40514,-68.89161 -62.42312,-35.60056 19.69504,-31.72877 96.85486,54.09523 -68.30652,89.75393 z"
       id="rect4720-1"
       inkscape:connector-curvature="0"
       sodipodi:nodetypes="ccccccc" />
    <path
       style="fill:#241c6a;fill-opacity:1;stroke:none"
       d="m 218.4448,267.62532 38.99974,-107.26001 89.93999,-102.921845 13.99828,40.17288 -66.87736,81.871715 -40.84915,95.98526 z"
       id="rect4720"
       inkscape:connector-curvature="0"
       sodipodi:nodetypes="ccccccc" />
    <g
       id="g4681">
      <path
         sodipodi:nodetypes="cccsccsccsccscccc"
         inkscape:connector-curvature="0"
         id="rect4648"
         d="m 335.25893,-59.40625 c -2.6897,0.01511 -5.12624,2.466505 -5.125,5.15625 l 0,132.59375 c -2.50468,0.474769 -4.88358,1.696075 -6.6875,3.5 -2.35457,2.354574 -3.71915,5.67013 -3.71875,9 l 0,158.78125 c -4e-4,3.32987 1.36418,6.64543 3.71875,9 2.35457,2.35457 5.67013,3.71915 9,3.71875 l 25.5,0 c 3.32987,4e-4 6.64543,-1.36418 9,-3.71875 2.35457,-2.35457 3.71915,-5.67013 3.71875,-9 l 0,-158.78125 c 4e-4,-3.32987 -1.36418,-6.645426 -3.71875,-9 -1.80392,-1.803925 -4.18282,-3.025231 -6.6875,-3.5 l 0,-132.59375 c 10e-4,-2.700135 -2.45612,-5.157453 -5.15625,-5.15625 z"
         style="font-size:medium;font-style:normal;font-variant:normal;font-weight:normal;font-stretch:normal;text-indent:0;text-align:start;text-decoration:none;line-height:normal;letter-spacing:normal;word-spacing:normal;text-transform:none;direction:ltr;block-progression:tb;writing-mode:lr-tb;text-anchor:start;baseline-shift:baseline;color:#000000;fill:#0c0c0c;fill-opacity:1;fill-rule:nonzero;stroke:none;stroke-width:25.43191528;marker:none;visibility:visible;display:inline;overflow:visible;enable-background:accumulate;font-family:Sans;-inkscape-font-specification:Sans" />
      <path
         inkscape:connector-curvature="0"
         id="path4661"
         d="m 338.3808,230.20446 0,-138.00302"
         style="fill:none;stroke:#1e1e1e;stroke-width:11.34599972;stroke-linecap:round;stroke-linejoin:miter;stroke-miterlimit:4;stroke-opacity:1;stroke-dasharray:none" />
      <path
         inkscape:connector-curvature="0"
         id="path4661-4"
         d="m 340.92649,62.742248 0,-107.735288"
         style="fill:none;stroke:#1e1e1e;stroke-width:7.87133932;stroke-linecap:round;stroke-linejoin:miter;stroke-miterlimit:4;stroke-opacity:1;stroke-dasharray:none" />
    </g>
    <path
       sodipodi:type="arc"
       style="fill:#ffd35b;fill-opacity:1"
       id="path2985"
       sodipodi:cx="305.71429"
       sodipodi:cy="340.93362"
       sodipodi:rx="134.28572"
       sodipodi:ry="114.28571"
       d="m 440.00002,340.93362 c 0,63.11826 -60.12177,114.28572 -134.28573,114.28572 -74.16395,0 -134.28572,-51.16746 -134.28572,-114.28572 0,-63.11825 60.12177,-114.28571 134.28572,-114.28571 74.16396,0 134.28573,51.16746 134.28573,114.28571 z" />
    <g
       id="g3788"
       transform="translate(0.17337933,0)">
      <g
         transform="translate(0,1.785715)"
         id="g3780">
        <path
           sodipodi:type="arc"
           style="fill:#ffffff;fill-opacity:1"
           id="path2987"
           sodipodi:cx="157.14285"
           sodipodi:cy="147.36218"
           sodipodi:rx="52.857143"
           sodipodi:ry="73.571426"
           d="m 210,147.36218 c 0,40.63238 -23.66495,73.57143 -52.85715,73.57143 -29.19219,0 -52.85714,-32.93905 -52.85714,-73.57143 0,-40.63237 23.66495,-73.571424 52.85714,-73.571424 29.1922,0 52.85715,32.939054 52.85715,73.571424 z"
           transform="matrix(0.53398057,0,0,0.53398057,178.59917,203.24507)" />
        <path
           sodipodi:type="arc"
           style="fill:#1c2364;fill-opacity:1"
           id="path2989"
           sodipodi:cx="170"
           sodipodi:cy="136.6479"
           sodipodi:rx="27.142857"
           sodipodi:ry="32.857143"
           d="m 197.14286,136.6479 c 0,18.1465 -12.15227,32.85715 -27.14286,32.85715 -14.99059,0 -27.14286,-14.71065 -27.14286,-32.85715 0,-18.1465 12.15227,-32.85714 27.14286,-32.85714 14.99059,0 27.14286,14.71064 27.14286,32.85714 z"
           transform="matrix(0.53398057,0,0,0.53398057,175.54785,194.09111)" />
      </g>
      <g
         transform="translate(0,-1.785715)"
         id="g3784">
        <path
           sodipodi:type="arc"
           style="fill:#ffffff;fill-opacity:1"
           id="path2987-0"
           sodipodi:cx="157.14285"
           sodipodi:cy="147.36218"
           sodipodi:rx="52.857143"
           sodipodi:ry="73.571426"
           d="m 210,147.36218 c 0,40.63238 -23.66495,73.57143 -52.85715,73.57143 -29.19219,0 -52.85714,-32.93905 -52.85714,-73.57143 0,-40.63237 23.66495,-73.571424 52.85714,-73.571424 29.1922,0 52.85715,32.939054 52.85715,73.571424 z"
           transform="matrix(0.53398057,0,0,0.53398057,264.6602,206.8165)" />
        <path
           sodipodi:type="arc"
           style="fill:#1c2364;fill-opacity:1"
           id="path2989-8"
           sodipodi:cx="170"
           sodipodi:cy="136.6479"
           sodipodi:rx="27.142857"
           sodipodi:ry="32.857143"
           d="m 197.14286,136.6479 c 0,18.1465 -12.15227,32.85715 -27.14286,32.85715 -14.99059,0 -27.14286,-14.71065 -27.14286,-32.85715 0,-18.1465 12.15227,-32.85714 27.14286,-32.85714 14.99059,0 27.14286,14.71064 27.14286,32.85714 z"
           transform="matrix(0.53398057,0,0,0.53398057,253.60888,197.66254)" />
      </g>
    </g>
    <path
       style="fill:#542f09;fill-opacity:1"
       d="m 170.6875,268.59375 c -11.04569,0 -20,8.95431 -20,20 0,5.8541 2.52232,11.09334 6.53125,14.75 -0.92856,1.94279 -1.58557,4.05358 -1.84375,6.28125 -1.38877,-0.31828 -2.82432,-0.53125 -4.3125,-0.53125 -0.34518,0 -0.69037,-0.0173 -1.03125,0 -10.5674,0.53566 -18.96875,9.29948 -18.96875,20 0,6.1087 2.74596,11.55021 7.0625,15.21875 -0.15175,0.99312 -0.21875,1.99572 -0.21875,3.03125 0,7.74288 4.40773,14.45765 10.84375,17.78125 1.28116,3.71722 3.6097,6.92064 6.65625,9.28125 -0.28566,1.34453 -0.4375,2.72564 -0.4375,4.15625 0,11.04569 8.95431,20 20,20 2.87074,0 5.59477,-0.59832 8.0625,-1.6875 0.64615,5.21236 3.29512,9.82764 7.15625,13 -1.701,2.94683 -2.6875,6.35446 -2.6875,10 0,11.04569 8.95431,20 20,20 5.0171,0 9.58271,-1.85465 13.09375,-4.90625 5.39913,-0.59232 10.14272,-3.32878 13.375,-7.34375 0.03,0.0423 0.0633,0.083 0.0937,0.125 0.25317,0.35059 0.50643,0.69824 0.78125,1.03125 0.19699,0.2393 0.41729,0.4577 0.625,0.6875 0.0493,0.0545 0.10639,0.10229 0.15625,0.15625 0.0151,0.0164 0.0161,0.0462 0.0312,0.0625 0.0853,0.0915 0.16306,0.1914 0.25,0.28125 -7.86284,2.69351 -13.53125,10.13032 -13.53125,18.90625 0,11.04569 8.95431,20 20,20 7.0833,0 13.29036,-3.69525 16.84375,-9.25 1.6682,0.45109 3.40789,0.71875 5.21875,0.71875 2.19091,0 4.30846,-0.38023 6.28125,-1.03125 3.23108,2.24079 7.14515,3.5625 11.375,3.5625 9.29474,0 17.0995,-6.34567 19.34375,-14.9375 1.42679,0.3231 2.91299,0.5 4.4375,0.5 1.12701,0 2.23839,-0.0994 3.3125,-0.28125 -0.20181,1.13977 -0.3125,2.3023 -0.3125,3.5 0,11.04569 8.95431,20 20,20 7.93668,0 14.73752,-4.64368 17.96875,-11.34375 3.65646,3.99196 8.90989,6.5 14.75,6.5 11.04569,0 20,-8.95431 20,-20 0,-1.39196 -0.13299,-2.7539 -0.40625,-4.0625 1.26904,-1.08295 2.4098,-2.32234 3.375,-3.6875 3.03908,3.59977 7.31956,6.11662 12.1875,6.875 3.04527,7.15779 10.1368,12.1875 18.40625,12.1875 5.13622,0 9.80772,-1.9419 13.34375,-5.125 3.38164,2.61808 7.61113,4.1875 12.21875,4.1875 11.04569,0 20,-8.95431 20,-20 0,-5.29273 -2.08071,-10.11018 -5.4375,-13.6875 2.98865,-3.4949 4.8125,-8.00972 4.8125,-12.96875 0,-8.36436 -5.14827,-15.51424 -12.4375,-18.5 5.6277,-3.53896 9.375,-9.79872 9.375,-16.9375 0,-0.25112 -0.0221,-0.50112 -0.0312,-0.75 1.98776,-3.10732 3.15625,-6.78761 3.15625,-10.75 0,-5.96757 -2.63627,-11.3043 -6.78125,-14.96875 2.86993,-3.46209 4.59375,-7.90169 4.59375,-12.75 0,-2.00476 -0.3261,-3.92406 -0.875,-5.75 5.40464,-3.58045 8.96875,-9.71892 8.96875,-16.6875 0,-11.04569 -8.95431,-20 -20,-20 -9.69624,0 -17.76307,6.90476 -19.59375,16.0625 -2.70202,-1.35425 -5.74295,-2.125 -8.96875,-2.125 -0.34518,0 -0.69037,-0.0173 -1.03125,0 -10.5674,0.53566 -18.96875,9.29948 -18.96875,20 0,0.87357 0.0476,1.71849 0.15625,2.5625 -2.28621,2.1272 -4.09134,4.76303 -5.1875,7.75 -2.66627,-7.91155 -10.12675,-13.625 -18.9375,-13.625 -11.04569,0 -20,8.95431 -20,20 0,3.24315 0.81734,6.29115 2.1875,9 -3.23499,-2.24949 -7.16743,-3.5625 -11.40625,-3.5625 -6.67793,0 -12.61509,3.28234 -16.25,8.3125 -0.0406,-0.004 -0.0842,0.004 -0.125,0 -2.23628,-2.37984 -5.05727,-4.24017 -8.21875,-5.3125 -2.58305,-1.21685 -5.45547,-1.90625 -8.5,-1.90625 -2.50338,0 -4.88511,0.47252 -7.09375,1.3125 -3.22797,-2.26597 -7.15926,-3.59375 -11.40625,-3.59375 -0.0422,0 -0.083,-2.2e-4 -0.125,0 -1.65074,-1.68683 -3.59107,-3.07297 -5.75,-4.09375 -0.0421,-0.0199 -0.0827,-0.0429 -0.125,-0.0625 -1.7539,-1.08449 -3.69373,-1.90582 -5.75,-2.40625 1.06434,-2.44404 1.65625,-5.13284 1.65625,-7.96875 0,-11.04569 -8.95431,-20 -20,-20 -11.04569,0 -20,8.95431 -20,20 0,9.42873 6.53199,17.3252 15.3125,19.4375 -0.88244,2.02739 -1.46019,4.22104 -1.625,6.53125 -0.71741,0.25379 -1.41658,0.54431 -2.09375,0.875 -3.56496,-5.48276 -9.72345,-9.125 -16.75,-9.125 -1.26218,0 -2.49018,0.12015 -3.6875,0.34375 -3.07993,-1.9368 -6.71809,-3.0625 -10.625,-3.0625 -1.58768,0 -3.11482,0.20889 -4.59375,0.5625 -0.17957,-0.44724 -0.38348,-0.88192 -0.59375,-1.3125 -0.19078,-1.07205 -0.45883,-2.11933 -0.8125,-3.125 1.64913,-2.90797 2.59375,-6.26193 2.59375,-9.84375 0,-6.22895 -2.84811,-11.80074 -7.3125,-15.46875 9.7813,-1.307 17.34375,-9.67357 17.34375,-19.8125 0,-11.04569 -8.95431,-20 -20,-20 -1.04606,0 -2.06024,0.0949 -3.0625,0.25 -3.28152,-2.35692 -7.27642,-3.75 -11.625,-3.75 -2.68133,0 -5.25707,0.54287 -7.59375,1.5 -3.55957,-5.52214 -9.75405,-9.1875 -16.8125,-9.1875 z M 389,278.75 c -11.04569,0 -20,8.95431 -20,20 0,11.04569 8.95431,20 20,20 11.04569,0 20,-8.95431 20,-20 0,-11.04569 -8.95431,-20 -20,-20 z m -26.84375,81.75 c 0.0616,0.0428 0.12545,0.083 0.1875,0.125 0.0234,0.13347 0.0365,0.2737 0.0625,0.40625 -0.082,-0.17629 -0.16249,-0.35824 -0.25,-0.53125 z"
       id="path3817"
       inkscape:connector-curvature="0"
       sodipodi:nodetypes="ssccssscsccssccssccccscccsscscscscsscsscccscsscscscscscsscsssccsscscccscsccccssscccscscccscsscscsssssscccc" />
    <path
       sodipodi:type="arc"
       style="fill:#ffd35b;fill-opacity:1;stroke:none"
       id="path4686"
       sodipodi:cx="382.84781"
       sodipodi:cy="45.240093"
       sodipodi:rx="23.233509"
       sodipodi:ry="15.152288"
       d="m 406.08132,45.240093 c 0,8.368378 -10.402,15.152289 -23.23351,15.152289 -12.83151,0 -23.23351,-6.783911 -23.23351,-15.152289 0,-8.368378 10.402,-15.152288 23.23351,-15.152288 12.83151,0 23.23351,6.78391 23.23351,15.152288 z"
       transform="matrix(0.73000518,0.21451092,-0.23494053,0.79952949,92.915834,-81.332149)" />
    <path
       sodipodi:type="arc"
       style="fill:#ffd35b;fill-opacity:1;stroke:none"
       id="path4686-8"
       sodipodi:cx="382.84781"
       sodipodi:cy="45.240093"
       sodipodi:rx="23.233509"
       sodipodi:ry="15.152288"
       d="m 406.08132,45.240093 c 0,8.368378 -10.402,15.152289 -23.23351,15.152289 -12.83151,0 -23.23351,-6.783911 -23.23351,-15.152289 0,-8.368378 10.402,-15.152288 23.23351,-15.152288 12.83151,0 23.23351,6.78391 23.23351,15.152288 z"
       transform="matrix(0.73000518,0.21451092,-0.23494053,0.79952949,88.986172,-66.16752)" />
    <path
       sodipodi:type="arc"
       style="fill:#ffd35b;fill-opacity:1;stroke:none"
       id="path4686-0"
       sodipodi:cx="382.84781"
       sodipodi:cy="45.240093"
       sodipodi:rx="23.233509"
       sodipodi:ry="15.152288"
       d="m 406.08132,45.240093 c 0,8.368378 -10.402,15.152289 -23.23351,15.152289 -12.83151,0 -23.23351,-6.783911 -23.23351,-15.152289 0,-8.368378 10.402,-15.152288 23.23351,-15.152288 12.83151,0 23.23351,6.78391 23.23351,15.152288 z"
       transform="matrix(0.73000518,0.21451092,-0.23494053,0.79952949,86.083078,-49.121946)" />
    <path
       sodipodi:type="arc"
       style="fill:#ffd35b;fill-opacity:1;stroke:none"
       id="path4686-6"
       sodipodi:cx="382.84781"
       sodipodi:cy="45.240093"
       sodipodi:rx="23.233509"
       sodipodi:ry="15.152288"
       d="m 406.08132,45.240093 c 0,8.368378 -10.402,15.152289 -23.23351,15.152289 -12.83151,0 -23.23351,-6.783911 -23.23351,-15.152289 0,-8.368378 10.402,-15.152288 23.23351,-15.152288 12.83151,0 23.23351,6.78391 23.23351,15.152288 z"
       transform="matrix(0.6075365,-0.45806321,0.50168828,0.66539712,73.009135,187.47552)" />
  </g>
  <g
     transform="translate(-121.0625,59.40625)"
     id="layer2"
     inkscape:groupmode="layer"
     inkscape:label="Anim 2"
     style="display:inline">
    <path
       sodipodi:nodetypes="ccccccc"
       inkscape:connector-curvature="0"
       id="path6114"
       d="m 361.38136,325.12281 52.40514,-68.89161 -66.42312,-33.60056 19.69504,-31.72877 100.85486,52.09523 -72.30652,89.75393 z"
       style="fill:#241c6a;fill-opacity:1;stroke:none" />
    <path
       sodipodi:nodetypes="ccccccc"
       inkscape:connector-curvature="0"
       id="path6116"
       d="m 218.4448,275.62532 36.99974,-109.26001 91.93999,-100.921845 13.99828,40.172875 -68.87736,79.87172 -38.84915,97.98526 z"
       style="fill:#241c6a;fill-opacity:1;stroke:none" />
    <g
       id="g6118"
       transform="translate(0,8)">
      <path
         style="font-size:medium;font-style:normal;font-variant:normal;font-weight:normal;font-stretch:normal;text-indent:0;text-align:start;text-decoration:none;line-height:normal;letter-spacing:normal;word-spacing:normal;text-transform:none;direction:ltr;block-progression:tb;writing-mode:lr-tb;text-anchor:start;baseline-shift:baseline;color:#000000;fill:#0c0c0c;fill-opacity:1;fill-rule:nonzero;stroke:none;stroke-width:25.43191528;marker:none;visibility:visible;display:inline;overflow:visible;enable-background:accumulate;font-family:Sans;-inkscape-font-specification:Sans"
         d="m 335.25893,-59.40625 c -2.6897,0.01511 -5.12624,2.466505 -5.125,5.15625 l 0,132.59375 c -2.50468,0.474769 -4.88358,1.696075 -6.6875,3.5 -2.35457,2.354574 -3.71915,5.67013 -3.71875,9 l 0,158.78125 c -4e-4,3.32987 1.36418,6.64543 3.71875,9 2.35457,2.35457 5.67013,3.71915 9,3.71875 l 25.5,0 c 3.32987,4e-4 6.64543,-1.36418 9,-3.71875 2.35457,-2.35457 3.71915,-5.67013 3.71875,-9 l 0,-158.78125 c 4e-4,-3.32987 -1.36418,-6.645426 -3.71875,-9 -1.80392,-1.803925 -4.18282,-3.025231 -6.6875,-3.5 l 0,-132.59375 c 10e-4,-2.700135 -2.45612,-5.157453 -5.15625,-5.15625 z"
         id="path6120"
         inkscape:connector-curvature="0"
         sodipodi:nodetypes="cccsccsccsccscccc" />
      <path
         style="fill:none;stroke:#1e1e1e;stroke-width:11.34599972;stroke-linecap:round;stroke-linejoin:miter;stroke-miterlimit:4;stroke-opacity:1;stroke-dasharray:none"
         d="m 338.3808,230.20446 0,-138.00302"
         id="path6122"
         inkscape:connector-curvature="0" />
      <path
         style="fill:none;stroke:#1e1e1e;stroke-width:7.87133932;stroke-linecap:round;stroke-linejoin:miter;stroke-miterlimit:4;stroke-opacity:1;stroke-dasharray:none"
         d="m 340.92649,62.742248 0,-107.735288"
         id="path6124"
         inkscape:connector-curvature="0" />
    </g>
    <path
       d="m 440.00002,340.93362 a 134.28572,114.28571 0 1 1 -268.57145,0 134.28572,114.28571 0 1 1 268.57145,0 z"
       sodipodi:ry="114.28571"
       sodipodi:rx="134.28572"
       sodipodi:cy="340.93362"
       sodipodi:cx="305.71429"
       id="path6126"
       style="fill:#ffd35b;fill-opacity:1"
       sodipodi:type="arc"
       transform="translate(0,8)" />
    <g
       transform="translate(0.17337933,8)"
       id="g6128">
      <g
         id="g6130"
         transform="translate(0,1.785715)">
        <path
           transform="matrix(0.53398057,0,0,0.53398057,178.59917,203.24507)"
           d="m 210,147.36218 a 52.857143,73.571426 0 1 1 -105.71429,0 52.857143,73.571426 0 1 1 105.71429,0 z"
           sodipodi:ry="73.571426"
           sodipodi:rx="52.857143"
           sodipodi:cy="147.36218"
           sodipodi:cx="157.14285"
           id="path6132"
           style="fill:#ffffff;fill-opacity:1"
           sodipodi:type="arc" />
        <path
           transform="matrix(0.53398057,0,0,0.53398057,175.54785,194.09111)"
           d="m 197.14286,136.6479 a 27.142857,32.857143 0 1 1 -54.28572,0 27.142857,32.857143 0 1 1 54.28572,0 z"
           sodipodi:ry="32.857143"
           sodipodi:rx="27.142857"
           sodipodi:cy="136.6479"
           sodipodi:cx="170"
           id="path6134"
           style="fill:#1c2364;fill-opacity:1"
           sodipodi:type="arc" />
      </g>
      <g
         id="g6136"
         transform="translate(0,-1.785715)">
        <path
           transform="matrix(0.53398057,0,0,0.53398057,264.6602,206.8165)"
           d="m 210,147.36218 a 52.857143,73.571426 0 1 1 -105.71429,0 52.857143,73.571426 0 1 1 105.71429,0 z"
           sodipodi:ry="73.571426"
           sodipodi:rx="52.857143"
           sodipodi:cy="147.36218"
           sodipodi:cx="157.14285"
           id="path6138"
           style="fill:#ffffff;fill-opacity:1"
           sodipodi:type="arc" />
        <path
           transform="matrix(0.53398057,0,0,0.53398057,253.60888,197.66254)"
           d="m 197.14286,136.6479 a 27.142857,32.857143 0 1 1 -54.28572,0 27.142857,32.857143 0 1 1 54.28572,0 z"
           sodipodi:ry="32.857143"
           sodipodi:rx="27.142857"
           sodipodi:cy="136.6479"
           sodipodi:cx="170"
           id="path6140"
           style="fill:#1c2364;fill-opacity:1"
           sodipodi:type="arc" />
      </g>
    </g>
    <path
       sodipodi:nodetypes="ssccssscsccssccssccccscccsscscscscsscsscccscsscscscscscsscsssccsscscccscsccccssscccscscccscsscscsssssscccc"
       inkscape:connector-curvature="0"
       id="path6142"
       d="m 170.6875,276.59375 c -11.04569,0 -20,8.95431 -20,20 0,5.8541 2.52232,11.09334 6.53125,14.75 -0.92856,1.94279 -1.58557,4.05358 -1.84375,6.28125 -1.38877,-0.31828 -2.82432,-0.53125 -4.3125,-0.53125 -0.34518,0 -0.69037,-0.0173 -1.03125,0 -10.5674,0.53566 -18.96875,9.29948 -18.96875,20 0,6.1087 2.74596,11.55021 7.0625,15.21875 -0.15175,0.99312 -0.21875,1.99572 -0.21875,3.03125 0,7.74288 4.40773,14.45765 10.84375,17.78125 1.28116,3.71722 3.6097,6.92064 6.65625,9.28125 -0.28566,1.34453 -0.4375,2.72564 -0.4375,4.15625 0,11.04569 8.95431,20 20,20 2.87074,0 5.59477,-0.59832 8.0625,-1.6875 0.64615,5.21236 3.29512,9.82764 7.15625,13 -1.701,2.94683 -2.6875,6.35446 -2.6875,10 0,11.04569 8.95431,20 20,20 5.0171,0 9.58271,-1.85465 13.09375,-4.90625 5.39913,-0.59232 10.14272,-3.32878 13.375,-7.34375 0.03,0.0423 0.0633,0.083 0.0937,0.125 0.25317,0.35059 0.50643,0.69824 0.78125,1.03125 0.19699,0.2393 0.41729,0.4577 0.625,0.6875 0.0493,0.0545 0.10639,0.10229 0.15625,0.15625 0.0151,0.0164 0.0161,0.0462 0.0312,0.0625 0.0853,0.0915 0.16306,0.1914 0.25,0.28125 -7.86284,2.69351 -13.53125,10.13032 -13.53125,18.90625 0,11.04569 8.95431,20 20,20 7.0833,0 13.29036,-3.69525 16.84375,-9.25 1.6682,0.45109 3.40789,0.71875 5.21875,0.71875 2.19091,0 4.30846,-0.38023 6.28125,-1.03125 3.23108,2.24079 7.14515,3.5625 11.375,3.5625 9.29474,0 17.0995,-6.34567 19.34375,-14.9375 1.42679,0.3231 2.91299,0.5 4.4375,0.5 1.12701,0 2.23839,-0.0994 3.3125,-0.28125 -0.20181,1.13977 -0.3125,2.3023 -0.3125,3.5 0,11.04569 8.95431,20 20,20 7.93668,0 14.73752,-4.64368 17.96875,-11.34375 3.65646,3.99196 8.90989,6.5 14.75,6.5 11.04569,0 20,-8.95431 20,-20 0,-1.39196 -0.13299,-2.7539 -0.40625,-4.0625 1.26904,-1.08295 2.4098,-2.32234 3.375,-3.6875 3.03908,3.59977 7.31956,6.11662 12.1875,6.875 3.04527,7.15779 10.1368,12.1875 18.40625,12.1875 5.13622,0 9.80772,-1.9419 13.34375,-5.125 3.38164,2.61808 7.61113,4.1875 12.21875,4.1875 11.04569,0 20,-8.95431 20,-20 0,-5.29273 -2.08071,-10.11018 -5.4375,-13.6875 2.98865,-3.4949 4.8125,-8.00972 4.8125,-12.96875 0,-8.36436 -5.14827,-15.51424 -12.4375,-18.5 5.6277,-3.53896 9.375,-9.79872 9.375,-16.9375 0,-0.25112 -0.0221,-0.50112 -0.0312,-0.75 1.98776,-3.10732 3.15625,-6.78761 3.15625,-10.75 0,-5.96757 -2.63627,-11.3043 -6.78125,-14.96875 2.86993,-3.46209 4.59375,-7.90169 4.59375,-12.75 0,-2.00476 -0.3261,-3.92406 -0.875,-5.75 5.40464,-3.58045 8.96875,-9.71892 8.96875,-16.6875 0,-11.04569 -8.95431,-20 -20,-20 -9.69624,0 -17.76307,6.90476 -19.59375,16.0625 -2.70202,-1.35425 -5.74295,-2.125 -8.96875,-2.125 -0.34518,0 -0.69037,-0.0173 -1.03125,0 -10.5674,0.53566 -18.96875,9.29948 -18.96875,20 0,0.87357 0.0476,1.71849 0.15625,2.5625 -2.28621,2.1272 -4.09134,4.76303 -5.1875,7.75 -2.66627,-7.91155 -10.12675,-13.625 -18.9375,-13.625 -11.04569,0 -20,8.95431 -20,20 0,3.24315 0.81734,6.29115 2.1875,9 -3.23499,-2.24949 -7.16743,-3.5625 -11.40625,-3.5625 -6.67793,0 -12.61509,3.28234 -16.25,8.3125 -0.0406,-0.004 -0.0842,0.004 -0.125,0 -2.23628,-2.37984 -5.05727,-4.24017 -8.21875,-5.3125 -2.58305,-1.21685 -5.45547,-1.90625 -8.5,-1.90625 -2.50338,0 -4.88511,0.47252 -7.09375,1.3125 -3.22797,-2.26597 -7.15926,-3.59375 -11.40625,-3.59375 -0.0422,0 -0.083,-2.2e-4 -0.125,0 -1.65074,-1.68683 -3.59107,-3.07297 -5.75,-4.09375 -0.0421,-0.0199 -0.0827,-0.0429 -0.125,-0.0625 -1.7539,-1.08449 -3.69373,-1.90582 -5.75,-2.40625 1.06434,-2.44404 1.65625,-5.13284 1.65625,-7.96875 0,-11.04569 -8.95431,-20 -20,-20 -11.04569,0 -20,8.95431 -20,20 0,9.42873 6.53199,17.3252 15.3125,19.4375 -0.88244,2.02739 -1.46019,4.22104 -1.625,6.53125 -0.71741,0.25379 -1.41658,0.54431 -2.09375,0.875 -3.56496,-5.48276 -9.72345,-9.125 -16.75,-9.125 -1.26218,0 -2.49018,0.12015 -3.6875,0.34375 -3.07993,-1.9368 -6.71809,-3.0625 -10.625,-3.0625 -1.58768,0 -3.11482,0.20889 -4.59375,0.5625 -0.17957,-0.44724 -0.38348,-0.88192 -0.59375,-1.3125 -0.19078,-1.07205 -0.45883,-2.11933 -0.8125,-3.125 1.64913,-2.90797 2.59375,-6.26193 2.59375,-9.84375 0,-6.22895 -2.84811,-11.80074 -7.3125,-15.46875 9.7813,-1.307 17.34375,-9.67357 17.34375,-19.8125 0,-11.04569 -8.95431,-20 -20,-20 -1.04606,0 -2.06024,0.0949 -3.0625,0.25 -3.28152,-2.35692 -7.27642,-3.75 -11.625,-3.75 -2.68133,0 -5.25707,0.54287 -7.59375,1.5 -3.55957,-5.52214 -9.75405,-9.1875 -16.8125,-9.1875 z M 389,286.75 c -11.04569,0 -20,8.95431 -20,20 0,11.04569 8.95431,20 20,20 11.04569,0 20,-8.95431 20,-20 0,-11.04569 -8.95431,-20 -20,-20 z m -26.84375,81.75 c 0.0616,0.0428 0.12545,0.083 0.1875,0.125 0.0234,0.13347 0.0365,0.2737 0.0625,0.40625 -0.082,-0.17629 -0.16249,-0.35824 -0.25,-0.53125 z"
       style="fill:#542f09;fill-opacity:1" />
    <path
       transform="matrix(0.73000518,0.21451092,-0.23494053,0.79952949,92.915834,-73.332149)"
       d="m 406.08132,45.240093 a 23.233509,15.152288 0 1 1 -46.46702,0 23.233509,15.152288 0 1 1 46.46702,0 z"
       sodipodi:ry="15.152288"
       sodipodi:rx="23.233509"
       sodipodi:cy="45.240093"
       sodipodi:cx="382.84781"
       id="path6144"
       style="fill:#ffd35b;fill-opacity:1;stroke:none"
       sodipodi:type="arc" />
    <path
       transform="matrix(0.73000518,0.21451092,-0.23494053,0.79952949,88.986172,-58.16752)"
       d="m 406.08132,45.240093 a 23.233509,15.152288 0 1 1 -46.46702,0 23.233509,15.152288 0 1 1 46.46702,0 z"
       sodipodi:ry="15.152288"
       sodipodi:rx="23.233509"
       sodipodi:cy="45.240093"
       sodipodi:cx="382.84781"
       id="path6146"
       style="fill:#ffd35b;fill-opacity:1;stroke:none"
       sodipodi:type="arc" />
    <path
       transform="matrix(0.73000518,0.21451092,-0.23494053,0.79952949,86.083078,-41.121946)"
       d="m 406.08132,45.240093 a 23.233509,15.152288 0 1 1 -46.46702,0 23.233509,15.152288 0 1 1 46.46702,0 z"
       sodipodi:ry="15.152288"
       sodipodi:rx="23.233509"
       sodipodi:cy="45.240093"
       sodipodi:cx="382.84781"
       id="path6148"
       style="fill:#ffd35b;fill-opacity:1;stroke:none"
       sodipodi:type="arc" />
    <path
       transform="matrix(0.6075365,-0.45806321,0.50168828,0.66539712,73.009135,195.47552)"
       d="m 406.08132,45.240093 a 23.233509,15.152288 0 1 1 -46.46702,0 23.233509,15.152288 0 1 1 46.46702,0 z"
       sodipodi:ry="15.152288"
       sodipodi:rx="23.233509"
       sodipodi:cy="45.240093"
       sodipodi:cx="382.84781"
       id="path6150"
       style="fill:#ffd35b;fill-opacity:1;stroke:none"
       sodipodi:type="arc" />
  </g>
  <g
     style="display:inline"
     inkscape:label="Anim 3"
     inkscape:groupmode="layer"
     id="layer3"
     transform="translate(-121.0625,59.40625)">
    <path
       style="fill:#241c6a;fill-opacity:1;stroke:none"
       d="m 361.38136,325.12281 54.40514,-68.89161 -68.42312,-29.60056 19.69504,-31.72877 102.85486,48.09523 -74.30652,89.75393 z"
       id="path6154"
       inkscape:connector-curvature="0"
       sodipodi:nodetypes="ccccccc" />
    <path
       style="fill:#241c6a;fill-opacity:1;stroke:none"
       d="m 218.4448,275.62532 32.99974,-109.26001 95.93999,-100.921845 13.99828,40.172875 -72.87736,79.87172 -34.84915,97.98526 z"
       id="path6156"
       inkscape:connector-curvature="0"
       sodipodi:nodetypes="ccccccc" />
    <g
       transform="translate(0,8)"
       id="g6158">
      <path
         sodipodi:nodetypes="cccsccsccsccscccc"
         inkscape:connector-curvature="0"
         id="path6160"
         d="m 335.25893,-59.40625 c -2.6897,0.01511 -5.12624,2.466505 -5.125,5.15625 l 0,132.59375 c -2.50468,0.474769 -4.88358,1.696075 -6.6875,3.5 -2.35457,2.354574 -3.71915,5.67013 -3.71875,9 l 0,158.78125 c -4e-4,3.32987 1.36418,6.64543 3.71875,9 2.35457,2.35457 5.67013,3.71915 9,3.71875 l 25.5,0 c 3.32987,4e-4 6.64543,-1.36418 9,-3.71875 2.35457,-2.35457 3.71915,-5.67013 3.71875,-9 l 0,-158.78125 c 4e-4,-3.32987 -1.36418,-6.645426 -3.71875,-9 -1.80392,-1.803925 -4.18282,-3.025231 -6.6875,-3.5 l 0,-132.59375 c 10e-4,-2.700135 -2.45612,-5.157453 -5.15625,-5.15625 z"
         style="font-size:medium;font-style:normal;font-variant:normal;font-weight:normal;font-stretch:normal;text-indent:0;text-align:start;text-decoration:none;line-height:normal;letter-spacing:normal;word-spacing:normal;text-transform:none;direction:ltr;block-progression:tb;writing-mode:lr-tb;text-anchor:start;baseline-shift:baseline;color:#000000;fill:#0c0c0c;fill-opacity:1;fill-rule:nonzero;stroke:none;stroke-width:25.43191528;marker:none;visibility:visible;display:inline;overflow:visible;enable-background:accumulate;font-family:Sans;-inkscape-font-specification:Sans" />
      <path
         inkscape:connector-curvature="0"
         id="path6162"
         d="m 338.3808,230.20446 0,-138.00302"
         style="fill:none;stroke:#1e1e1e;stroke-width:11.34599972;stroke-linecap:round;stroke-linejoin:miter;stroke-miterlimit:4;stroke-opacity:1;stroke-dasharray:none" />
      <path
         inkscape:connector-curvature="0"
         id="path6164"
         d="m 340.92649,62.742248 0,-107.735288"
         style="fill:none;stroke:#1e1e1e;stroke-width:7.87133932;stroke-linecap:round;stroke-linejoin:miter;stroke-miterlimit:4;stroke-opacity:1;stroke-dasharray:none" />
    </g>
    <path
       transform="translate(0,8)"
       sodipodi:type="arc"
       style="fill:#ffd35b;fill-opacity:1"
       id="path6166"
       sodipodi:cx="305.71429"
       sodipodi:cy="340.93362"
       sodipodi:rx="134.28572"
       sodipodi:ry="114.28571"
       d="m 440.00002,340.93362 a 134.28572,114.28571 0 1 1 -268.57145,0 134.28572,114.28571 0 1 1 268.57145,0 z" />
    <g
       id="g6168"
       transform="translate(0.17337933,8)">
      <g
         transform="translate(0,1.785715)"
         id="g6170">
        <path
           sodipodi:type="arc"
           style="fill:#ffffff;fill-opacity:1"
           id="path6172"
           sodipodi:cx="157.14285"
           sodipodi:cy="147.36218"
           sodipodi:rx="52.857143"
           sodipodi:ry="73.571426"
           d="m 210,147.36218 a 52.857143,73.571426 0 1 1 -105.71429,0 52.857143,73.571426 0 1 1 105.71429,0 z"
           transform="matrix(0.53398057,0,0,0.53398057,178.59917,203.24507)" />
        <path
           sodipodi:type="arc"
           style="fill:#1c2364;fill-opacity:1"
           id="path6174"
           sodipodi:cx="170"
           sodipodi:cy="136.6479"
           sodipodi:rx="27.142857"
           sodipodi:ry="32.857143"
           d="m 197.14286,136.6479 a 27.142857,32.857143 0 1 1 -54.28572,0 27.142857,32.857143 0 1 1 54.28572,0 z"
           transform="matrix(0.53398057,0,0,0.53398057,175.54785,194.09111)" />
      </g>
      <g
         transform="translate(0,-1.785715)"
         id="g6176">
        <path
           sodipodi:type="arc"
           style="fill:#ffffff;fill-opacity:1"
           id="path6178"
           sodipodi:cx="157.14285"
           sodipodi:cy="147.36218"
           sodipodi:rx="52.857143"
           sodipodi:ry="73.571426"
           d="m 210,147.36218 a 52.857143,73.571426 0 1 1 -105.71429,0 52.857143,73.571426 0 1 1 105.71429,0 z"
           transform="matrix(0.53398057,0,0,0.53398057,264.6602,206.8165)" />
        <path
           sodipodi:type="arc"
           style="fill:#1c2364;fill-opacity:1"
           id="path6180"
           sodipodi:cx="170"
           sodipodi:cy="136.6479"
           sodipodi:rx="27.142857"
           sodipodi:ry="32.857143"
           d="m 197.14286,136.6479 a 27.142857,32.857143 0 1 1 -54.28572,0 27.142857,32.857143 0 1 1 54.28572,0 z"
           transform="matrix(0.53398057,0,0,0.53398057,253.60888,197.66254)" />
      </g>
    </g>
    <path
       style="fill:#542f09;fill-opacity:1"
       d="m 170.6875,276.59375 c -11.04569,0 -20,8.95431 -20,20 0,5.8541 2.52232,11.09334 6.53125,14.75 -0.92856,1.94279 -1.58557,4.05358 -1.84375,6.28125 -1.38877,-0.31828 -2.82432,-0.53125 -4.3125,-0.53125 -0.34518,0 -0.69037,-0.0173 -1.03125,0 -10.5674,0.53566 -18.96875,9.29948 -18.96875,20 0,6.1087 2.74596,11.55021 7.0625,15.21875 -0.15175,0.99312 -0.21875,1.99572 -0.21875,3.03125 0,7.74288 4.40773,14.45765 10.84375,17.78125 1.28116,3.71722 3.6097,6.92064 6.65625,9.28125 -0.28566,1.34453 -0.4375,2.72564 -0.4375,4.15625 0,11.04569 8.95431,20 20,20 2.87074,0 5.59477,-0.59832 8.0625,-1.6875 0.64615,5.21236 3.29512,9.82764 7.15625,13 -1.701,2.94683 -2.6875,6.35446 -2.6875,10 0,11.04569 8.95431,20 20,20 5.0171,0 9.58271,-1.85465 13.09375,-4.90625 5.39913,-0.59232 10.14272,-3.32878 13.375,-7.34375 0.03,0.0423 0.0633,0.083 0.0937,0.125 0.25317,0.35059 0.50643,0.69824 0.78125,1.03125 0.19699,0.2393 0.41729,0.4577 0.625,0.6875 0.0493,0.0545 0.10639,0.10229 0.15625,0.15625 0.0151,0.0164 0.0161,0.0462 0.0312,0.0625 0.0853,0.0915 0.16306,0.1914 0.25,0.28125 -7.86284,2.69351 -13.53125,10.13032 -13.53125,18.90625 0,11.04569 8.95431,20 20,20 7.0833,0 13.29036,-3.69525 16.84375,-9.25 1.6682,0.45109 3.40789,0.71875 5.21875,0.71875 2.19091,0 4.30846,-0.38023 6.28125,-1.03125 3.23108,2.24079 7.14515,3.5625 11.375,3.5625 9.29474,0 17.0995,-6.34567 19.34375,-14.9375 1.42679,0.3231 2.91299,0.5 4.4375,0.5 1.12701,0 2.23839,-0.0994 3.3125,-0.28125 -0.20181,1.13977 -0.3125,2.3023 -0.3125,3.5 0,11.04569 8.95431,20 20,20 7.93668,0 14.73752,-4.64368 17.96875,-11.34375 3.65646,3.99196 8.90989,6.5 14.75,6.5 11.04569,0 20,-8.95431 20,-20 0,-1.39196 -0.13299,-2.7539 -0.40625,-4.0625 1.26904,-1.08295 2.4098,-2.32234 3.375,-3.6875 3.03908,3.59977 7.31956,6.11662 12.1875,6.875 3.04527,7.15779 10.1368,12.1875 18.40625,12.1875 5.13622,0 9.80772,-1.9419 13.34375,-5.125 3.38164,2.61808 7.61113,4.1875 12.21875,4.1875 11.04569,0 20,-8.95431 20,-20 0,-5.29273 -2.08071,-10.11018 -5.4375,-13.6875 2.98865,-3.4949 4.8125,-8.00972 4.8125,-12.96875 0,-8.36436 -5.14827,-15.51424 -12.4375,-18.5 5.6277,-3.53896 9.375,-9.79872 9.375,-16.9375 0,-0.25112 -0.0221,-0.50112 -0.0312,-0.75 1.98776,-3.10732 3.15625,-6.78761 3.15625,-10.75 0,-5.96757 -2.63627,-11.3043 -6.78125,-14.96875 2.86993,-3.46209 4.59375,-7.90169 4.59375,-12.75 0,-2.00476 -0.3261,-3.92406 -0.875,-5.75 5.40464,-3.58045 8.96875,-9.71892 8.96875,-16.6875 0,-11.04569 -8.95431,-20 -20,-20 -9.69624,0 -17.76307,6.90476 -19.59375,16.0625 -2.70202,-1.35425 -5.74295,-2.125 -8.96875,-2.125 -0.34518,0 -0.69037,-0.0173 -1.03125,0 -10.5674,0.53566 -18.96875,9.29948 -18.96875,20 0,0.87357 0.0476,1.71849 0.15625,2.5625 -2.28621,2.1272 -4.09134,4.76303 -5.1875,7.75 -2.66627,-7.91155 -10.12675,-13.625 -18.9375,-13.625 -11.04569,0 -20,8.95431 -20,20 0,3.24315 0.81734,6.29115 2.1875,9 -3.23499,-2.24949 -7.16743,-3.5625 -11.40625,-3.5625 -6.67793,0 -12.61509,3.28234 -16.25,8.3125 -0.0406,-0.004 -0.0842,0.004 -0.125,0 -2.23628,-2.37984 -5.05727,-4.24017 -8.21875,-5.3125 -2.58305,-1.21685 -5.45547,-1.90625 -8.5,-1.90625 -2.50338,0 -4.88511,0.47252 -7.09375,1.3125 -3.22797,-2.26597 -7.15926,-3.59375 -11.40625,-3.59375 -0.0422,0 -0.083,-2.2e-4 -0.125,0 -1.65074,-1.68683 -3.59107,-3.07297 -5.75,-4.09375 -0.0421,-0.0199 -0.0827,-0.0429 -0.125,-0.0625 -1.7539,-1.08449 -3.69373,-1.90582 -5.75,-2.40625 1.06434,-2.44404 1.65625,-5.13284 1.65625,-7.96875 0,-11.04569 -8.95431,-20 -20,-20 -11.04569,0 -20,8.95431 -20,20 0,9.42873 6.53199,17.3252 15.3125,19.4375 -0.88244,2.02739 -1.46019,4.22104 -1.625,6.53125 -0.71741,0.25379 -1.41658,0.54431 -2.09375,0.875 -3.56496,-5.48276 -9.72345,-9.125 -16.75,-9.125 -1.26218,0 -2.49018,0.12015 -3.6875,0.34375 -3.07993,-1.9368 -6.71809,-3.0625 -10.625,-3.0625 -1.58768,0 -3.11482,0.20889 -4.59375,0.5625 -0.17957,-0.44724 -0.38348,-0.88192 -0.59375,-1.3125 -0.19078,-1.07205 -0.45883,-2.11933 -0.8125,-3.125 1.64913,-2.90797 2.59375,-6.26193 2.59375,-9.84375 0,-6.22895 -2.84811,-11.80074 -7.3125,-15.46875 9.7813,-1.307 17.34375,-9.67357 17.34375,-19.8125 0,-11.04569 -8.95431,-20 -20,-20 -1.04606,0 -2.06024,0.0949 -3.0625,0.25 -3.28152,-2.35692 -7.27642,-3.75 -11.625,-3.75 -2.68133,0 -5.25707,0.54287 -7.59375,1.5 -3.55957,-5.52214 -9.75405,-9.1875 -16.8125,-9.1875 z M 389,286.75 c -11.04569,0 -20,8.95431 -20,20 0,11.04569 8.95431,20 20,20 11.04569,0 20,-8.95431 20,-20 0,-11.04569 -8.95431,-20 -20,-20 z m -26.84375,81.75 c 0.0616,0.0428 0.12545,0.083 0.1875,0.125 0.0234,0.13347 0.0365,0.2737 0.0625,0.40625 -0.082,-0.17629 -0.16249,-0.35824 -0.25,-0.53125 z"
       id="path6182"
       inkscape:connector-curvature="0"
       sodipodi:nodetypes="ssccssscsccssccssccccscccsscscscscsscsscccscsscscscscscsscsssccsscscccscsccccssscccscscccscsscscsssssscccc" />
    <path
       sodipodi:type="arc"
       style="fill:#ffd35b;fill-opacity:1;stroke:none"
       id="path6184"
       sodipodi:cx="382.84781"
       sodipodi:cy="45.240093"
       sodipodi:rx="23.233509"
       sodipodi:ry="15.152288"
       d="m 406.08132,45.240093 a 23.233509,15.152288 0 1 1 -46.46702,0 23.233509,15.152288 0 1 1 46.46702,0 z"
       transform="matrix(0.73000518,0.21451092,-0.23494053,0.79952949,92.915834,-73.332149)" />
    <path
       sodipodi:type="arc"
       style="fill:#ffd35b;fill-opacity:1;stroke:none"
       id="path6186"
       sodipodi:cx="382.84781"
       sodipodi:cy="45.240093"
       sodipodi:rx="23.233509"
       sodipodi:ry="15.152288"
       d="m 406.08132,45.240093 a 23.233509,15.152288 0 1 1 -46.46702,0 23.233509,15.152288 0 1 1 46.46702,0 z"
       transform="matrix(0.73000518,0.21451092,-0.23494053,0.79952949,88.986172,-58.16752)" />
    <path
       sodipodi:type="arc"
       style="fill:#ffd35b;fill-opacity:1;stroke:none"
       id="path6188"
       sodipodi:cx="382.84781"
       sodipodi:cy="45.240093"
       sodipodi:rx="23.233509"
       sodipodi:ry="15.152288"
       d="m 406.08132,45.240093 a 23.233509,15.152288 0 1 1 -46.46702,0 23.233509,15.152288 0 1 1 46.46702,0 z"
       transform="matrix(0.73000518,0.21451092,-0.23494053,0.79952949,86.083078,-41.121946)" />
    <path
       sodipodi:type="arc"
       style="fill:#ffd35b;fill-opacity:1;stroke:none"
       id="path6190"
       sodipodi:cx="382.84781"
       sodipodi:cy="45.240093"
       sodipodi:rx="23.233509"
       sodipodi:ry="15.152288"
       d="m 406.08132,45.240093 a 23.233509,15.152288 0 1 1 -46.46702,0 23.233509,15.152288 0 1 1 46.46702,0 z"
       transform="matrix(0.6075365,-0.45806321,0.50168828,0.66539712,73.009135,195.47552)" />
  </g>
  <g
     transform="translate(-121.0625,59.40625)"
     id="layer4"
     inkscape:groupmode="layer"
     inkscape:label="Anim 4"
     style="display:inline">
    <path
       sodipodi:nodetypes="ccccccc"
       inkscape:connector-curvature="0"
       id="path6194"
       d="m 361.38136,329.12281 56.40514,-64.89161 -70.42312,-31.60056 19.69504,-31.72877 104.85486,50.09523 -76.30652,85.75393 z"
       style="fill:#241c6a;fill-opacity:1;stroke:none" />
    <path
       sodipodi:nodetypes="ccccccc"
       inkscape:connector-curvature="0"
       id="path6196"
       d="m 218.4448,279.62532 28.99974,-113.26001 99.93999,-96.921845 13.99828,40.172875 -76.87736,75.87172 -30.84915,101.98526 z"
       style="fill:#241c6a;fill-opacity:1;stroke:none" />
    <g
       id="g6198"
       transform="translate(0,12)">
      <path
         style="font-size:medium;font-style:normal;font-variant:normal;font-weight:normal;font-stretch:normal;text-indent:0;text-align:start;text-decoration:none;line-height:normal;letter-spacing:normal;word-spacing:normal;text-transform:none;direction:ltr;block-progression:tb;writing-mode:lr-tb;text-anchor:start;baseline-shift:baseline;color:#000000;fill:#0c0c0c;fill-opacity:1;fill-rule:nonzero;stroke:none;stroke-width:25.43191528;marker:none;visibility:visible;display:inline;overflow:visible;enable-background:accumulate;font-family:Sans;-inkscape-font-specification:Sans"
         d="m 335.25893,-59.40625 c -2.6897,0.01511 -5.12624,2.466505 -5.125,5.15625 l 0,132.59375 c -2.50468,0.474769 -4.88358,1.696075 -6.6875,3.5 -2.35457,2.354574 -3.71915,5.67013 -3.71875,9 l 0,158.78125 c -4e-4,3.32987 1.36418,6.64543 3.71875,9 2.35457,2.35457 5.67013,3.71915 9,3.71875 l 25.5,0 c 3.32987,4e-4 6.64543,-1.36418 9,-3.71875 2.35457,-2.35457 3.71915,-5.67013 3.71875,-9 l 0,-158.78125 c 4e-4,-3.32987 -1.36418,-6.645426 -3.71875,-9 -1.80392,-1.803925 -4.18282,-3.025231 -6.6875,-3.5 l 0,-132.59375 c 10e-4,-2.700135 -2.45612,-5.157453 -5.15625,-5.15625 z"
         id="path6200"
         inkscape:connector-curvature="0"
         sodipodi:nodetypes="cccsccsccsccscccc" />
      <path
         style="fill:none;stroke:#1e1e1e;stroke-width:11.34599972;stroke-linecap:round;stroke-linejoin:miter;stroke-miterlimit:4;stroke-opacity:1;stroke-dasharray:none"
         d="m 338.3808,230.20446 0,-138.00302"
         id="path6202"
         inkscape:connector-curvature="0" />
      <path
         style="fill:none;stroke:#1e1e1e;stroke-width:7.87133932;stroke-linecap:round;stroke-linejoin:miter;stroke-miterlimit:4;stroke-opacity:1;stroke-dasharray:none"
         d="m 340.92649,62.742248 0,-107.735288"
         id="path6204"
         inkscape:connector-curvature="0" />
    </g>
    <path
       d="m 440.00002,340.93362 a 134.28572,114.28571 0 1 1 -268.57145,0 134.28572,114.28571 0 1 1 268.57145,0 z"
       sodipodi:ry="114.28571"
       sodipodi:rx="134.28572"
       sodipodi:cy="340.93362"
       sodipodi:cx="305.71429"
       id="path6206"
       style="fill:#ffd35b;fill-opacity:1"
       sodipodi:type="arc"
       transform="translate(0,12)" />
    <g
       transform="translate(0.17337933,12)"
       id="g6208">
      <g
         id="g6210"
         transform="translate(0,1.785715)">
        <path
           transform="matrix(0.53398057,0,0,0.53398057,178.59917,203.24507)"
           d="m 210,147.36218 a 52.857143,73.571426 0 1 1 -105.71429,0 52.857143,73.571426 0 1 1 105.71429,0 z"
           sodipodi:ry="73.571426"
           sodipodi:rx="52.857143"
           sodipodi:cy="147.36218"
           sodipodi:cx="157.14285"
           id="path6212"
           style="fill:#ffffff;fill-opacity:1"
           sodipodi:type="arc" />
        <path
           transform="matrix(0.53398057,0,0,0.53398057,175.54785,194.09111)"
           d="m 197.14286,136.6479 a 27.142857,32.857143 0 1 1 -54.28572,0 27.142857,32.857143 0 1 1 54.28572,0 z"
           sodipodi:ry="32.857143"
           sodipodi:rx="27.142857"
           sodipodi:cy="136.6479"
           sodipodi:cx="170"
           id="path6214"
           style="fill:#1c2364;fill-opacity:1"
           sodipodi:type="arc" />
      </g>
      <g
         id="g6216"
         transform="translate(0,-1.785715)">
        <path
           transform="matrix(0.53398057,0,0,0.53398057,264.6602,206.8165)"
           d="m 210,147.36218 a 52.857143,73.571426 0 1 1 -105.71429,0 52.857143,73.571426 0 1 1 105.71429,0 z"
           sodipodi:ry="73.571426"
           sodipodi:rx="52.857143"
           sodipodi:cy="147.36218"
           sodipodi:cx="157.14285"
           id="path6218"
           style="fill:#ffffff;fill-opacity:1"
           sodipodi:type="arc" />
        <path
           transform="matrix(0.53398057,0,0,0.53398057,253.60888,197.66254)"
           d="m 197.14286,136.6479 a 27.142857,32.857143 0 1 1 -54.28572,0 27.142857,32.857143 0 1 1 54.28572,0 z"
           sodipodi:ry="32.857143"
           sodipodi:rx="27.142857"
           sodipodi:cy="136.6479"
           sodipodi:cx="170"
           id="path6220"
           style="fill:#1c2364;fill-opacity:1"
           sodipodi:type="arc" />
      </g>
    </g>
    <path
       sodipodi:nodetypes="ssccssscsccssccssccccscccsscscscscsscsscccscsscscscscscsscsssccsscscccscsccccssscccscscccscsscscsssssscccc"
       inkscape:connector-curvature="0"
       id="path6222"
       d="m 170.6875,280.59375 c -11.04569,0 -20,8.95431 -20,20 0,5.8541 2.52232,11.09334 6.53125,14.75 -0.92856,1.94279 -1.58557,4.05358 -1.84375,6.28125 -1.38877,-0.31828 -2.82432,-0.53125 -4.3125,-0.53125 -0.34518,0 -0.69037,-0.0173 -1.03125,0 -10.5674,0.53566 -18.96875,9.29948 -18.96875,20 0,6.1087 2.74596,11.55021 7.0625,15.21875 -0.15175,0.99312 -0.21875,1.99572 -0.21875,3.03125 0,7.74288 4.40773,14.45765 10.84375,17.78125 1.28116,3.71722 3.6097,6.92064 6.65625,9.28125 -0.28566,1.34453 -0.4375,2.72564 -0.4375,4.15625 0,11.04569 8.95431,20 20,20 2.87074,0 5.59477,-0.59832 8.0625,-1.6875 0.64615,5.21236 3.29512,9.82764 7.15625,13 -1.701,2.94683 -2.6875,6.35446 -2.6875,10 0,11.04569 8.95431,20 20,20 5.0171,0 9.58271,-1.85465 13.09375,-4.90625 5.39913,-0.59232 10.14272,-3.32878 13.375,-7.34375 0.03,0.0423 0.0633,0.083 0.0937,0.125 0.25317,0.35059 0.50643,0.69824 0.78125,1.03125 0.19699,0.2393 0.41729,0.4577 0.625,0.6875 0.0493,0.0545 0.10639,0.10229 0.15625,0.15625 0.0151,0.0164 0.0161,0.0462 0.0312,0.0625 0.0853,0.0915 0.16306,0.1914 0.25,0.28125 -7.86284,2.69351 -13.53125,10.13032 -13.53125,18.90625 0,11.04569 8.95431,20 20,20 7.0833,0 13.29036,-3.69525 16.84375,-9.25 1.6682,0.45109 3.40789,0.71875 5.21875,0.71875 2.19091,0 4.30846,-0.38023 6.28125,-1.03125 3.23108,2.24079 7.14515,3.5625 11.375,3.5625 9.29474,0 17.0995,-6.34567 19.34375,-14.9375 1.42679,0.3231 2.91299,0.5 4.4375,0.5 1.12701,0 2.23839,-0.0994 3.3125,-0.28125 -0.20181,1.13977 -0.3125,2.3023 -0.3125,3.5 0,11.04569 8.95431,20 20,20 7.93668,0 14.73752,-4.64368 17.96875,-11.34375 3.65646,3.99196 8.90989,6.5 14.75,6.5 11.04569,0 20,-8.95431 20,-20 0,-1.39196 -0.13299,-2.7539 -0.40625,-4.0625 1.26904,-1.08295 2.4098,-2.32234 3.375,-3.6875 3.03908,3.59977 7.31956,6.11662 12.1875,6.875 3.04527,7.15779 10.1368,12.1875 18.40625,12.1875 5.13622,0 9.80772,-1.9419 13.34375,-5.125 3.38164,2.61808 7.61113,4.1875 12.21875,4.1875 11.04569,0 20,-8.95431 20,-20 0,-5.29273 -2.08071,-10.11018 -5.4375,-13.6875 2.98865,-3.4949 4.8125,-8.00972 4.8125,-12.96875 0,-8.36436 -5.14827,-15.51424 -12.4375,-18.5 5.6277,-3.53896 9.375,-9.79872 9.375,-16.9375 0,-0.25112 -0.0221,-0.50112 -0.0312,-0.75 1.98776,-3.10732 3.15625,-6.78761 3.15625,-10.75 0,-5.96757 -2.63627,-11.3043 -6.78125,-14.96875 2.86993,-3.46209 4.59375,-7.90169 4.59375,-12.75 0,-2.00476 -0.3261,-3.92406 -0.875,-5.75 5.40464,-3.58045 8.96875,-9.71892 8.96875,-16.6875 0,-11.04569 -8.95431,-20 -20,-20 -9.69624,0 -17.76307,6.90476 -19.59375,16.0625 -2.70202,-1.35425 -5.74295,-2.125 -8.96875,-2.125 -0.34518,0 -0.69037,-0.0173 -1.03125,0 -10.5674,0.53566 -18.96875,9.29948 -18.96875,20 0,0.87357 0.0476,1.71849 0.15625,2.5625 -2.28621,2.1272 -4.09134,4.76303 -5.1875,7.75 -2.66627,-7.91155 -10.12675,-13.625 -18.9375,-13.625 -11.04569,0 -20,8.95431 -20,20 0,3.24315 0.81734,6.29115 2.1875,9 -3.23499,-2.24949 -7.16743,-3.5625 -11.40625,-3.5625 -6.67793,0 -12.61509,3.28234 -16.25,8.3125 -0.0406,-0.004 -0.0842,0.004 -0.125,0 -2.23628,-2.37984 -5.05727,-4.24017 -8.21875,-5.3125 -2.58305,-1.21685 -5.45547,-1.90625 -8.5,-1.90625 -2.50338,0 -4.88511,0.47252 -7.09375,1.3125 -3.22797,-2.26597 -7.15926,-3.59375 -11.40625,-3.59375 -0.0422,0 -0.083,-2.2e-4 -0.125,0 -1.65074,-1.68683 -3.59107,-3.07297 -5.75,-4.09375 -0.0421,-0.0199 -0.0827,-0.0429 -0.125,-0.0625 -1.7539,-1.08449 -3.69373,-1.90582 -5.75,-2.40625 1.06434,-2.44404 1.65625,-5.13284 1.65625,-7.96875 0,-11.04569 -8.95431,-20 -20,-20 -11.04569,0 -20,8.95431 -20,20 0,9.42873 6.53199,17.3252 15.3125,19.4375 -0.88244,2.02739 -1.46019,4.22104 -1.625,6.53125 -0.71741,0.25379 -1.41658,0.54431 -2.09375,0.875 -3.56496,-5.48276 -9.72345,-9.125 -16.75,-9.125 -1.26218,0 -2.49018,0.12015 -3.6875,0.34375 -3.07993,-1.9368 -6.71809,-3.0625 -10.625,-3.0625 -1.58768,0 -3.11482,0.20889 -4.59375,0.5625 -0.17957,-0.44724 -0.38348,-0.88192 -0.59375,-1.3125 -0.19078,-1.07205 -0.45883,-2.11933 -0.8125,-3.125 1.64913,-2.90797 2.59375,-6.26193 2.59375,-9.84375 0,-6.22895 -2.84811,-11.80074 -7.3125,-15.46875 9.7813,-1.307 17.34375,-9.67357 17.34375,-19.8125 0,-11.04569 -8.95431,-20 -20,-20 -1.04606,0 -2.06024,0.0949 -3.0625,0.25 -3.28152,-2.35692 -7.27642,-3.75 -11.625,-3.75 -2.68133,0 -5.25707,0.54287 -7.59375,1.5 -3.55957,-5.52214 -9.75405,-9.1875 -16.8125,-9.1875 z M 389,290.75 c -11.04569,0 -20,8.95431 -20,20 0,11.04569 8.95431,20 20,20 11.04569,0 20,-8.95431 20,-20 0,-11.04569 -8.95431,-20 -20,-20 z m -26.84375,81.75 c 0.0616,0.0428 0.12545,0.083 0.1875,0.125 0.0234,0.13347 0.0365,0.2737 0.0625,0.40625 -0.082,-0.17629 -0.16249,-0.35824 -0.25,-0.53125 z"
       style="fill:#542f09;fill-opacity:1" />
    <path
       transform="matrix(0.73000518,0.21451092,-0.23494053,0.79952949,92.915834,-69.332149)"
       d="m 406.08132,45.240093 a 23.233509,15.152288 0 1 1 -46.46702,0 23.233509,15.152288 0 1 1 46.46702,0 z"
       sodipodi:ry="15.152288"
       sodipodi:rx="23.233509"
       sodipodi:cy="45.240093"
       sodipodi:cx="382.84781"
       id="path6224"
       style="fill:#ffd35b;fill-opacity:1;stroke:none"
       sodipodi:type="arc" />
    <path
       transform="matrix(0.73000518,0.21451092,-0.23494053,0.79952949,88.986172,-54.16752)"
       d="m 406.08132,45.240093 a 23.233509,15.152288 0 1 1 -46.46702,0 23.233509,15.152288 0 1 1 46.46702,0 z"
       sodipodi:ry="15.152288"
       sodipodi:rx="23.233509"
       sodipodi:cy="45.240093"
       sodipodi:cx="382.84781"
       id="path6226"
       style="fill:#ffd35b;fill-opacity:1;stroke:none"
       sodipodi:type="arc" />
    <path
       transform="matrix(0.73000518,0.21451092,-0.23494053,0.79952949,86.083078,-37.121946)"
       d="m 406.08132,45.240093 a 23.233509,15.152288 0 1 1 -46.46702,0 23.233509,15.152288 0 1 1 46.46702,0 z"
       sodipodi:ry="15.152288"
       sodipodi:rx="23.233509"
       sodipodi:cy="45.240093"
       sodipodi:cx="382.84781"
       id="path6228"
       style="fill:#ffd35b;fill-opacity:1;stroke:none"
       sodipodi:type="arc" />
    <path
       transform="matrix(0.6075365,-0.45806321,0.50168828,0.66539712,73.009135,199.47552)"
       d="m 406.08132,45.240093 a 23.233509,15.152288 0 1 1 -46.46702,0 23.233509,15.152288 0 1 1 46.46702,0 z"
       sodipodi:ry="15.152288"
       sodipodi:rx="23.233509"
       sodipodi:cy="45.240093"
       sodipodi:cx="382.84781"
       id="path6230"
       style="fill:#ffd35b;fill-opacity:1;stroke:none"
       sodipodi:type="arc" />
  </g>
  <g
     style="display:inline"
     inkscape:label="Anim 5"
     inkscape:groupmode="layer"
     id="layer5"
     transform="translate(-121.0625,59.40625)">
    <path
       style="fill:#241c6a;fill-opacity:1;stroke:none"
       d="m 361.38136,333.12281 58.40514,-64.89161 -74.42312,-27.60056 19.69504,-31.72877 108.85486,46.09523 -78.30652,85.75393 z"
       id="path6234"
       inkscape:connector-curvature="0"
       sodipodi:nodetypes="ccccccc" />
    <path
       style="fill:#241c6a;fill-opacity:1;stroke:none"
       d="M 218.4448,283.62532 245.44454,168.36531 347.38453,69.443465 361.38281,109.61634 282.50545,187.48806 253.6563,291.47332 z"
       id="path6236"
       inkscape:connector-curvature="0"
       sodipodi:nodetypes="ccccccc" />
    <g
       transform="translate(0,16)"
       id="g6238">
      <path
         sodipodi:nodetypes="cccsccsccsccscccc"
         inkscape:connector-curvature="0"
         id="path6240"
         d="m 335.25893,-59.40625 c -2.6897,0.01511 -5.12624,2.466505 -5.125,5.15625 l 0,132.59375 c -2.50468,0.474769 -4.88358,1.696075 -6.6875,3.5 -2.35457,2.354574 -3.71915,5.67013 -3.71875,9 l 0,158.78125 c -4e-4,3.32987 1.36418,6.64543 3.71875,9 2.35457,2.35457 5.67013,3.71915 9,3.71875 l 25.5,0 c 3.32987,4e-4 6.64543,-1.36418 9,-3.71875 2.35457,-2.35457 3.71915,-5.67013 3.71875,-9 l 0,-158.78125 c 4e-4,-3.32987 -1.36418,-6.645426 -3.71875,-9 -1.80392,-1.803925 -4.18282,-3.025231 -6.6875,-3.5 l 0,-132.59375 c 10e-4,-2.700135 -2.45612,-5.157453 -5.15625,-5.15625 z"
         style="font-size:medium;font-style:normal;font-variant:normal;font-weight:normal;font-stretch:normal;text-indent:0;text-align:start;text-decoration:none;line-height:normal;letter-spacing:normal;word-spacing:normal;text-transform:none;direction:ltr;block-progression:tb;writing-mode:lr-tb;text-anchor:start;baseline-shift:baseline;color:#000000;fill:#0c0c0c;fill-opacity:1;fill-rule:nonzero;stroke:none;stroke-width:25.43191528;marker:none;visibility:visible;display:inline;overflow:visible;enable-background:accumulate;font-family:Sans;-inkscape-font-specification:Sans" />
      <path
         inkscape:connector-curvature="0"
         id="path6242"
         d="m 338.3808,230.20446 0,-138.00302"
         style="fill:none;stroke:#1e1e1e;stroke-width:11.34599972;stroke-linecap:round;stroke-linejoin:miter;stroke-miterlimit:4;stroke-opacity:1;stroke-dasharray:none" />
      <path
         inkscape:connector-curvature="0"
         id="path6244"
         d="m 340.92649,62.742248 0,-107.735288"
         style="fill:none;stroke:#1e1e1e;stroke-width:7.87133932;stroke-linecap:round;stroke-linejoin:miter;stroke-miterlimit:4;stroke-opacity:1;stroke-dasharray:none" />
    </g>
    <path
       transform="translate(0,16)"
       sodipodi:type="arc"
       style="fill:#ffd35b;fill-opacity:1"
       id="path6246"
       sodipodi:cx="305.71429"
       sodipodi:cy="340.93362"
       sodipodi:rx="134.28572"
       sodipodi:ry="114.28571"
       d="m 440.00002,340.93362 a 134.28572,114.28571 0 1 1 -268.57145,0 134.28572,114.28571 0 1 1 268.57145,0 z" />
    <g
       id="g6248"
       transform="translate(0.17337933,16)">
      <g
         transform="translate(0,1.785715)"
         id="g6250">
        <path
           sodipodi:type="arc"
           style="fill:#ffffff;fill-opacity:1"
           id="path6252"
           sodipodi:cx="157.14285"
           sodipodi:cy="147.36218"
           sodipodi:rx="52.857143"
           sodipodi:ry="73.571426"
           d="m 210,147.36218 a 52.857143,73.571426 0 1 1 -105.71429,0 52.857143,73.571426 0 1 1 105.71429,0 z"
           transform="matrix(0.53398057,0,0,0.53398057,178.59917,203.24507)" />
        <path
           sodipodi:type="arc"
           style="fill:#1c2364;fill-opacity:1"
           id="path6254"
           sodipodi:cx="170"
           sodipodi:cy="136.6479"
           sodipodi:rx="27.142857"
           sodipodi:ry="32.857143"
           d="m 197.14286,136.6479 a 27.142857,32.857143 0 1 1 -54.28572,0 27.142857,32.857143 0 1 1 54.28572,0 z"
           transform="matrix(0.53398057,0,0,0.53398057,175.54785,194.09111)" />
      </g>
      <g
         transform="translate(0,-1.785715)"
         id="g6256">
        <path
           sodipodi:type="arc"
           style="fill:#ffffff;fill-opacity:1"
           id="path6258"
           sodipodi:cx="157.14285"
           sodipodi:cy="147.36218"
           sodipodi:rx="52.857143"
           sodipodi:ry="73.571426"
           d="m 210,147.36218 a 52.857143,73.571426 0 1 1 -105.71429,0 52.857143,73.571426 0 1 1 105.71429,0 z"
           transform="matrix(0.53398057,0,0,0.53398057,264.6602,206.8165)" />
        <path
           sodipodi:type="arc"
           style="fill:#1c2364;fill-opacity:1"
           id="path6260"
           sodipodi:cx="170"
           sodipodi:cy="136.6479"
           sodipodi:rx="27.142857"
           sodipodi:ry="32.857143"
           d="m 197.14286,136.6479 a 27.142857,32.857143 0 1 1 -54.28572,0 27.142857,32.857143 0 1 1 54.28572,0 z"
           transform="matrix(0.53398057,0,0,0.53398057,253.60888,197.66254)" />
      </g>
    </g>
    <path
       style="fill:#542f09;fill-opacity:1"
       d="m 170.6875,284.59375 c -11.04569,0 -20,8.95431 -20,20 0,5.8541 2.52232,11.09334 6.53125,14.75 -0.92856,1.94279 -1.58557,4.05358 -1.84375,6.28125 -1.38877,-0.31828 -2.82432,-0.53125 -4.3125,-0.53125 -0.34518,0 -0.69037,-0.0173 -1.03125,0 -10.5674,0.53566 -18.96875,9.29948 -18.96875,20 0,6.1087 2.74596,11.55021 7.0625,15.21875 -0.15175,0.99312 -0.21875,1.99572 -0.21875,3.03125 0,7.74288 4.40773,14.45765 10.84375,17.78125 1.28116,3.71722 3.6097,6.92064 6.65625,9.28125 -0.28566,1.34453 -0.4375,2.72564 -0.4375,4.15625 0,11.04569 8.95431,20 20,20 2.87074,0 5.59477,-0.59832 8.0625,-1.6875 0.64615,5.21236 3.29512,9.82764 7.15625,13 -1.701,2.94683 -2.6875,6.35446 -2.6875,10 0,11.04569 8.95431,20 20,20 5.0171,0 9.58271,-1.85465 13.09375,-4.90625 5.39913,-0.59232 10.14272,-3.32878 13.375,-7.34375 0.03,0.0423 0.0633,0.083 0.0937,0.125 0.25317,0.35059 0.50643,0.69824 0.78125,1.03125 0.19699,0.2393 0.41729,0.4577 0.625,0.6875 0.0493,0.0545 0.10639,0.10229 0.15625,0.15625 0.0151,0.0164 0.0161,0.0462 0.0312,0.0625 0.0853,0.0915 0.16306,0.1914 0.25,0.28125 -7.86284,2.69351 -13.53125,10.13032 -13.53125,18.90625 0,11.04569 8.95431,20 20,20 7.0833,0 13.29036,-3.69525 16.84375,-9.25 1.6682,0.45109 3.40789,0.71875 5.21875,0.71875 2.19091,0 4.30846,-0.38023 6.28125,-1.03125 3.23108,2.24079 7.14515,3.5625 11.375,3.5625 9.29474,0 17.0995,-6.34567 19.34375,-14.9375 1.42679,0.3231 2.91299,0.5 4.4375,0.5 1.12701,0 2.23839,-0.0994 3.3125,-0.28125 -0.20181,1.13977 -0.3125,2.3023 -0.3125,3.5 0,11.04569 8.95431,20 20,20 7.93668,0 14.73752,-4.64368 17.96875,-11.34375 3.65646,3.99196 8.90989,6.5 14.75,6.5 11.04569,0 20,-8.95431 20,-20 0,-1.39196 -0.13299,-2.7539 -0.40625,-4.0625 1.26904,-1.08295 2.4098,-2.32234 3.375,-3.6875 3.03908,3.59977 7.31956,6.11662 12.1875,6.875 3.04527,7.15779 10.1368,12.1875 18.40625,12.1875 5.13622,0 9.80772,-1.9419 13.34375,-5.125 3.38164,2.61808 7.61113,4.1875 12.21875,4.1875 11.04569,0 20,-8.95431 20,-20 0,-5.29273 -2.08071,-10.11018 -5.4375,-13.6875 2.98865,-3.4949 4.8125,-8.00972 4.8125,-12.96875 0,-8.36436 -5.14827,-15.51424 -12.4375,-18.5 5.6277,-3.53896 9.375,-9.79872 9.375,-16.9375 0,-0.25112 -0.0221,-0.50112 -0.0312,-0.75 1.98776,-3.10732 3.15625,-6.78761 3.15625,-10.75 0,-5.96757 -2.63627,-11.3043 -6.78125,-14.96875 2.86993,-3.46209 4.59375,-7.90169 4.59375,-12.75 0,-2.00476 -0.3261,-3.92406 -0.875,-5.75 5.40464,-3.58045 8.96875,-9.71892 8.96875,-16.6875 0,-11.04569 -8.95431,-20 -20,-20 -9.69624,0 -17.76307,6.90476 -19.59375,16.0625 -2.70202,-1.35425 -5.74295,-2.125 -8.96875,-2.125 -0.34518,0 -0.69037,-0.0173 -1.03125,0 -10.5674,0.53566 -18.96875,9.29948 -18.96875,20 0,0.87357 0.0476,1.71849 0.15625,2.5625 -2.28621,2.1272 -4.09134,4.76303 -5.1875,7.75 -2.66627,-7.91155 -10.12675,-13.625 -18.9375,-13.625 -11.04569,0 -20,8.95431 -20,20 0,3.24315 0.81734,6.29115 2.1875,9 -3.23499,-2.24949 -7.16743,-3.5625 -11.40625,-3.5625 -6.67793,0 -12.61509,3.28234 -16.25,8.3125 -0.0406,-0.004 -0.0842,0.004 -0.125,0 -2.23628,-2.37984 -5.05727,-4.24017 -8.21875,-5.3125 -2.58305,-1.21685 -5.45547,-1.90625 -8.5,-1.90625 -2.50338,0 -4.88511,0.47252 -7.09375,1.3125 -3.22797,-2.26597 -7.15926,-3.59375 -11.40625,-3.59375 -0.0422,0 -0.083,-2.2e-4 -0.125,0 -1.65074,-1.68683 -3.59107,-3.07297 -5.75,-4.09375 -0.0421,-0.0199 -0.0827,-0.0429 -0.125,-0.0625 -1.7539,-1.08449 -3.69373,-1.90582 -5.75,-2.40625 1.06434,-2.44404 1.65625,-5.13284 1.65625,-7.96875 0,-11.04569 -8.95431,-20 -20,-20 -11.04569,0 -20,8.95431 -20,20 0,9.42873 6.53199,17.3252 15.3125,19.4375 -0.88244,2.02739 -1.46019,4.22104 -1.625,6.53125 -0.71741,0.25379 -1.41658,0.54431 -2.09375,0.875 -3.56496,-5.48276 -9.72345,-9.125 -16.75,-9.125 -1.26218,0 -2.49018,0.12015 -3.6875,0.34375 -3.07993,-1.9368 -6.71809,-3.0625 -10.625,-3.0625 -1.58768,0 -3.11482,0.20889 -4.59375,0.5625 -0.17957,-0.44724 -0.38348,-0.88192 -0.59375,-1.3125 -0.19078,-1.07205 -0.45883,-2.11933 -0.8125,-3.125 1.64913,-2.90797 2.59375,-6.26193 2.59375,-9.84375 0,-6.22895 -2.84811,-11.80074 -7.3125,-15.46875 9.7813,-1.307 17.34375,-9.67357 17.34375,-19.8125 0,-11.04569 -8.95431,-20 -20,-20 -1.04606,0 -2.06024,0.0949 -3.0625,0.25 -3.28152,-2.35692 -7.27642,-3.75 -11.625,-3.75 -2.68133,0 -5.25707,0.54287 -7.59375,1.5 -3.55957,-5.52214 -9.75405,-9.1875 -16.8125,-9.1875 z M 389,294.75 c -11.04569,0 -20,8.95431 -20,20 0,11.04569 8.95431,20 20,20 11.04569,0 20,-8.95431 20,-20 0,-11.04569 -8.95431,-20 -20,-20 z m -26.84375,81.75 c 0.0616,0.0428 0.12545,0.083 0.1875,0.125 0.0234,0.13347 0.0365,0.2737 0.0625,0.40625 -0.082,-0.17629 -0.16249,-0.35824 -0.25,-0.53125 z"
       id="path6262"
       inkscape:connector-curvature="0"
       sodipodi:nodetypes="ssccssscsccssccssccccscccsscscscscsscsscccscsscscscscscsscsssccsscscccscsccccssscccscscccscsscscsssssscccc" />
    <path
       sodipodi:type="arc"
       style="fill:#ffd35b;fill-opacity:1;stroke:none"
       id="path6264"
       sodipodi:cx="382.84781"
       sodipodi:cy="45.240093"
       sodipodi:rx="23.233509"
       sodipodi:ry="15.152288"
       d="m 406.08132,45.240093 a 23.233509,15.152288 0 1 1 -46.46702,0 23.233509,15.152288 0 1 1 46.46702,0 z"
       transform="matrix(0.73000518,0.21451092,-0.23494053,0.79952949,92.915834,-65.332149)" />
    <path
       sodipodi:type="arc"
       style="fill:#ffd35b;fill-opacity:1;stroke:none"
       id="path6266"
       sodipodi:cx="382.84781"
       sodipodi:cy="45.240093"
       sodipodi:rx="23.233509"
       sodipodi:ry="15.152288"
       d="m 406.08132,45.240093 a 23.233509,15.152288 0 1 1 -46.46702,0 23.233509,15.152288 0 1 1 46.46702,0 z"
       transform="matrix(0.73000518,0.21451092,-0.23494053,0.79952949,88.986172,-50.16752)" />
    <path
       sodipodi:type="arc"
       style="fill:#ffd35b;fill-opacity:1;stroke:none"
       id="path6268"
       sodipodi:cx="382.84781"
       sodipodi:cy="45.240093"
       sodipodi:rx="23.233509"
       sodipodi:ry="15.152288"
       d="m 406.08132,45.240093 a 23.233509,15.152288 0 1 1 -46.46702,0 23.233509,15.152288 0 1 1 46.46702,0 z"
       transform="matrix(0.73000518,0.21451092,-0.23494053,0.79952949,86.083078,-33.121946)" />
    <path
       sodipodi:type="arc"
       style="fill:#ffd35b;fill-opacity:1;stroke:none"
       id="path6270"
       sodipodi:cx="382.84781"
       sodipodi:cy="45.240093"
       sodipodi:rx="23.233509"
       sodipodi:ry="15.152288"
       d="m 406.08132,45.240093 a 23.233509,15.152288 0 1 1 -46.46702,0 23.233509,15.152288 0 1 1 46.46702,0 z"
       transform="matrix(0.6075365,-0.45806321,0.50168828,0.66539712,73.009135,203.47552)" />
  </g>
</svg>
