<?xml version="1.0" encoding="UTF-8" standalone="no"?>
<!-- Created with Inkscape (http://www.inkscape.org/) -->

<svg
   xmlns:dc="http://purl.org/dc/elements/1.1/"
   xmlns:cc="http://creativecommons.org/ns#"
   xmlns:rdf="http://www.w3.org/1999/02/22-rdf-syntax-ns#"
   xmlns:svg="http://www.w3.org/2000/svg"
   xmlns="http://www.w3.org/2000/svg"
   xmlns:sodipodi="http://sodipodi.sourceforge.net/DTD/sodipodi-0.dtd"
   xmlns:inkscape="http://www.inkscape.org/namespaces/inkscape"
   width="395.27499"
   height="242.87494"
   id="svg6008"
   version="1.1"
   inkscape:version="0.48.3.1 r9886"
   sodipodi:docname="wall.svg"
   inkscape:export-filename="/media/Data/Atelier/QT/Projets/Zombu/graphics/wall.png"
   inkscape:export-xdpi="56.919998"
   inkscape:export-ydpi="56.919998">
  <defs
     id="defs6010" />
  <sodipodi:namedview
     id="base"
     pagecolor="#ffffff"
     bordercolor="#666666"
     borderopacity="1.0"
     inkscape:pageopacity="0.0"
     inkscape:pageshadow="2"
     inkscape:zoom="0.7"
     inkscape:cx="276.87625"
     inkscape:cy="-15.687316"
     inkscape:document-units="px"
     inkscape:current-layer="layer1"
     showgrid="false"
     inkscape:window-width="1600"
     inkscape:window-height="876"
     inkscape:window-x="0"
     inkscape:window-y="148"
     inkscape:window-maximized="1"
     fit-margin-top="10"
     fit-margin-left="10"
     fit-margin-right="10"
     fit-margin-bottom="10" />
  <metadata
     id="metadata6013">
    <rdf:RDF>
      <cc:Work
         rdf:about="">
        <dc:format>image/svg+xml</dc:format>
        <dc:type
           rdf:resource="http://purl.org/dc/dcmitype/StillImage" />
        <dc:title></dc:title>
      </cc:Work>
    </rdf:RDF>
  </metadata>
  <g
     inkscape:label="Calque 1"
     inkscape:groupmode="layer"
     id="layer1"
     transform="translate(-78.324,-23.138246)">
    <path
       style="font-size:medium;font-style:normal;font-variant:normal;font-weight:normal;font-stretch:normal;text-indent:0;text-align:start;text-decoration:none;line-height:normal;letter-spacing:normal;word-spacing:normal;text-transform:none;direction:ltr;block-progression:tb;writing-mode:lr-tb;text-anchor:start;baseline-shift:baseline;color:#000000;fill:#d7ba75;fill-opacity:1;fill-rule:nonzero;stroke:none;stroke-width:10;marker:none;visibility:visible;display:inline;overflow:visible;enable-background:accumulate;font-family:Sans;-inkscape-font-specification:Sans"
       d="m 93.324,33.138246 c -2.617922,2.62e-4 -4.999738,2.382078 -5,5 l 0,212.874934 c 2.62e-4,2.61792 2.382078,4.99974 5,5 l 365.275,0 c 2.61792,-2.6e-4 4.99974,-2.38208 5,-5 l 0,-212.874934 c -2.6e-4,-2.617922 -2.38208,-4.999738 -5,-5 z"
       id="rect6760"
       inkscape:connector-curvature="0"
       sodipodi:nodetypes="ccccccccc" />
    <path
       style="font-size:medium;font-style:normal;font-variant:normal;font-weight:normal;font-stretch:normal;text-indent:0;text-align:start;text-decoration:none;line-height:normal;letter-spacing:normal;word-spacing:normal;text-transform:none;direction:ltr;block-progression:tb;writing-mode:lr-tb;text-anchor:start;baseline-shift:baseline;color:#000000;fill:#5b4415;fill-opacity:1;fill-rule:nonzero;stroke:none;stroke-width:10;marker:none;visibility:visible;display:inline;overflow:visible;enable-background:accumulate;font-family:Sans;-inkscape-font-specification:Sans"
       d="m 97.031242,36.691964 c -2.61792,2.62e-4 -4.99974,2.382078 -5,5 l 0,37.374999 c 2.6e-4,2.61792 2.38208,4.99974 5,5 l 105.062498,0 c 2.61792,-2.6e-4 4.99974,-2.38208 5,-5 l 0,-37.374999 c -2.6e-4,-2.617922 -2.38208,-4.999738 -5,-5 z"
       id="rect6016"
       inkscape:connector-curvature="0"
       sodipodi:nodetypes="ccccccccc" />
    <path
       style="font-size:medium;font-style:normal;font-variant:normal;font-weight:normal;font-stretch:normal;text-indent:0;text-align:start;text-decoration:none;line-height:normal;letter-spacing:normal;word-spacing:normal;text-transform:none;direction:ltr;block-progression:tb;writing-mode:lr-tb;text-anchor:start;baseline-shift:baseline;color:#000000;fill:#a07926;fill-opacity:1;fill-rule:nonzero;stroke:none;stroke-width:10;marker:none;visibility:visible;display:inline;overflow:visible;enable-background:accumulate;font-family:Sans;-inkscape-font-specification:Sans"
       d="m 223.46429,36.691964 c -2.61792,2.62e-4 -4.99974,2.382078 -5,5 l 0,37.374999 c 2.6e-4,2.61792 2.38208,4.99974 5,5 l 105.0625,0 c 2.61792,-2.6e-4 4.99974,-2.38208 5,-5 l 0,-37.374999 c -2.6e-4,-2.617922 -2.38208,-4.999738 -5,-5 z"
       id="rect6016-9"
       inkscape:connector-curvature="0"
       sodipodi:nodetypes="ccccccccc" />
    <path
       style="font-size:medium;font-style:normal;font-variant:normal;font-weight:normal;font-stretch:normal;text-indent:0;text-align:start;text-decoration:none;line-height:normal;letter-spacing:normal;word-spacing:normal;text-transform:none;direction:ltr;block-progression:tb;writing-mode:lr-tb;text-anchor:start;baseline-shift:baseline;color:#000000;fill:#a07926;fill-opacity:1;fill-rule:nonzero;stroke:none;stroke-width:10;marker:none;visibility:visible;display:inline;overflow:visible;enable-background:accumulate;font-family:Sans;-inkscape-font-specification:Sans"
       d="m 349.89734,36.691963 c -2.61792,2.6e-4 -4.99974,2.38208 -5,5 l 0,37.375 c 2.6e-4,2.61792 2.38208,4.99974 5,5 l 105.0625,0 c 2.61792,-2.6e-4 4.99974,-2.38208 5,-5 l 0,-37.375 c -2.6e-4,-2.61792 -2.38208,-4.99974 -5,-5 z"
       id="rect6016-78"
       inkscape:connector-curvature="0"
       sodipodi:nodetypes="ccccccccc" />
    <path
       style="font-size:medium;font-style:normal;font-variant:normal;font-weight:normal;font-stretch:normal;text-indent:0;text-align:start;text-decoration:none;line-height:normal;letter-spacing:normal;word-spacing:normal;text-transform:none;direction:ltr;block-progression:tb;writing-mode:lr-tb;text-anchor:start;baseline-shift:baseline;color:#000000;fill:#a07926;fill-opacity:1;fill-rule:nonzero;stroke:none;stroke-width:10;marker:none;visibility:visible;display:inline;overflow:visible;enable-background:accumulate;font-family:Sans;-inkscape-font-specification:Sans"
       d="m 159.91667,92.81754 c -2.61792,2.62e-4 -4.99974,2.382078 -5,5 l 0,37.375 c 2.6e-4,2.61792 2.38208,4.99974 5,5 l 105.0625,0 c 2.61792,-2.6e-4 4.99974,-2.38208 5,-5 l 0,-37.375 c -2.6e-4,-2.617922 -2.38208,-4.999738 -5,-5 z"
       id="rect6016-8"
       inkscape:connector-curvature="0"
       sodipodi:nodetypes="ccccccccc" />
    <path
       style="font-size:medium;font-style:normal;font-variant:normal;font-weight:normal;font-stretch:normal;text-indent:0;text-align:start;text-decoration:none;line-height:normal;letter-spacing:normal;word-spacing:normal;text-transform:none;direction:ltr;block-progression:tb;writing-mode:lr-tb;text-anchor:start;baseline-shift:baseline;color:#000000;fill:#5b4415;fill-opacity:1;fill-rule:nonzero;stroke:none;stroke-width:10;marker:none;visibility:visible;display:inline;overflow:visible;enable-background:accumulate;font-family:Sans;-inkscape-font-specification:Sans"
       d="m 287.0119,92.817539 c -2.61792,2.62e-4 -4.99974,2.382078 -5,5 l 0,37.375001 c 2.6e-4,2.61792 2.38208,4.99974 5,5 l 105.0625,0 c 2.61792,-2.6e-4 4.99974,-2.38208 5,-5 l 0,-37.375001 c -2.6e-4,-2.617922 -2.38208,-4.999738 -5,-5 z"
       id="rect6016-5"
       inkscape:connector-curvature="0"
       sodipodi:nodetypes="ccccccccc" />
    <path
       style="font-size:medium;font-style:normal;font-variant:normal;font-weight:normal;font-stretch:normal;text-indent:0;text-align:start;text-decoration:none;line-height:normal;letter-spacing:normal;word-spacing:normal;text-transform:none;direction:ltr;block-progression:tb;writing-mode:lr-tb;text-anchor:start;baseline-shift:baseline;color:#000000;fill:#83631f;fill-opacity:1;fill-rule:nonzero;stroke:none;stroke-width:10;marker:none;visibility:visible;display:inline;overflow:visible;enable-background:accumulate;font-family:Sans;-inkscape-font-specification:Sans"
       d="m 96.821436,92.817541 c -2.61792,2.62e-4 -4.99974,2.382078 -5,5 l 0,37.374999 c 2.6e-4,2.61792 2.38208,4.99974 5,5 l 41.062504,0 c 2.61792,-2.6e-4 4.99974,-2.38208 5,-5 l 0,-37.374999 c -2.6e-4,-2.617922 -2.38208,-4.999738 -5,-5 z"
       id="rect6016-58"
       inkscape:connector-curvature="0"
       sodipodi:nodetypes="ccccccccc" />
    <path
       style="font-size:medium;font-style:normal;font-variant:normal;font-weight:normal;font-stretch:normal;text-indent:0;text-align:start;text-decoration:none;line-height:normal;letter-spacing:normal;word-spacing:normal;text-transform:none;direction:ltr;block-progression:tb;writing-mode:lr-tb;text-anchor:start;baseline-shift:baseline;color:#000000;fill:#a07926;fill-opacity:1;fill-rule:nonzero;stroke:none;stroke-width:10;marker:none;visibility:visible;display:inline;overflow:visible;enable-background:accumulate;font-family:Sans;-inkscape-font-specification:Sans"
       d="m 414.10715,92.817541 c -2.61792,2.6e-4 -4.99974,2.38208 -5,5 l 0,37.374999 c 2.6e-4,2.61792 2.38208,4.99974 5,5 l 41.0625,0 c 2.61792,-2.6e-4 4.99974,-2.38208 5,-5 l 0,-37.374999 c -2.6e-4,-2.61792 -2.38208,-4.99974 -5,-5 z"
       id="rect6016-58-7"
       inkscape:connector-curvature="0"
       sodipodi:nodetypes="ccccccccc" />
    <path
       style="font-size:medium;font-style:normal;font-variant:normal;font-weight:normal;font-stretch:normal;text-indent:0;text-align:start;text-decoration:none;line-height:normal;letter-spacing:normal;word-spacing:normal;text-transform:none;direction:ltr;block-progression:tb;writing-mode:lr-tb;text-anchor:start;baseline-shift:baseline;color:#000000;fill:#a07926;fill-opacity:1;fill-rule:nonzero;stroke:none;stroke-width:10;marker:none;visibility:visible;display:inline;overflow:visible;enable-background:accumulate;font-family:Sans;-inkscape-font-specification:Sans"
       d="m 97.031244,149.18332 c -2.617919,2.7e-4 -4.99974,2.38208 -5,5 l 0,37.375 c 2.6e-4,2.61792 2.382081,4.99974 5,5 l 105.062496,0 c 2.61792,-2.6e-4 4.99974,-2.38208 5,-5 l 0,-37.375 c -2.6e-4,-2.61792 -2.38208,-4.99973 -5,-5 z"
       id="rect6016-7"
       inkscape:connector-curvature="0"
       sodipodi:nodetypes="ccccccccc" />
    <path
       style="font-size:medium;font-style:normal;font-variant:normal;font-weight:normal;font-stretch:normal;text-indent:0;text-align:start;text-decoration:none;line-height:normal;letter-spacing:normal;word-spacing:normal;text-transform:none;direction:ltr;block-progression:tb;writing-mode:lr-tb;text-anchor:start;baseline-shift:baseline;color:#000000;fill:#a07926;fill-opacity:1;fill-rule:nonzero;stroke:none;stroke-width:10;marker:none;visibility:visible;display:inline;overflow:visible;enable-background:accumulate;font-family:Sans;-inkscape-font-specification:Sans"
       d="m 223.46429,149.18332 c -2.61792,2.7e-4 -4.99974,2.38208 -5,5 l 0,37.375 c 2.6e-4,2.61792 2.38208,4.99974 5,5 l 105.0625,0 c 2.61792,-2.6e-4 4.99974,-2.38208 5,-5 l 0,-37.375 c -2.6e-4,-2.61792 -2.38208,-4.99973 -5,-5 z"
       id="rect6016-9-3"
       inkscape:connector-curvature="0"
       sodipodi:nodetypes="ccccccccc" />
    <path
       style="font-size:medium;font-style:normal;font-variant:normal;font-weight:normal;font-stretch:normal;text-indent:0;text-align:start;text-decoration:none;line-height:normal;letter-spacing:normal;word-spacing:normal;text-transform:none;direction:ltr;block-progression:tb;writing-mode:lr-tb;text-anchor:start;baseline-shift:baseline;color:#000000;fill:#83631f;fill-opacity:1;fill-rule:nonzero;stroke:none;stroke-width:10;marker:none;visibility:visible;display:inline;overflow:visible;enable-background:accumulate;font-family:Sans;-inkscape-font-specification:Sans"
       d="m 349.89734,149.18332 c -2.61792,2.6e-4 -4.99974,2.38208 -5,5 l 0,37.375 c 2.6e-4,2.61792 2.38208,4.99974 5,5 l 105.0625,0 c 2.61792,-2.6e-4 4.99974,-2.38208 5,-5 l 0,-37.375 c -2.6e-4,-2.61792 -2.38208,-4.99974 -5,-5 z"
       id="rect6016-78-1"
       inkscape:connector-curvature="0"
       sodipodi:nodetypes="ccccccccc" />
    <path
       style="font-size:medium;font-style:normal;font-variant:normal;font-weight:normal;font-stretch:normal;text-indent:0;text-align:start;text-decoration:none;line-height:normal;letter-spacing:normal;word-spacing:normal;text-transform:none;direction:ltr;block-progression:tb;writing-mode:lr-tb;text-anchor:start;baseline-shift:baseline;color:#000000;fill:#5b4415;fill-opacity:1;fill-rule:nonzero;stroke:none;stroke-width:10;marker:none;visibility:visible;display:inline;overflow:visible;enable-background:accumulate;font-family:Sans;-inkscape-font-specification:Sans"
       d="m 159.91667,205.3089 c -2.61792,2.6e-4 -4.99974,2.38208 -5,5 l 0,37.375 c 2.6e-4,2.61792 2.38208,4.99974 5,5 l 105.0625,0 c 2.61792,-2.6e-4 4.99974,-2.38208 5,-5 l 0,-37.375 c -2.6e-4,-2.61792 -2.38208,-4.99974 -5,-5 z"
       id="rect6016-8-0"
       inkscape:connector-curvature="0"
       sodipodi:nodetypes="ccccccccc" />
    <path
       style="font-size:medium;font-style:normal;font-variant:normal;font-weight:normal;font-stretch:normal;text-indent:0;text-align:start;text-decoration:none;line-height:normal;letter-spacing:normal;word-spacing:normal;text-transform:none;direction:ltr;block-progression:tb;writing-mode:lr-tb;text-anchor:start;baseline-shift:baseline;color:#000000;fill:#a07926;fill-opacity:1;fill-rule:nonzero;stroke:none;stroke-width:10;marker:none;visibility:visible;display:inline;overflow:visible;enable-background:accumulate;font-family:Sans;-inkscape-font-specification:Sans"
       d="m 287.0119,205.3089 c -2.61792,2.6e-4 -4.99974,2.38208 -5,5 l 0,37.375 c 2.6e-4,2.61792 2.38208,4.99974 5,5 l 105.0625,0 c 2.61792,-2.6e-4 4.99974,-2.38208 5,-5 l 0,-37.375 c -2.6e-4,-2.61792 -2.38208,-4.99974 -5,-5 z"
       id="rect6016-5-9"
       inkscape:connector-curvature="0"
       sodipodi:nodetypes="ccccccccc" />
    <path
       style="font-size:medium;font-style:normal;font-variant:normal;font-weight:normal;font-stretch:normal;text-indent:0;text-align:start;text-decoration:none;line-height:normal;letter-spacing:normal;word-spacing:normal;text-transform:none;direction:ltr;block-progression:tb;writing-mode:lr-tb;text-anchor:start;baseline-shift:baseline;color:#000000;fill:#a07926;fill-opacity:1;fill-rule:nonzero;stroke:none;stroke-width:10;marker:none;visibility:visible;display:inline;overflow:visible;enable-background:accumulate;font-family:Sans;-inkscape-font-specification:Sans"
       d="m 96.821438,205.3089 c -2.617919,2.6e-4 -4.99974,2.38208 -5,5 l 0,37.375 c 2.6e-4,2.61792 2.382081,4.99974 5,5 l 41.062502,0 c 2.61792,-2.6e-4 4.99974,-2.38208 5,-5 l 0,-37.375 c -2.6e-4,-2.61792 -2.38208,-4.99974 -5,-5 z"
       id="rect6016-58-1"
       inkscape:connector-curvature="0"
       sodipodi:nodetypes="ccccccccc" />
    <path
       style="font-size:medium;font-style:normal;font-variant:normal;font-weight:normal;font-stretch:normal;text-indent:0;text-align:start;text-decoration:none;line-height:normal;letter-spacing:normal;word-spacing:normal;text-transform:none;direction:ltr;block-progression:tb;writing-mode:lr-tb;text-anchor:start;baseline-shift:baseline;color:#000000;fill:#83631f;fill-opacity:1;fill-rule:nonzero;stroke:none;stroke-width:10;marker:none;visibility:visible;display:inline;overflow:visible;enable-background:accumulate;font-family:Sans;-inkscape-font-specification:Sans"
       d="m 414.10715,205.3089 c -2.61792,2.6e-4 -4.99974,2.38208 -5,5 l 0,37.375 c 2.6e-4,2.61792 2.38208,4.99974 5,5 l 41.0625,0 c 2.61792,-2.6e-4 4.99974,-2.38208 5,-5 l 0,-37.375 c -2.6e-4,-2.61792 -2.38208,-4.99974 -5,-5 z"
       id="rect6016-58-7-4"
       inkscape:connector-curvature="0"
       sodipodi:nodetypes="ccccccccc" />
  </g>
</svg>
