<?xml version="1.0" encoding="UTF-8" standalone="no"?>
<!-- Created with Inkscape (http://www.inkscape.org/) -->

<svg
   xmlns:dc="http://purl.org/dc/elements/1.1/"
   xmlns:cc="http://creativecommons.org/ns#"
   xmlns:rdf="http://www.w3.org/1999/02/22-rdf-syntax-ns#"
   xmlns:svg="http://www.w3.org/2000/svg"
   xmlns="http://www.w3.org/2000/svg"
   xmlns:sodipodi="http://sodipodi.sourceforge.net/DTD/sodipodi-0.dtd"
   xmlns:inkscape="http://www.inkscape.org/namespaces/inkscape"
   width="406.46341"
   height="382.01642"
   id="svg4742"
   version="1.1"
   inkscape:version="0.48.3.1 r9886"
   sodipodi:docname="zombie.svg"
   inkscape:export-filename="/media/Data/Atelier/QT/Projets/Zombu/graphics/zombie5.png"
   inkscape:export-xdpi="17.709999"
   inkscape:export-ydpi="17.709999">
  <defs
     id="defs4744" />
  <sodipodi:namedview
     id="base"
     pagecolor="#ffffff"
     bordercolor="#666666"
     borderopacity="1.0"
     inkscape:pageopacity="0.0"
     inkscape:pageshadow="2"
     inkscape:zoom="1.4"
     inkscape:cx="17.086386"
     inkscape:cy="217.28819"
     inkscape:document-units="px"
     inkscape:current-layer="svg4742"
     showgrid="false"
     inkscape:window-width="1600"
     inkscape:window-height="876"
     inkscape:window-x="0"
     inkscape:window-y="148"
     inkscape:window-maximized="1"
     fit-margin-top="0"
     fit-margin-left="20"
     fit-margin-right="20"
     fit-margin-bottom="0" />
  <metadata
     id="metadata4747">
    <rdf:RDF>
      <cc:Work
         rdf:about="">
        <dc:format>image/svg+xml</dc:format>
        <dc:type
           rdf:resource="http://purl.org/dc/dcmitype/StillImage" />
        <dc:title />
      </cc:Work>
    </rdf:RDF>
  </metadata>
  <g
     inkscape:label="Calque 1"
     inkscape:groupmode="layer"
     id="layer1"
     transform="translate(-153.41151,-262.81948)"
     style="display:inline">
    <g
       id="g6059"
       transform="translate(0,12)">
      <path
         inkscape:connector-curvature="0"
         id="path5981"
         d="m 202.72604,343.47873 c 0.1049,28.40532 -5.58581,58.7459 5.78845,85.92079 10.97611,23.48827 34.82093,36.93294 56.28926,49.15167 6.75832,1.00606 7.7451,-7.87537 11.58462,-11.4283 3.74067,-5.46956 7.46512,-10.8958 11.13637,-16.40818 -17.08152,-12.15851 -38.62436,-21.93485 -47.29273,-42.27425 -6.37027,-18.96074 -1.40978,-39.30841 1.74109,-58.3912 2.0941,-4.26831 -0.88664,-10.08247 -5.98404,-9.31355 -10.98457,1.11575 -22.12744,0.4705 -33.18492,0.82203 l -0.0406,0.99918 -0.0375,0.92181 z"
         style="fill:#059134;fill-opacity:1;stroke:none" />
      <path
         sodipodi:nodetypes="aaccccccca"
         inkscape:connector-curvature="0"
         id="path6021"
         d="m 186.42858,353.67662 c 12.08134,18.45705 42.60146,19.76577 64.28571,15.71429 24.54239,-4.5855 61.42856,-42.85715 61.42856,-42.85715 l -43.97207,10.42516 23.848,-68.41654 -41.3045,43.70566 -4.99999,-53.57142 -28.57143,45.71428 -12.85715,-53.57142 c 0,0 -36.91529,73.74138 -17.85713,102.85714 z"
         style="fill:#007a28;fill-opacity:1;stroke:none" />
    </g>
    <g
       id="g6063"
       transform="translate(-20,12)">
      <path
         inkscape:connector-curvature="0"
         id="path5981-8"
         d="m 531.73342,343.47874 c -0.1049,28.40532 5.58581,58.7459 -5.78845,85.92079 -10.97611,23.48826 -34.82093,36.93293 -56.28926,49.15166 -6.75832,1.00606 -7.7451,-7.87537 -11.58462,-11.4283 -3.74067,-5.46956 -7.46512,-10.8958 -11.13637,-16.40818 17.08152,-12.1585 38.62436,-21.93484 47.29273,-42.27424 6.37027,-18.96074 1.40978,-39.30841 -1.74109,-58.3912 -2.0941,-4.26831 0.88664,-10.08247 5.98404,-9.31355 10.98457,1.11575 22.12744,0.4705 33.18492,0.82203 l 0.0406,0.99918 0.0375,0.92181 z"
         style="fill:#059134;fill-opacity:1;stroke:none" />
      <path
         sodipodi:nodetypes="aaccccccca"
         inkscape:connector-curvature="0"
         id="path6021-8"
         d="m 544.41076,353.67662 c -12.08134,18.45705 -42.60146,19.76577 -64.28571,15.71429 -24.54239,-4.5855 -61.42856,-42.85715 -61.42856,-42.85715 l 43.97207,10.42516 -23.848,-68.41654 41.3045,43.70566 4.99999,-53.57142 28.57143,45.71428 12.85715,-53.57142 c 0,0 36.91529,73.74138 17.85713,102.85714 z"
         style="fill:#007a28;fill-opacity:1;stroke:none" />
    </g>
    <path
       transform="translate(50.869554,149.78375)"
       sodipodi:type="arc"
       style="fill:#007a28;fill-opacity:1"
       id="path2985"
       sodipodi:cx="305.71429"
       sodipodi:cy="340.93362"
       sodipodi:rx="134.28572"
       sodipodi:ry="114.28571"
       d="m 440.00002,340.93362 a 134.28572,114.28571 0 1 1 -268.57145,0 134.28572,114.28571 0 1 1 268.57145,0 z" />
    <g
       id="g3788"
       transform="translate(51.042934,163.78375)">
      <g
         transform="matrix(0.82734374,0.56169595,-0.56169595,0.82734374,205.1136,-101.27342)"
         id="g3780">
        <path
           sodipodi:type="arc"
           style="fill:#ffffff;fill-opacity:1"
           id="path2987"
           sodipodi:cx="157.14285"
           sodipodi:cy="147.36218"
           sodipodi:rx="52.857143"
           sodipodi:ry="73.571426"
           d="m 210,147.36218 a 52.857143,73.571426 0 1 1 -105.71429,0 52.857143,73.571426 0 1 1 105.71429,0 z"
           transform="matrix(0.53398057,0,0,0.53398057,178.59917,203.24507)" />
        <path
           sodipodi:type="arc"
           style="fill:#530105;fill-opacity:1"
           id="path2989"
           sodipodi:cx="170"
           sodipodi:cy="136.6479"
           sodipodi:rx="27.142857"
           sodipodi:ry="32.857143"
           d="m 197.14286,136.6479 a 27.142857,32.857143 0 1 1 -54.28572,0 27.142857,32.857143 0 1 1 54.28572,0 z"
           transform="matrix(0.53398057,0,0,0.53398057,175.54785,194.09111)" />
      </g>
      <g
         transform="matrix(0.85007889,-0.52665538,0.52665538,0.85007889,-95.961692,219.59454)"
         id="g3784">
        <path
           sodipodi:type="arc"
           style="fill:#ffffff;fill-opacity:1"
           id="path2987-0"
           sodipodi:cx="157.14285"
           sodipodi:cy="147.36218"
           sodipodi:rx="52.857143"
           sodipodi:ry="73.571426"
           d="m 210,147.36218 a 52.857143,73.571426 0 1 1 -105.71429,0 52.857143,73.571426 0 1 1 105.71429,0 z"
           transform="matrix(0.53398057,0,0,0.53398057,264.6602,206.8165)" />
        <path
           sodipodi:type="arc"
           style="fill:#530105;fill-opacity:1"
           id="path2989-8"
           sodipodi:cx="170"
           sodipodi:cy="136.6479"
           sodipodi:rx="27.142857"
           sodipodi:ry="32.857143"
           d="m 197.14286,136.6479 a 27.142857,32.857143 0 1 1 -54.28572,0 27.142857,32.857143 0 1 1 54.28572,0 z"
           transform="matrix(0.53398057,0,0,0.53398057,253.60888,197.66254)" />
      </g>
    </g>
    <path
       style="font-size:medium;font-style:normal;font-variant:normal;font-weight:normal;font-stretch:normal;text-indent:0;text-align:start;text-decoration:none;line-height:normal;letter-spacing:normal;word-spacing:normal;text-transform:none;direction:ltr;block-progression:tb;writing-mode:lr-tb;text-anchor:start;baseline-shift:baseline;color:#000000;fill:#920000;fill-opacity:1;stroke:none;stroke-width:13;marker:none;visibility:visible;display:inline;overflow:visible;enable-background:accumulate;font-family:Sans;-inkscape-font-specification:Sans"
       d="m 455.59375,406.03125 c -0.19873,0.0117 -0.39693,0.0326 -0.59375,0.0625 -2.29388,0.29477 -4.37019,1.91105 -5.21875,4.0625 L 431.8125,454.6875 c -0.74879,1.84064 -0.59156,4.02563 0.41305,5.74009 1.00462,1.71447 2.83393,2.91968 4.8057,3.16616 L 434.25,468.9375 c -0.91313,0.23882 -1.7729,0.67945 -2.5,1.28125 l -4.34375,-5.78125 0.125,-2.25 c 0.12176,-1.85455 -0.5981,-3.74814 -1.92112,-5.05344 -1.32302,-1.30529 -3.22614,-1.99957 -5.07888,-1.85281 l -5.1875,-6.90625 c -1.34276,-1.84113 -3.70732,-2.88252 -5.97207,-2.63018 -2.26475,0.25234 -4.3421,1.78865 -5.24668,3.88018 -0.92256,2.12037 -0.59932,4.73115 0.8125,6.5625 l 9.25,12.3125 -0.25,4.5 c -1.35226,-0.43771 -2.84891,-0.41537 -4.1875,0.0625 l -0.0937,-0.34375 c -0.63378,-2.18802 -2.50001,-3.97327 -4.71398,-4.50941 -2.21397,-0.53615 -4.69019,0.1975 -6.25477,1.85316 -1.58547,1.6781 -2.16948,4.23779 -1.46875,6.4375 l 1.25,4.0625 -6.09375,4.25 -19.5,-2.71875 9.15625,-18.90625 c 1.00612,-2.03041 0.84504,-4.59136 -0.40756,-6.4797 -1.2526,-1.88835 -3.54933,-3.03264 -5.81119,-2.8953 -2.30799,0.14685 -4.48373,1.62635 -5.46875,3.71875 l -0.53125,1.09375 c -0.41799,-0.80789 -1.00779,-1.52636 -1.71875,-2.09375 -1.81945,-1.43212 -4.43139,-1.78037 -6.5625,-0.875 l -9.0313,3.71875 -1.59375,-4.6875 c -0.71032,-2.14846 -2.62026,-3.85546 -4.83469,-4.32099 -2.21442,-0.46553 -4.65002,0.32792 -6.16531,2.00849 -1.54407,1.72779 -2.05415,4.3155 -1.28125,6.5 l 1.84375,5.4375 -19.9375,8.21875 c -0.11925,-0.84716 -0.40783,-1.67013 -0.84375,-2.40625 -1.1805,-1.99578 -3.49503,-3.26503 -5.8125,-3.1875 l -20.28125,0.46875 -2.375,-7.65625 c -0.93689,-3.13947 -4.52964,-5.21948 -7.71875,-4.46875 -0.0473,-0.7861 -0.23889,-1.56329 -0.5625,-2.28125 -0.0406,-0.0632 -0.0822,-0.12573 -0.125,-0.1875 0.44837,-1.64222 0.21842,-3.4588 -0.625,-4.9375 l 0.5,-22.59375 c 0.0828,-2.27198 -1.12563,-4.54739 -3.05424,-5.7512 -1.92862,-1.20381 -4.50356,-1.28988 -6.50826,-0.21755 -2.0418,1.09058 -3.40982,3.34161 -3.4375,5.65625 l -0.34375,15 L 237.09375,423 c -0.95461,-0.51575 -2.03999,-0.78709 -3.125,-0.78125 -3.45627,0.0155 -6.56813,3.23262 -6.46875,6.6875 0.0678,2.31235 1.47284,4.53804 3.53125,5.59375 l 11.875,6.25 c -0.52518,1.29975 -0.61436,2.77134 -0.25,4.125 l 0.40625,1.53125 -12.59375,-1.03125 c 1.85852,-2.60352 1.38514,-6.59144 -1.03125,-8.6875 -1.31707,-1.14186 -3.1077,-1.71948 -4.84375,-1.5625 -0.57727,0.0593 -1.1465,0.19632 -1.6875,0.40625 l -1.25,0.46875 -11.1875,-24.09375 c -1.07242,-2.37176 -3.68225,-3.95584 -6.28125,-3.8125 -1.92458,0.10854 -3.7786,1.12411 -4.90625,2.6875 -1.353,1.87896 -1.58931,4.50331 -0.59375,6.59375 l 10.6875,23.0625 -14,5.0625 c -0.21187,0.0622 -0.42056,0.13528 -0.625,0.21875 l -17,6.125 c -3.25098,1.12127 -5.16451,5.13209 -3.99062,8.36444 1.1739,3.23235 5.21526,5.08052 8.42812,3.85431 l 13.8125,-5 21.90625,18 c -1.59867,1.21983 -2.57515,3.21576 -2.55704,5.22658 0.0181,2.01083 1.0304,3.98884 2.65079,5.17967 l -0.75,-0.25 -1.3125,-1.25 c -1.2262,-1.21564 -2.95277,-1.91058 -4.67921,-1.88336 -1.72644,0.0272 -3.43025,0.77623 -4.61752,2.02992 -1.18727,1.25369 -1.84252,2.99571 -1.77581,4.72107 0.0667,1.72537 0.85451,3.4116 2.13504,4.56987 l 0.15625,0.15625 c 0.68662,1.42562 1.9125,2.5834 3.375,3.1875 l 0.6875,0.65625 c 0.33352,1.14679 0.99032,2.19768 1.875,3 -2.37771,-0.28065 -4.86866,0.87677 -6.1875,2.875 L 198.875,496.1875 c -1.40592,-1.6027 -3.63692,-2.43932 -5.75,-2.15625 -1.26684,-1.46839 -3.21817,-2.31988 -5.15625,-2.25 -2.47392,0.094 -4.82305,1.73308 -5.76501,4.02257 -0.94197,2.2895 -0.4265,5.1072 1.26501,6.91493 l 2.59375,2.875 c -0.45243,2.08401 0.20237,4.37583 1.6875,5.90625 l 23.875,25.90625 -9.78125,-0.375 c -3.51902,-0.34243 -6.99828,2.70195 -7.12599,6.23528 -0.12772,3.53333 3.12268,6.82095 6.65724,6.73347 l 9.625,0.375 c 0.16571,0.94117 0.54215,1.84462 1.09375,2.625 L 206.25,571.25 c -0.57697,1.63445 -0.46376,3.50037 0.30658,5.05307 0.77035,1.5527 2.18764,2.77162 3.83813,3.30095 3.30099,1.05865 7.26783,-1.05497 8.23029,-4.38527 l 2.0625,-6.46875 c 3.02257,0.0388 5.90197,-2.31204 6.46875,-5.28125 l 0.0312,-0.15625 c 0.67233,-0.36908 1.2785,-0.85828 1.78125,-1.4375 l 4.75,-5.46875 c 0.32101,2.12307 1.76686,4.04276 3.71875,4.9375 -1.77247,1.8485 -2.28897,4.79348 -1.25133,7.13482 1.03764,2.34134 3.56636,3.93674 6.12633,3.86518 l 0.15625,0 c -0.45168,0.62121 -0.79201,1.32314 -1,2.0625 l -13.3125,5.53125 c -3.18855,1.27595 -4.90637,5.36541 -3.58545,8.53561 1.32091,3.17019 5.43425,4.83 8.58545,3.46439 l 16.375,-6.8125 10.5,20.6875 c 1.54602,3.03564 5.71488,4.39078 8.75034,2.84442 3.03546,-1.54637 4.39013,-5.71539 2.84341,-8.75067 l -3.40625,-6.6875 20.0625,9.625 c 1.17811,0.59162 2.53889,0.81288 3.84375,0.625 0.5106,0.54587 1.11615,1.00269 1.78125,1.34375 l 3.9375,2.15625 -6.03125,5.875 c -1.55988,1.41888 -2.35765,3.63085 -2.0625,5.71875 -1.20874,2.26636 -0.90097,5.25197 0.74468,7.22408 1.64566,1.97212 4.52793,2.8094 6.97407,2.02592 l 25.3125,-7.28125 13.28125,7.25 c 1.97774,1.09826 4.53817,1.05964 6.48187,-0.0978 1.94371,-1.15742 3.19764,-3.39012 3.17438,-5.65222 -0.0277,-2.31464 -1.3957,-4.56567 -3.4375,-5.65625 l -1.71875,-0.9375 3.03125,-0.875 c 2.87297,-0.79445 4.97216,-3.7775 4.75,-6.75 l 23.8125,30.3125 c 1.42772,1.92551 3.98265,2.94496 6.34375,2.53125 1.16626,3.09176 4.94934,4.91325 8.09358,3.89693 3.14424,-1.01632 5.14545,-4.70748 4.28142,-7.89693 l -8,-26.71875 c 2.0072,-1.33633 3.15493,-3.8588 2.84375,-6.25 -0.0496,-0.31733 -0.12281,-0.63098 -0.21875,-0.9375 0.58541,0.0376 1.17587,-0.005 1.75,-0.125 l 5.125,-1 c 0.5446,1.36257 1.56553,2.52934 2.84375,3.25 l 2.46875,19.09375 c 0.37239,2.87833 2.89118,5.33537 5.77787,5.63622 2.88669,0.30084 5.85799,-1.58403 6.81588,-4.32372 0.77291,2.27427 2.90179,4.0275 5.28205,4.35003 2.38026,0.32253 4.89894,-0.80096 6.2492,-2.78753 l 0.0625,-0.0937 c 1.78506,-0.17696 3.47945,-1.13081 4.55667,-2.56516 1.07722,-1.43434 1.52096,-3.32745 1.19333,-5.09109 l 1,-1.34375 c 2.31742,0.68789 4.99718,-0.0516 6.63387,-1.83059 1.63669,-1.77901 2.15067,-4.511 1.27238,-6.76316 l -0.3125,-0.8125 9.8125,0.65625 c 2.2623,0.17752 4.58211,-0.92971 5.86691,-2.80022 1.2848,-1.87051 1.4857,-4.43315 0.50809,-6.48103 -0.99855,-2.08958 -3.18775,-3.55734 -5.5,-3.6875 l -1.8125,-0.125 5.59375,-7.4375 c 1.38235,-1.79657 1.72217,-4.34113 0.8597,-6.43749 -0.86246,-2.09637 -2.89454,-3.6651 -5.14095,-3.96876 -0.21751,-0.0319 -0.43663,-0.0528 -0.65625,-0.0625 -0.34468,-0.007 -0.68988,0.0144 -1.03125,0.0625 l 0.0625,-0.71875 2.625,-2.15625 c 1.52258,1.12461 3.55103,1.53453 5.39084,1.08942 1.8398,-0.44511 3.45654,-1.73694 4.29666,-3.43317 l 0.375,0.0937 3.1875,24.75 c 0.44216,3.37854 3.91818,6.05036 7.29677,5.6086 3.3786,-0.44175 6.05083,-3.91746 5.60948,-7.2961 l -5.03125,-38.71875 c 1.07821,-1.82134 1.18711,-4.18084 0.28125,-6.09375 l 12.4375,10.34375 9.59375,21.375 c 1.40142,2.994 5.32022,4.51496 8.37451,3.25029 3.05429,-1.26466 4.75081,-5.11071 3.62549,-8.21904 2.79095,0.23698 5.63311,-1.5513 6.62734,-4.1699 0.99423,-2.6186 0.0551,-5.84256 -2.18984,-7.5176 l -4.75,-3.9375 c 1.83506,-1.23057 2.96241,-3.44851 2.875,-5.65625 -0.0318,-0.56251 -0.13715,-1.12082 -0.3125,-1.65625 1.37206,-2.43631 0.93016,-5.75726 -1.03125,-7.75 l -7.03125,-7.46875 c 0.007,-0.46104 -0.0347,-0.92283 -0.125,-1.375 2.48565,-1.13704 4.07629,-3.97368 3.75,-6.6875 -0.0919,-0.71583 -0.30411,-1.41606 -0.625,-2.0625 l 17.25,13.78125 c 1.75863,1.43706 4.29841,1.84968 6.42153,1.04327 2.12312,-0.8064 3.74855,-2.80106 4.10972,-5.04327 0.36286,-2.28711 -0.60733,-4.73745 -2.4375,-6.15625 L 501.84375,514.5 c 1.38775,-1.44619 2.04669,-3.55921 1.72696,-5.53786 -0.31972,-1.97866 -1.61061,-3.77662 -3.38321,-4.71214 l -8.03125,-4.71875 6.46875,-17.65625 23.34375,-4.21875 c 2.23754,-0.38187 4.21611,-2.0242 5.00346,-4.15317 0.78734,-2.12897 0.35346,-4.66348 -1.09721,-6.40933 -1.47209,-1.78359 -3.94621,-2.67875 -6.21875,-2.25 l -15.84375,2.875 0.34375,-0.90625 c 0.77927,-2.03143 0.44879,-4.45095 -0.84674,-6.19897 -1.29552,-1.74803 -3.51424,-2.76811 -5.68451,-2.61353 -0.19922,0.0221 -0.39742,0.0534 -0.59375,0.0937 -2.29103,0.36941 -4.3199,2.0622 -5.09375,4.25 l -2.21875,6.03125 c -0.15221,-0.10027 -0.30865,-0.19413 -0.46875,-0.28125 0.98202,-2.22379 0.57725,-4.99392 -1,-6.84375 -1.51768,-1.74894 -4.01774,-2.58229 -6.28125,-2.09375 l -2.53125,0.53125 c -0.004,-0.548 -0.0777,-1.09544 -0.21875,-1.625 l 21.75,-22.25 c 1.31563,-1.32854 2.01338,-3.2455 1.85957,-5.1089 -0.1538,-1.86339 -1.15641,-3.64 -2.67207,-4.73485 0.75041,-3.08562 -1.13534,-6.58568 -4.125,-7.65625 -2.1845,-0.7729 -4.77221,-0.26282 -6.5,1.28125 l -26.65625,23.125 3,-6.5625 c 0.95455,-2.05293 0.73138,-4.6064 -0.56483,-6.46262 -1.29621,-1.85622 -3.61658,-2.9452 -5.87267,-2.75613 -0.96659,0.0816 -1.91398,0.38304 -2.75,0.875 l 5.15625,-12.78125 c 0.83677,-2.00452 0.57948,-4.42799 -0.65951,-6.21214 -1.239,-1.78415 -3.41995,-2.87175 -5.59049,-2.78786 z M 489.0625,519.6875 495.46875,526 483.75,521.53125 c 1.92603,0.21903 3.93626,-0.47864 5.3125,-1.84375 z m -80.53125,86.75 1.09375,0.0625 3.53125,10.25 -1.71875,2.28125 c -0.43524,0.53409 -0.78479,1.13786 -1.03125,1.78125 z m -38.75,5.0625 1.21875,4.09375 -2.125,-2.6875 c 0.36089,-0.42717 0.66633,-0.90113 0.90625,-1.40625 z"
       id="path5318"
       inkscape:connector-curvature="0"
       sodipodi:nodetypes="ccccscccccsccsccccccsccccccscccccccscccccccccccccscccccccccccccccccccccccscccscccssscccccccccscccccsccccsscccccccsccccscccsccccccccscccscccccccsccccccccscsccsccscccsccccscccccscccscccccscsccccccccccscccsccccsccccsccccccccccscccccscccscccccccccccccccc" />
    <path
       style="fill:#ffffff;fill-opacity:1;stroke:none"
       d="m 304.12579,394.19304 21.42857,0 -10.71429,-23.28571 z"
       id="path6071"
       inkscape:connector-curvature="0"
       sodipodi:nodetypes="cccc" />
    <path
       style="fill:#ffffff;fill-opacity:1;stroke:none"
       d="m 324.84008,394.19304 21.42857,0 -10.71429,-23.28571 z"
       id="path6071-1"
       inkscape:connector-curvature="0"
       sodipodi:nodetypes="cccc" />
    <path
       style="fill:#ffffff;fill-opacity:1;stroke:none"
       d="m 345.55437,394.19304 21.42857,0 -10.71429,-23.28571 z"
       id="path6071-19"
       inkscape:connector-curvature="0"
       sodipodi:nodetypes="cccc" />
    <path
       style="fill:#ffffff;fill-opacity:1;stroke:none"
       d="m 366.26866,394.19304 21.42857,0 -10.71429,-23.28571 z"
       id="path6071-5"
       inkscape:connector-curvature="0"
       sodipodi:nodetypes="cccc" />
    <path
       style="fill:#ffffff;fill-opacity:1;stroke:none"
       d="m 386.98296,394.19304 21.42857,0 -10.71429,-23.28571 z"
       id="path6071-3"
       inkscape:connector-curvature="0"
       sodipodi:nodetypes="cccc" />
  </g>
  <g
     transform="translate(-153.41151,-262.81948)"
     id="layer2"
     inkscape:groupmode="layer"
     inkscape:label="Anim 1"
     style="display:inline">
    <g
       transform="matrix(0.99671928,-0.08093624,0.08093624,0.99671928,-28.710579,33.151683)"
       id="g6274">
      <path
         style="fill:#059134;fill-opacity:1;stroke:none"
         d="m 202.72604,343.47873 c 0.1049,28.40532 -5.58581,58.7459 5.78845,85.92079 10.97611,23.48827 34.82093,36.93294 56.28926,49.15167 6.75832,1.00606 7.7451,-7.87537 11.58462,-11.4283 3.74067,-5.46956 7.46512,-10.8958 11.13637,-16.40818 -17.08152,-12.15851 -38.62436,-21.93485 -47.29273,-42.27425 -6.37027,-18.96074 -1.40978,-39.30841 1.74109,-58.3912 2.0941,-4.26831 -0.88664,-10.08247 -5.98404,-9.31355 -10.98457,1.11575 -22.12744,0.4705 -33.18492,0.82203 l -0.0406,0.99918 -0.0375,0.92181 z"
         id="path6276"
         inkscape:connector-curvature="0" />
      <path
         style="fill:#007a28;fill-opacity:1;stroke:none"
         d="m 186.42858,353.67662 c 12.08134,18.45705 42.60146,19.76577 64.28571,15.71429 24.54239,-4.5855 61.42856,-42.85715 61.42856,-42.85715 l -43.97207,10.42516 23.848,-68.41654 -41.3045,43.70566 -4.99999,-53.57142 -28.57143,45.71428 -12.85715,-53.57142 c 0,0 -36.91529,73.74138 -17.85713,102.85714 z"
         id="path6278"
         inkscape:connector-curvature="0"
         sodipodi:nodetypes="aaccccccca" />
    </g>
    <g
       transform="matrix(0.99366695,0.1123654,-0.1123654,0.99366695,24.04945,-40.107138)"
       id="g6280">
      <path
         style="fill:#059134;fill-opacity:1;stroke:none"
         d="m 531.73342,343.47874 c -0.1049,28.40532 5.58581,58.7459 -5.78845,85.92079 -10.97611,23.48826 -34.82093,36.93293 -56.28926,49.15166 -6.75832,1.00606 -7.7451,-7.87537 -11.58462,-11.4283 -3.74067,-5.46956 -7.46512,-10.8958 -11.13637,-16.40818 17.08152,-12.1585 38.62436,-21.93484 47.29273,-42.27424 6.37027,-18.96074 1.40978,-39.30841 -1.74109,-58.3912 -2.0941,-4.26831 0.88664,-10.08247 5.98404,-9.31355 10.98457,1.11575 22.12744,0.4705 33.18492,0.82203 l 0.0406,0.99918 0.0375,0.92181 z"
         id="path6282"
         inkscape:connector-curvature="0" />
      <path
         style="fill:#007a28;fill-opacity:1;stroke:none"
         d="m 544.41076,353.67662 c -12.08134,18.45705 -42.60146,19.76577 -64.28571,15.71429 -24.54239,-4.5855 -61.42856,-42.85715 -61.42856,-42.85715 l 43.97207,10.42516 -23.848,-68.41654 41.3045,43.70566 4.99999,-53.57142 28.57143,45.71428 12.85715,-53.57142 c 0,0 36.91529,73.74138 17.85713,102.85714 z"
         id="path6284"
         inkscape:connector-curvature="0"
         sodipodi:nodetypes="aaccccccca" />
    </g>
    <path
       d="m 440.00002,340.93362 a 134.28572,114.28571 0 1 1 -268.57145,0 134.28572,114.28571 0 1 1 268.57145,0 z"
       sodipodi:ry="114.28571"
       sodipodi:rx="134.28572"
       sodipodi:cy="340.93362"
       sodipodi:cx="305.71429"
       id="path6286"
       style="fill:#007a28;fill-opacity:1"
       sodipodi:type="arc"
       transform="translate(50.869554,149.78375)" />
    <g
       transform="translate(51.042934,163.78375)"
       id="g6288">
      <g
         id="g6290"
         transform="matrix(0.82734374,0.56169595,-0.56169595,0.82734374,205.1136,-101.27342)">
        <path
           transform="matrix(0.53398057,0,0,0.53398057,178.59917,203.24507)"
           d="m 210,147.36218 a 52.857143,73.571426 0 1 1 -105.71429,0 52.857143,73.571426 0 1 1 105.71429,0 z"
           sodipodi:ry="73.571426"
           sodipodi:rx="52.857143"
           sodipodi:cy="147.36218"
           sodipodi:cx="157.14285"
           id="path6292"
           style="fill:#ffffff;fill-opacity:1"
           sodipodi:type="arc" />
        <path
           transform="matrix(0.53398057,0,0,0.53398057,175.01655,196.86919)"
           d="m 197.14286,136.6479 a 27.142857,32.857143 0 1 1 -54.28572,0 27.142857,32.857143 0 1 1 54.28572,0 z"
           sodipodi:ry="32.857143"
           sodipodi:rx="27.142857"
           sodipodi:cy="136.6479"
           sodipodi:cx="170"
           id="path6294"
           style="fill:#530105;fill-opacity:1"
           sodipodi:type="arc" />
      </g>
      <g
         id="g6296"
         transform="matrix(0.85007889,-0.52665538,0.52665538,0.85007889,-95.961692,219.59454)">
        <path
           transform="matrix(0.53398057,0,0,0.53398057,264.6602,206.8165)"
           d="m 210,147.36218 a 52.857143,73.571426 0 1 1 -105.71429,0 52.857143,73.571426 0 1 1 105.71429,0 z"
           sodipodi:ry="73.571426"
           sodipodi:rx="52.857143"
           sodipodi:cy="147.36218"
           sodipodi:cx="157.14285"
           id="path6298"
           style="fill:#ffffff;fill-opacity:1"
           sodipodi:type="arc" />
        <path
           transform="matrix(0.53398057,0,0,0.53398057,254.25573,200.41601)"
           d="m 197.14286,136.6479 a 27.142857,32.857143 0 1 1 -54.28572,0 27.142857,32.857143 0 1 1 54.28572,0 z"
           sodipodi:ry="32.857143"
           sodipodi:rx="27.142857"
           sodipodi:cy="136.6479"
           sodipodi:cx="170"
           id="path6300"
           style="fill:#530105;fill-opacity:1"
           sodipodi:type="arc" />
      </g>
    </g>
    <path
       sodipodi:nodetypes="ccccscccccsccsccccccsccccccscccccccscccccccccccccscccccccccccccccccccccccscccscccssscccccccccscccccsccccsscccccccsccccscccsccccccccscccscccccccsccccccccscsccsccscccsccccscccccscccscccccscsccccccccccscccsccccsccccsccccccccccscccccscccscccccccccccccccc"
       inkscape:connector-curvature="0"
       id="path6302"
       d="m 455.59375,406.03125 c -0.19873,0.0117 -0.39693,0.0326 -0.59375,0.0625 -2.29388,0.29477 -4.37019,1.91105 -5.21875,4.0625 L 431.8125,454.6875 c -0.74879,1.84064 -0.59156,4.02563 0.41305,5.74009 1.00462,1.71447 2.83393,2.91968 4.8057,3.16616 L 434.25,468.9375 c -0.91313,0.23882 -1.7729,0.67945 -2.5,1.28125 l -4.34375,-5.78125 0.125,-2.25 c 0.12176,-1.85455 -0.5981,-3.74814 -1.92112,-5.05344 -1.32302,-1.30529 -3.22614,-1.99957 -5.07888,-1.85281 l -5.1875,-6.90625 c -1.34276,-1.84113 -3.70732,-2.88252 -5.97207,-2.63018 -2.26475,0.25234 -4.3421,1.78865 -5.24668,3.88018 -0.92256,2.12037 -0.59932,4.73115 0.8125,6.5625 l 9.25,12.3125 -0.25,4.5 c -1.35226,-0.43771 -2.84891,-0.41537 -4.1875,0.0625 l -0.0937,-0.34375 c -0.63378,-2.18802 -2.50001,-3.97327 -4.71398,-4.50941 -2.21397,-0.53615 -4.69019,0.1975 -6.25477,1.85316 -1.58547,1.6781 -2.16948,4.23779 -1.46875,6.4375 l 1.25,4.0625 -6.09375,4.25 -19.5,-2.71875 9.15625,-18.90625 c 1.00612,-2.03041 0.84504,-4.59136 -0.40756,-6.4797 -1.2526,-1.88835 -3.54933,-3.03264 -5.81119,-2.8953 -2.30799,0.14685 -4.48373,1.62635 -5.46875,3.71875 l -0.53125,1.09375 c -0.41799,-0.80789 -1.00779,-1.52636 -1.71875,-2.09375 -1.81945,-1.43212 -4.43139,-1.78037 -6.5625,-0.875 l -9.0313,3.71875 -1.59375,-4.6875 c -0.71032,-2.14846 -2.62026,-3.85546 -4.83469,-4.32099 -2.21442,-0.46553 -4.65002,0.32792 -6.16531,2.00849 -1.54407,1.72779 -2.05415,4.3155 -1.28125,6.5 l 1.84375,5.4375 -19.9375,8.21875 c -0.11925,-0.84716 -0.40783,-1.67013 -0.84375,-2.40625 -1.1805,-1.99578 -3.49503,-3.26503 -5.8125,-3.1875 l -20.28125,0.46875 -2.375,-7.65625 c -0.93689,-3.13947 -4.52964,-5.21948 -7.71875,-4.46875 -0.0473,-0.7861 -0.23889,-1.56329 -0.5625,-2.28125 -0.0406,-0.0632 -0.0822,-0.12573 -0.125,-0.1875 0.44837,-1.64222 0.21842,-3.4588 -0.625,-4.9375 l 0.5,-22.59375 c 0.0828,-2.27198 -1.12563,-4.54739 -3.05424,-5.7512 -1.92862,-1.20381 -4.50356,-1.28988 -6.50826,-0.21755 -2.0418,1.09058 -3.40982,3.34161 -3.4375,5.65625 l -0.34375,15 L 237.09375,423 c -0.95461,-0.51575 -2.03999,-0.78709 -3.125,-0.78125 -3.45627,0.0155 -6.56813,3.23262 -6.46875,6.6875 0.0678,2.31235 1.47284,4.53804 3.53125,5.59375 l 11.875,6.25 c -0.52518,1.29975 -0.61436,2.77134 -0.25,4.125 l 0.40625,1.53125 -12.59375,-1.03125 c 1.85852,-2.60352 1.38514,-6.59144 -1.03125,-8.6875 -1.31707,-1.14186 -3.1077,-1.71948 -4.84375,-1.5625 -0.57727,0.0593 -1.1465,0.19632 -1.6875,0.40625 l -1.25,0.46875 -11.1875,-24.09375 c -1.07242,-2.37176 -3.68225,-3.95584 -6.28125,-3.8125 -1.92458,0.10854 -3.7786,1.12411 -4.90625,2.6875 -1.353,1.87896 -1.58931,4.50331 -0.59375,6.59375 l 10.6875,23.0625 -14,5.0625 c -0.21187,0.0622 -0.42056,0.13528 -0.625,0.21875 l -17,6.125 c -3.25098,1.12127 -5.16451,5.13209 -3.99062,8.36444 1.1739,3.23235 5.21526,5.08052 8.42812,3.85431 l 13.8125,-5 21.90625,18 c -1.59867,1.21983 -2.57515,3.21576 -2.55704,5.22658 0.0181,2.01083 1.0304,3.98884 2.65079,5.17967 l -0.75,-0.25 -1.3125,-1.25 c -1.2262,-1.21564 -2.95277,-1.91058 -4.67921,-1.88336 -1.72644,0.0272 -3.43025,0.77623 -4.61752,2.02992 -1.18727,1.25369 -1.84252,2.99571 -1.77581,4.72107 0.0667,1.72537 0.85451,3.4116 2.13504,4.56987 l 0.15625,0.15625 c 0.68662,1.42562 1.9125,2.5834 3.375,3.1875 l 0.6875,0.65625 c 0.33352,1.14679 0.99032,2.19768 1.875,3 -2.37771,-0.28065 -4.86866,0.87677 -6.1875,2.875 L 198.875,496.1875 c -1.40592,-1.6027 -3.63692,-2.43932 -5.75,-2.15625 -1.26684,-1.46839 -3.21817,-2.31988 -5.15625,-2.25 -2.47392,0.094 -4.82305,1.73308 -5.76501,4.02257 -0.94197,2.2895 -0.4265,5.1072 1.26501,6.91493 l 2.59375,2.875 c -0.45243,2.08401 0.20237,4.37583 1.6875,5.90625 l 23.875,25.90625 -9.78125,-0.375 c -3.51902,-0.34243 -6.99828,2.70195 -7.12599,6.23528 -0.12772,3.53333 3.12268,6.82095 6.65724,6.73347 l 9.625,0.375 c 0.16571,0.94117 0.54215,1.84462 1.09375,2.625 L 206.25,571.25 c -0.57697,1.63445 -0.46376,3.50037 0.30658,5.05307 0.77035,1.5527 2.18764,2.77162 3.83813,3.30095 3.30099,1.05865 7.26783,-1.05497 8.23029,-4.38527 l 2.0625,-6.46875 c 3.02257,0.0388 5.90197,-2.31204 6.46875,-5.28125 l 0.0312,-0.15625 c 0.67233,-0.36908 1.2785,-0.85828 1.78125,-1.4375 l 4.75,-5.46875 c 0.32101,2.12307 1.76686,4.04276 3.71875,4.9375 -1.77247,1.8485 -2.28897,4.79348 -1.25133,7.13482 1.03764,2.34134 3.56636,3.93674 6.12633,3.86518 l 0.15625,0 c -0.45168,0.62121 -0.79201,1.32314 -1,2.0625 l -13.3125,5.53125 c -3.18855,1.27595 -4.90637,5.36541 -3.58545,8.53561 1.32091,3.17019 5.43425,4.83 8.58545,3.46439 l 16.375,-6.8125 10.5,20.6875 c 1.54602,3.03564 5.71488,4.39078 8.75034,2.84442 3.03546,-1.54637 4.39013,-5.71539 2.84341,-8.75067 l -3.40625,-6.6875 20.0625,9.625 c 1.17811,0.59162 2.53889,0.81288 3.84375,0.625 0.5106,0.54587 1.11615,1.00269 1.78125,1.34375 l 3.9375,2.15625 -6.03125,5.875 c -1.55988,1.41888 -2.35765,3.63085 -2.0625,5.71875 -1.20874,2.26636 -0.90097,5.25197 0.74468,7.22408 1.64566,1.97212 4.52793,2.8094 6.97407,2.02592 l 25.3125,-7.28125 13.28125,7.25 c 1.97774,1.09826 4.53817,1.05964 6.48187,-0.0978 1.94371,-1.15742 3.19764,-3.39012 3.17438,-5.65222 -0.0277,-2.31464 -1.3957,-4.56567 -3.4375,-5.65625 l -1.71875,-0.9375 3.03125,-0.875 c 2.87297,-0.79445 4.97216,-3.7775 4.75,-6.75 l 23.8125,30.3125 c 1.42772,1.92551 3.98265,2.94496 6.34375,2.53125 1.16626,3.09176 4.94934,4.91325 8.09358,3.89693 3.14424,-1.01632 5.14545,-4.70748 4.28142,-7.89693 l -8,-26.71875 c 2.0072,-1.33633 3.15493,-3.8588 2.84375,-6.25 -0.0496,-0.31733 -0.12281,-0.63098 -0.21875,-0.9375 0.58541,0.0376 1.17587,-0.005 1.75,-0.125 l 5.125,-1 c 0.5446,1.36257 1.56553,2.52934 2.84375,3.25 l 2.46875,19.09375 c 0.37239,2.87833 2.89118,5.33537 5.77787,5.63622 2.88669,0.30084 5.85799,-1.58403 6.81588,-4.32372 0.77291,2.27427 2.90179,4.0275 5.28205,4.35003 2.38026,0.32253 4.89894,-0.80096 6.2492,-2.78753 l 0.0625,-0.0937 c 1.78506,-0.17696 3.47945,-1.13081 4.55667,-2.56516 1.07722,-1.43434 1.52096,-3.32745 1.19333,-5.09109 l 1,-1.34375 c 2.31742,0.68789 4.99718,-0.0516 6.63387,-1.83059 1.63669,-1.77901 2.15067,-4.511 1.27238,-6.76316 l -0.3125,-0.8125 9.8125,0.65625 c 2.2623,0.17752 4.58211,-0.92971 5.86691,-2.80022 1.2848,-1.87051 1.4857,-4.43315 0.50809,-6.48103 -0.99855,-2.08958 -3.18775,-3.55734 -5.5,-3.6875 l -1.8125,-0.125 5.59375,-7.4375 c 1.38235,-1.79657 1.72217,-4.34113 0.8597,-6.43749 -0.86246,-2.09637 -2.89454,-3.6651 -5.14095,-3.96876 -0.21751,-0.0319 -0.43663,-0.0528 -0.65625,-0.0625 -0.34468,-0.007 -0.68988,0.0144 -1.03125,0.0625 l 0.0625,-0.71875 2.625,-2.15625 c 1.52258,1.12461 3.55103,1.53453 5.39084,1.08942 1.8398,-0.44511 3.45654,-1.73694 4.29666,-3.43317 l 0.375,0.0937 3.1875,24.75 c 0.44216,3.37854 3.91818,6.05036 7.29677,5.6086 3.3786,-0.44175 6.05083,-3.91746 5.60948,-7.2961 l -5.03125,-38.71875 c 1.07821,-1.82134 1.18711,-4.18084 0.28125,-6.09375 l 12.4375,10.34375 9.59375,21.375 c 1.40142,2.994 5.32022,4.51496 8.37451,3.25029 3.05429,-1.26466 4.75081,-5.11071 3.62549,-8.21904 2.79095,0.23698 5.63311,-1.5513 6.62734,-4.1699 0.99423,-2.6186 0.0551,-5.84256 -2.18984,-7.5176 l -4.75,-3.9375 c 1.83506,-1.23057 2.96241,-3.44851 2.875,-5.65625 -0.0318,-0.56251 -0.13715,-1.12082 -0.3125,-1.65625 1.37206,-2.43631 0.93016,-5.75726 -1.03125,-7.75 l -7.03125,-7.46875 c 0.007,-0.46104 -0.0347,-0.92283 -0.125,-1.375 2.48565,-1.13704 4.07629,-3.97368 3.75,-6.6875 -0.0919,-0.71583 -0.30411,-1.41606 -0.625,-2.0625 l 17.25,13.78125 c 1.75863,1.43706 4.29841,1.84968 6.42153,1.04327 2.12312,-0.8064 3.74855,-2.80106 4.10972,-5.04327 0.36286,-2.28711 -0.60733,-4.73745 -2.4375,-6.15625 L 501.84375,514.5 c 1.38775,-1.44619 2.04669,-3.55921 1.72696,-5.53786 -0.31972,-1.97866 -1.61061,-3.77662 -3.38321,-4.71214 l -8.03125,-4.71875 6.46875,-17.65625 23.34375,-4.21875 c 2.23754,-0.38187 4.21611,-2.0242 5.00346,-4.15317 0.78734,-2.12897 0.35346,-4.66348 -1.09721,-6.40933 -1.47209,-1.78359 -3.94621,-2.67875 -6.21875,-2.25 l -15.84375,2.875 0.34375,-0.90625 c 0.77927,-2.03143 0.44879,-4.45095 -0.84674,-6.19897 -1.29552,-1.74803 -3.51424,-2.76811 -5.68451,-2.61353 -0.19922,0.0221 -0.39742,0.0534 -0.59375,0.0937 -2.29103,0.36941 -4.3199,2.0622 -5.09375,4.25 l -2.21875,6.03125 c -0.15221,-0.10027 -0.30865,-0.19413 -0.46875,-0.28125 0.98202,-2.22379 0.57725,-4.99392 -1,-6.84375 -1.51768,-1.74894 -4.01774,-2.58229 -6.28125,-2.09375 l -2.53125,0.53125 c -0.004,-0.548 -0.0777,-1.09544 -0.21875,-1.625 l 21.75,-22.25 c 1.31563,-1.32854 2.01338,-3.2455 1.85957,-5.1089 -0.1538,-1.86339 -1.15641,-3.64 -2.67207,-4.73485 0.75041,-3.08562 -1.13534,-6.58568 -4.125,-7.65625 -2.1845,-0.7729 -4.77221,-0.26282 -6.5,1.28125 l -26.65625,23.125 3,-6.5625 c 0.95455,-2.05293 0.73138,-4.6064 -0.56483,-6.46262 -1.29621,-1.85622 -3.61658,-2.9452 -5.87267,-2.75613 -0.96659,0.0816 -1.91398,0.38304 -2.75,0.875 l 5.15625,-12.78125 c 0.83677,-2.00452 0.57948,-4.42799 -0.65951,-6.21214 -1.239,-1.78415 -3.41995,-2.87175 -5.59049,-2.78786 z M 489.0625,519.6875 495.46875,526 483.75,521.53125 c 1.92603,0.21903 3.93626,-0.47864 5.3125,-1.84375 z m -80.53125,86.75 1.09375,0.0625 3.53125,10.25 -1.71875,2.28125 c -0.43524,0.53409 -0.78479,1.13786 -1.03125,1.78125 z m -38.75,5.0625 1.21875,4.09375 -2.125,-2.6875 c 0.36089,-0.42717 0.66633,-0.90113 0.90625,-1.40625 z"
       style="font-size:medium;font-style:normal;font-variant:normal;font-weight:normal;font-stretch:normal;text-indent:0;text-align:start;text-decoration:none;line-height:normal;letter-spacing:normal;word-spacing:normal;text-transform:none;direction:ltr;block-progression:tb;writing-mode:lr-tb;text-anchor:start;baseline-shift:baseline;color:#000000;fill:#920000;fill-opacity:1;stroke:none;stroke-width:13;marker:none;visibility:visible;display:inline;overflow:visible;enable-background:accumulate;font-family:Sans;-inkscape-font-specification:Sans" />
    <path
       sodipodi:nodetypes="cccc"
       inkscape:connector-curvature="0"
       id="path6304"
       d="m 304.12579,394.19304 21.42857,0 -10.71429,-23.28571 z"
       style="fill:#ffffff;fill-opacity:1;stroke:none" />
    <path
       sodipodi:nodetypes="cccc"
       inkscape:connector-curvature="0"
       id="path6306"
       d="m 324.84008,394.19304 21.42857,0 -10.71429,-23.28571 z"
       style="fill:#ffffff;fill-opacity:1;stroke:none" />
    <path
       sodipodi:nodetypes="cccc"
       inkscape:connector-curvature="0"
       id="path6308"
       d="m 345.55437,394.19304 21.42857,0 -10.71429,-23.28571 z"
       style="fill:#ffffff;fill-opacity:1;stroke:none" />
    <path
       sodipodi:nodetypes="cccc"
       inkscape:connector-curvature="0"
       id="path6310"
       d="m 366.26866,394.19304 21.42857,0 -10.71429,-23.28571 z"
       style="fill:#ffffff;fill-opacity:1;stroke:none" />
    <path
       sodipodi:nodetypes="cccc"
       inkscape:connector-curvature="0"
       id="path6312"
       d="m 386.98296,394.19304 21.42857,0 -10.71429,-23.28571 z"
       style="fill:#ffffff;fill-opacity:1;stroke:none" />
  </g>
  <g
     style="display:inline"
     inkscape:label="Anim 2"
     inkscape:groupmode="layer"
     id="layer3"
     transform="translate(-153.41151,-262.81948)">
    <g
       id="g3025"
       transform="matrix(0.98544673,-0.16998456,0.16998456,0.98544673,-60.506029,60.949826)">
      <path
         inkscape:connector-curvature="0"
         id="path3027"
         d="m 202.72604,343.47873 c 0.1049,28.40532 -5.58581,58.7459 5.78845,85.92079 10.97611,23.48827 34.82093,36.93294 56.28926,49.15167 6.75832,1.00606 7.7451,-7.87537 11.58462,-11.4283 3.74067,-5.46956 7.46512,-10.8958 11.13637,-16.40818 -17.08152,-12.15851 -38.62436,-21.93485 -47.29273,-42.27425 -6.37027,-18.96074 -1.40978,-39.30841 1.74109,-58.3912 2.0941,-4.26831 -0.88664,-10.08247 -5.98404,-9.31355 -10.98457,1.11575 -22.12744,0.4705 -33.18492,0.82203 l -0.0406,0.99918 -0.0375,0.92181 z"
         style="fill:#059134;fill-opacity:1;stroke:none" />
      <path
         sodipodi:nodetypes="aaccccccca"
         inkscape:connector-curvature="0"
         id="path3029"
         d="m 186.42858,353.67662 c 12.08134,18.45705 42.60146,19.76577 64.28571,15.71429 24.54239,-4.5855 61.42856,-42.85715 61.42856,-42.85715 l -43.97207,10.42516 23.848,-68.41654 -41.3045,43.70566 -4.99999,-53.57142 -28.57143,45.71428 -12.85715,-53.57142 c 0,0 -36.91529,73.74138 -17.85713,102.85714 z"
         style="fill:#007a28;fill-opacity:1;stroke:none" />
    </g>
    <g
       id="g3031"
       transform="matrix(0.97910069,0.20337608,-0.20337608,0.97910069,66.455352,-77.258683)">
      <path
         inkscape:connector-curvature="0"
         id="path3033"
         d="m 531.73342,343.47874 c -0.1049,28.40532 5.58581,58.7459 -5.78845,85.92079 -10.97611,23.48826 -34.82093,36.93293 -56.28926,49.15166 -6.75832,1.00606 -7.7451,-7.87537 -11.58462,-11.4283 -3.74067,-5.46956 -7.46512,-10.8958 -11.13637,-16.40818 17.08152,-12.1585 38.62436,-21.93484 47.29273,-42.27424 6.37027,-18.96074 1.40978,-39.30841 -1.74109,-58.3912 -2.0941,-4.26831 0.88664,-10.08247 5.98404,-9.31355 10.98457,1.11575 22.12744,0.4705 33.18492,0.82203 l 0.0406,0.99918 0.0375,0.92181 z"
         style="fill:#059134;fill-opacity:1;stroke:none" />
      <path
         sodipodi:nodetypes="aaccccccca"
         inkscape:connector-curvature="0"
         id="path3035"
         d="m 544.41076,353.67662 c -12.08134,18.45705 -42.60146,19.76577 -64.28571,15.71429 -24.54239,-4.5855 -61.42856,-42.85715 -61.42856,-42.85715 l 43.97207,10.42516 -23.848,-68.41654 41.3045,43.70566 4.99999,-53.57142 28.57143,45.71428 12.85715,-53.57142 c 0,0 36.91529,73.74138 17.85713,102.85714 z"
         style="fill:#007a28;fill-opacity:1;stroke:none" />
    </g>
    <path
       transform="translate(50.869554,149.78375)"
       sodipodi:type="arc"
       style="fill:#007a28;fill-opacity:1"
       id="path3037"
       sodipodi:cx="305.71429"
       sodipodi:cy="340.93362"
       sodipodi:rx="134.28572"
       sodipodi:ry="114.28571"
       d="m 440.00002,340.93362 a 134.28572,114.28571 0 1 1 -268.57145,0 134.28572,114.28571 0 1 1 268.57145,0 z" />
    <g
       id="g3039"
       transform="translate(51.042934,163.78375)">
      <g
         transform="matrix(0.82734374,0.56169595,-0.56169595,0.82734374,205.1136,-101.27342)"
         id="g3041">
        <path
           sodipodi:type="arc"
           style="fill:#ffffff;fill-opacity:1"
           id="path3043"
           sodipodi:cx="157.14285"
           sodipodi:cy="147.36218"
           sodipodi:rx="52.857143"
           sodipodi:ry="73.571426"
           d="m 210,147.36218 a 52.857143,73.571426 0 1 1 -105.71429,0 52.857143,73.571426 0 1 1 105.71429,0 z"
           transform="matrix(0.53398057,0,0,0.53398057,178.59917,203.24507)" />
        <path
           sodipodi:type="arc"
           style="fill:#530105;fill-opacity:1"
           id="path3045"
           sodipodi:cx="170"
           sodipodi:cy="136.6479"
           sodipodi:rx="27.142857"
           sodipodi:ry="32.857143"
           d="m 197.14286,136.6479 a 27.142857,32.857143 0 1 1 -54.28572,0 27.142857,32.857143 0 1 1 54.28572,0 z"
           transform="matrix(0.53398057,0,0,0.53398057,174.48525,199.64727)" />
      </g>
      <g
         transform="matrix(0.85007889,-0.52665538,0.52665538,0.85007889,-95.961692,219.59454)"
         id="g3047">
        <path
           sodipodi:type="arc"
           style="fill:#ffffff;fill-opacity:1"
           id="path3049"
           sodipodi:cx="157.14285"
           sodipodi:cy="147.36218"
           sodipodi:rx="52.857143"
           sodipodi:ry="73.571426"
           d="m 210,147.36218 a 52.857143,73.571426 0 1 1 -105.71429,0 52.857143,73.571426 0 1 1 105.71429,0 z"
           transform="matrix(0.53398057,0,0,0.53398057,264.6602,206.8165)" />
        <path
           sodipodi:type="arc"
           style="fill:#530105;fill-opacity:1"
           id="path3051"
           sodipodi:cx="170"
           sodipodi:cy="136.6479"
           sodipodi:rx="27.142857"
           sodipodi:ry="32.857143"
           d="m 197.14286,136.6479 a 27.142857,32.857143 0 1 1 -54.28572,0 27.142857,32.857143 0 1 1 54.28572,0 z"
           transform="matrix(0.53398057,0,0,0.53398057,254.90258,203.16948)" />
      </g>
    </g>
    <path
       style="font-size:medium;font-style:normal;font-variant:normal;font-weight:normal;font-stretch:normal;text-indent:0;text-align:start;text-decoration:none;line-height:normal;letter-spacing:normal;word-spacing:normal;text-transform:none;direction:ltr;block-progression:tb;writing-mode:lr-tb;text-anchor:start;baseline-shift:baseline;color:#000000;fill:#920000;fill-opacity:1;stroke:none;stroke-width:13;marker:none;visibility:visible;display:inline;overflow:visible;enable-background:accumulate;font-family:Sans;-inkscape-font-specification:Sans"
       d="m 455.59375,406.03125 c -0.19873,0.0117 -0.39693,0.0326 -0.59375,0.0625 -2.29388,0.29477 -4.37019,1.91105 -5.21875,4.0625 L 431.8125,454.6875 c -0.74879,1.84064 -0.59156,4.02563 0.41305,5.74009 1.00462,1.71447 2.83393,2.91968 4.8057,3.16616 L 434.25,468.9375 c -0.91313,0.23882 -1.7729,0.67945 -2.5,1.28125 l -4.34375,-5.78125 0.125,-2.25 c 0.12176,-1.85455 -0.5981,-3.74814 -1.92112,-5.05344 -1.32302,-1.30529 -3.22614,-1.99957 -5.07888,-1.85281 l -5.1875,-6.90625 c -1.34276,-1.84113 -3.70732,-2.88252 -5.97207,-2.63018 -2.26475,0.25234 -4.3421,1.78865 -5.24668,3.88018 -0.92256,2.12037 -0.59932,4.73115 0.8125,6.5625 l 9.25,12.3125 -0.25,4.5 c -1.35226,-0.43771 -2.84891,-0.41537 -4.1875,0.0625 l -0.0937,-0.34375 c -0.63378,-2.18802 -2.50001,-3.97327 -4.71398,-4.50941 -2.21397,-0.53615 -4.69019,0.1975 -6.25477,1.85316 -1.58547,1.6781 -2.16948,4.23779 -1.46875,6.4375 l 1.25,4.0625 -6.09375,4.25 -19.5,-2.71875 9.15625,-18.90625 c 1.00612,-2.03041 0.84504,-4.59136 -0.40756,-6.4797 -1.2526,-1.88835 -3.54933,-3.03264 -5.81119,-2.8953 -2.30799,0.14685 -4.48373,1.62635 -5.46875,3.71875 l -0.53125,1.09375 c -0.41799,-0.80789 -1.00779,-1.52636 -1.71875,-2.09375 -1.81945,-1.43212 -4.43139,-1.78037 -6.5625,-0.875 l -9.0313,3.71875 -1.59375,-4.6875 c -0.71032,-2.14846 -2.62026,-3.85546 -4.83469,-4.32099 -2.21442,-0.46553 -4.65002,0.32792 -6.16531,2.00849 -1.54407,1.72779 -2.05415,4.3155 -1.28125,6.5 l 1.84375,5.4375 -19.9375,8.21875 c -0.11925,-0.84716 -0.40783,-1.67013 -0.84375,-2.40625 -1.1805,-1.99578 -3.49503,-3.26503 -5.8125,-3.1875 l -20.28125,0.46875 -2.375,-7.65625 c -0.93689,-3.13947 -4.52964,-5.21948 -7.71875,-4.46875 -0.0473,-0.7861 -0.23889,-1.56329 -0.5625,-2.28125 -0.0406,-0.0632 -0.0822,-0.12573 -0.125,-0.1875 0.44837,-1.64222 0.21842,-3.4588 -0.625,-4.9375 l 0.5,-22.59375 c 0.0828,-2.27198 -1.12563,-4.54739 -3.05424,-5.7512 -1.92862,-1.20381 -4.50356,-1.28988 -6.50826,-0.21755 -2.0418,1.09058 -3.40982,3.34161 -3.4375,5.65625 l -0.34375,15 L 237.09375,423 c -0.95461,-0.51575 -2.03999,-0.78709 -3.125,-0.78125 -3.45627,0.0155 -6.56813,3.23262 -6.46875,6.6875 0.0678,2.31235 1.47284,4.53804 3.53125,5.59375 l 11.875,6.25 c -0.52518,1.29975 -0.61436,2.77134 -0.25,4.125 l 0.40625,1.53125 -12.59375,-1.03125 c 1.85852,-2.60352 1.38514,-6.59144 -1.03125,-8.6875 -1.31707,-1.14186 -3.1077,-1.71948 -4.84375,-1.5625 -0.57727,0.0593 -1.1465,0.19632 -1.6875,0.40625 l -1.25,0.46875 -11.1875,-24.09375 c -1.07242,-2.37176 -3.68225,-3.95584 -6.28125,-3.8125 -1.92458,0.10854 -3.7786,1.12411 -4.90625,2.6875 -1.353,1.87896 -1.58931,4.50331 -0.59375,6.59375 l 10.6875,23.0625 -14,5.0625 c -0.21187,0.0622 -0.42056,0.13528 -0.625,0.21875 l -17,6.125 c -3.25098,1.12127 -5.16451,5.13209 -3.99062,8.36444 1.1739,3.23235 5.21526,5.08052 8.42812,3.85431 l 13.8125,-5 21.90625,18 c -1.59867,1.21983 -2.57515,3.21576 -2.55704,5.22658 0.0181,2.01083 1.0304,3.98884 2.65079,5.17967 l -0.75,-0.25 -1.3125,-1.25 c -1.2262,-1.21564 -2.95277,-1.91058 -4.67921,-1.88336 -1.72644,0.0272 -3.43025,0.77623 -4.61752,2.02992 -1.18727,1.25369 -1.84252,2.99571 -1.77581,4.72107 0.0667,1.72537 0.85451,3.4116 2.13504,4.56987 l 0.15625,0.15625 c 0.68662,1.42562 1.9125,2.5834 3.375,3.1875 l 0.6875,0.65625 c 0.33352,1.14679 0.99032,2.19768 1.875,3 -2.37771,-0.28065 -4.86866,0.87677 -6.1875,2.875 L 198.875,496.1875 c -1.40592,-1.6027 -3.63692,-2.43932 -5.75,-2.15625 -1.26684,-1.46839 -3.21817,-2.31988 -5.15625,-2.25 -2.47392,0.094 -4.82305,1.73308 -5.76501,4.02257 -0.94197,2.2895 -0.4265,5.1072 1.26501,6.91493 l 2.59375,2.875 c -0.45243,2.08401 0.20237,4.37583 1.6875,5.90625 l 23.875,25.90625 -9.78125,-0.375 c -3.51902,-0.34243 -6.99828,2.70195 -7.12599,6.23528 -0.12772,3.53333 3.12268,6.82095 6.65724,6.73347 l 9.625,0.375 c 0.16571,0.94117 0.54215,1.84462 1.09375,2.625 L 206.25,571.25 c -0.57697,1.63445 -0.46376,3.50037 0.30658,5.05307 0.77035,1.5527 2.18764,2.77162 3.83813,3.30095 3.30099,1.05865 7.26783,-1.05497 8.23029,-4.38527 l 2.0625,-6.46875 c 3.02257,0.0388 5.90197,-2.31204 6.46875,-5.28125 l 0.0312,-0.15625 c 0.67233,-0.36908 1.2785,-0.85828 1.78125,-1.4375 l 4.75,-5.46875 c 0.32101,2.12307 1.76686,4.04276 3.71875,4.9375 -1.77247,1.8485 -2.28897,4.79348 -1.25133,7.13482 1.03764,2.34134 3.56636,3.93674 6.12633,3.86518 l 0.15625,0 c -0.45168,0.62121 -0.79201,1.32314 -1,2.0625 l -13.3125,5.53125 c -3.18855,1.27595 -4.90637,5.36541 -3.58545,8.53561 1.32091,3.17019 5.43425,4.83 8.58545,3.46439 l 16.375,-6.8125 10.5,20.6875 c 1.54602,3.03564 5.71488,4.39078 8.75034,2.84442 3.03546,-1.54637 4.39013,-5.71539 2.84341,-8.75067 l -3.40625,-6.6875 20.0625,9.625 c 1.17811,0.59162 2.53889,0.81288 3.84375,0.625 0.5106,0.54587 1.11615,1.00269 1.78125,1.34375 l 3.9375,2.15625 -6.03125,5.875 c -1.55988,1.41888 -2.35765,3.63085 -2.0625,5.71875 -1.20874,2.26636 -0.90097,5.25197 0.74468,7.22408 1.64566,1.97212 4.52793,2.8094 6.97407,2.02592 l 25.3125,-7.28125 13.28125,7.25 c 1.97774,1.09826 4.53817,1.05964 6.48187,-0.0978 1.94371,-1.15742 3.19764,-3.39012 3.17438,-5.65222 -0.0277,-2.31464 -1.3957,-4.56567 -3.4375,-5.65625 l -1.71875,-0.9375 3.03125,-0.875 c 2.87297,-0.79445 4.97216,-3.7775 4.75,-6.75 l 23.8125,30.3125 c 1.42772,1.92551 3.98265,2.94496 6.34375,2.53125 1.16626,3.09176 4.94934,4.91325 8.09358,3.89693 3.14424,-1.01632 5.14545,-4.70748 4.28142,-7.89693 l -8,-26.71875 c 2.0072,-1.33633 3.15493,-3.8588 2.84375,-6.25 -0.0496,-0.31733 -0.12281,-0.63098 -0.21875,-0.9375 0.58541,0.0376 1.17587,-0.005 1.75,-0.125 l 5.125,-1 c 0.5446,1.36257 1.56553,2.52934 2.84375,3.25 l 2.46875,19.09375 c 0.37239,2.87833 2.89118,5.33537 5.77787,5.63622 2.88669,0.30084 5.85799,-1.58403 6.81588,-4.32372 0.77291,2.27427 2.90179,4.0275 5.28205,4.35003 2.38026,0.32253 4.89894,-0.80096 6.2492,-2.78753 l 0.0625,-0.0937 c 1.78506,-0.17696 3.47945,-1.13081 4.55667,-2.56516 1.07722,-1.43434 1.52096,-3.32745 1.19333,-5.09109 l 1,-1.34375 c 2.31742,0.68789 4.99718,-0.0516 6.63387,-1.83059 1.63669,-1.77901 2.15067,-4.511 1.27238,-6.76316 l -0.3125,-0.8125 9.8125,0.65625 c 2.2623,0.17752 4.58211,-0.92971 5.86691,-2.80022 1.2848,-1.87051 1.4857,-4.43315 0.50809,-6.48103 -0.99855,-2.08958 -3.18775,-3.55734 -5.5,-3.6875 l -1.8125,-0.125 5.59375,-7.4375 c 1.38235,-1.79657 1.72217,-4.34113 0.8597,-6.43749 -0.86246,-2.09637 -2.89454,-3.6651 -5.14095,-3.96876 -0.21751,-0.0319 -0.43663,-0.0528 -0.65625,-0.0625 -0.34468,-0.007 -0.68988,0.0144 -1.03125,0.0625 l 0.0625,-0.71875 2.625,-2.15625 c 1.52258,1.12461 3.55103,1.53453 5.39084,1.08942 1.8398,-0.44511 3.45654,-1.73694 4.29666,-3.43317 l 0.375,0.0937 3.1875,24.75 c 0.44216,3.37854 3.91818,6.05036 7.29677,5.6086 3.3786,-0.44175 6.05083,-3.91746 5.60948,-7.2961 l -5.03125,-38.71875 c 1.07821,-1.82134 1.18711,-4.18084 0.28125,-6.09375 l 12.4375,10.34375 9.59375,21.375 c 1.40142,2.994 5.32022,4.51496 8.37451,3.25029 3.05429,-1.26466 4.75081,-5.11071 3.62549,-8.21904 2.79095,0.23698 5.63311,-1.5513 6.62734,-4.1699 0.99423,-2.6186 0.0551,-5.84256 -2.18984,-7.5176 l -4.75,-3.9375 c 1.83506,-1.23057 2.96241,-3.44851 2.875,-5.65625 -0.0318,-0.56251 -0.13715,-1.12082 -0.3125,-1.65625 1.37206,-2.43631 0.93016,-5.75726 -1.03125,-7.75 l -7.03125,-7.46875 c 0.007,-0.46104 -0.0347,-0.92283 -0.125,-1.375 2.48565,-1.13704 4.07629,-3.97368 3.75,-6.6875 -0.0919,-0.71583 -0.30411,-1.41606 -0.625,-2.0625 l 17.25,13.78125 c 1.75863,1.43706 4.29841,1.84968 6.42153,1.04327 2.12312,-0.8064 3.74855,-2.80106 4.10972,-5.04327 0.36286,-2.28711 -0.60733,-4.73745 -2.4375,-6.15625 L 501.84375,514.5 c 1.38775,-1.44619 2.04669,-3.55921 1.72696,-5.53786 -0.31972,-1.97866 -1.61061,-3.77662 -3.38321,-4.71214 l -8.03125,-4.71875 6.46875,-17.65625 23.34375,-4.21875 c 2.23754,-0.38187 4.21611,-2.0242 5.00346,-4.15317 0.78734,-2.12897 0.35346,-4.66348 -1.09721,-6.40933 -1.47209,-1.78359 -3.94621,-2.67875 -6.21875,-2.25 l -15.84375,2.875 0.34375,-0.90625 c 0.77927,-2.03143 0.44879,-4.45095 -0.84674,-6.19897 -1.29552,-1.74803 -3.51424,-2.76811 -5.68451,-2.61353 -0.19922,0.0221 -0.39742,0.0534 -0.59375,0.0937 -2.29103,0.36941 -4.3199,2.0622 -5.09375,4.25 l -2.21875,6.03125 c -0.15221,-0.10027 -0.30865,-0.19413 -0.46875,-0.28125 0.98202,-2.22379 0.57725,-4.99392 -1,-6.84375 -1.51768,-1.74894 -4.01774,-2.58229 -6.28125,-2.09375 l -2.53125,0.53125 c -0.004,-0.548 -0.0777,-1.09544 -0.21875,-1.625 l 21.75,-22.25 c 1.31563,-1.32854 2.01338,-3.2455 1.85957,-5.1089 -0.1538,-1.86339 -1.15641,-3.64 -2.67207,-4.73485 0.75041,-3.08562 -1.13534,-6.58568 -4.125,-7.65625 -2.1845,-0.7729 -4.77221,-0.26282 -6.5,1.28125 l -26.65625,23.125 3,-6.5625 c 0.95455,-2.05293 0.73138,-4.6064 -0.56483,-6.46262 -1.29621,-1.85622 -3.61658,-2.9452 -5.87267,-2.75613 -0.96659,0.0816 -1.91398,0.38304 -2.75,0.875 l 5.15625,-12.78125 c 0.83677,-2.00452 0.57948,-4.42799 -0.65951,-6.21214 -1.239,-1.78415 -3.41995,-2.87175 -5.59049,-2.78786 z M 489.0625,519.6875 495.46875,526 483.75,521.53125 c 1.92603,0.21903 3.93626,-0.47864 5.3125,-1.84375 z m -80.53125,86.75 1.09375,0.0625 3.53125,10.25 -1.71875,2.28125 c -0.43524,0.53409 -0.78479,1.13786 -1.03125,1.78125 z m -38.75,5.0625 1.21875,4.09375 -2.125,-2.6875 c 0.36089,-0.42717 0.66633,-0.90113 0.90625,-1.40625 z"
       id="path3053"
       inkscape:connector-curvature="0"
       sodipodi:nodetypes="ccccscccccsccsccccccsccccccscccccccscccccccccccccscccccccccccccccccccccccscccscccssscccccccccscccccsccccsscccccccsccccscccsccccccccscccscccccccsccccccccscsccsccscccsccccscccccscccscccccscsccccccccccscccsccccsccccsccccccccccscccccscccscccccccccccccccc" />
    <path
       style="fill:#ffffff;fill-opacity:1;stroke:none"
       d="m 304.12579,394.19304 21.42857,0 -10.71429,-23.28571 z"
       id="path3055"
       inkscape:connector-curvature="0"
       sodipodi:nodetypes="cccc" />
    <path
       style="fill:#ffffff;fill-opacity:1;stroke:none"
       d="m 324.84008,394.19304 21.42857,0 -10.71429,-23.28571 z"
       id="path3057"
       inkscape:connector-curvature="0"
       sodipodi:nodetypes="cccc" />
    <path
       style="fill:#ffffff;fill-opacity:1;stroke:none"
       d="m 345.55437,394.19304 21.42857,0 -10.71429,-23.28571 z"
       id="path3059"
       inkscape:connector-curvature="0"
       sodipodi:nodetypes="cccc" />
    <path
       style="fill:#ffffff;fill-opacity:1;stroke:none"
       d="m 366.26866,394.19304 21.42857,0 -10.71429,-23.28571 z"
       id="path3061"
       inkscape:connector-curvature="0"
       sodipodi:nodetypes="cccc" />
    <path
       style="fill:#ffffff;fill-opacity:1;stroke:none"
       d="m 386.98296,394.19304 21.42857,0 -10.71429,-23.28571 z"
       id="path3063"
       inkscape:connector-curvature="0"
       sodipodi:nodetypes="cccc" />
  </g>
  <g
     transform="translate(-153.41151,-262.81948)"
     id="layer4"
     inkscape:groupmode="layer"
     inkscape:label="Anim 3"
     style="display:inline">
    <g
       transform="matrix(0.97080973,-0.23985096,0.23985096,0.97080973,-86.539283,87.037597)"
       id="g3046">
      <path
         style="fill:#059134;fill-opacity:1;stroke:none"
         d="m 202.72604,343.47873 c 0.1049,28.40532 -5.58581,58.7459 5.78845,85.92079 10.97611,23.48827 34.82093,36.93294 56.28926,49.15167 6.75832,1.00606 7.7451,-7.87537 11.58462,-11.4283 3.74067,-5.46956 7.46512,-10.8958 11.13637,-16.40818 -17.08152,-12.15851 -38.62436,-21.93485 -47.29273,-42.27425 -6.37027,-18.96074 -1.40978,-39.30841 1.74109,-58.3912 2.0941,-4.26831 -0.88664,-10.08247 -5.98404,-9.31355 -10.98457,1.11575 -22.12744,0.4705 -33.18492,0.82203 l -0.0406,0.99918 -0.0375,0.92181 z"
         id="path3048"
         inkscape:connector-curvature="0" />
      <path
         style="fill:#007a28;fill-opacity:1;stroke:none"
         d="m 186.42858,353.67662 c 12.08134,18.45705 42.60146,19.76577 64.28571,15.71429 24.54239,-4.5855 61.42856,-42.85715 61.42856,-42.85715 l -43.97207,10.42516 23.848,-68.41654 -41.3045,43.70566 -4.99999,-53.57142 -28.57143,45.71428 -12.85715,-53.57142 c 0,0 -36.91529,73.74138 -17.85713,102.85714 z"
         id="path3050"
         inkscape:connector-curvature="0"
         sodipodi:nodetypes="aaccccccca" />
    </g>
    <g
       transform="matrix(0.95348313,0.30144637,-0.30144637,0.95348313,118.91627,-112.23503)"
       id="g3052">
      <path
         style="fill:#059134;fill-opacity:1;stroke:none"
         d="m 531.73342,343.47874 c -0.1049,28.40532 5.58581,58.7459 -5.78845,85.92079 -10.97611,23.48826 -34.82093,36.93293 -56.28926,49.15166 -6.75832,1.00606 -7.7451,-7.87537 -11.58462,-11.4283 -3.74067,-5.46956 -7.46512,-10.8958 -11.13637,-16.40818 17.08152,-12.1585 38.62436,-21.93484 47.29273,-42.27424 6.37027,-18.96074 1.40978,-39.30841 -1.74109,-58.3912 -2.0941,-4.26831 0.88664,-10.08247 5.98404,-9.31355 10.98457,1.11575 22.12744,0.4705 33.18492,0.82203 l 0.0406,0.99918 0.0375,0.92181 z"
         id="path3054"
         inkscape:connector-curvature="0" />
      <path
         style="fill:#007a28;fill-opacity:1;stroke:none"
         d="m 544.41076,353.67662 c -12.08134,18.45705 -42.60146,19.76577 -64.28571,15.71429 -24.54239,-4.5855 -61.42856,-42.85715 -61.42856,-42.85715 l 43.97207,10.42516 -23.848,-68.41654 41.3045,43.70566 4.99999,-53.57142 28.57143,45.71428 12.85715,-53.57142 c 0,0 36.91529,73.74138 17.85713,102.85714 z"
         id="path3056"
         inkscape:connector-curvature="0"
         sodipodi:nodetypes="aaccccccca" />
    </g>
    <path
       d="m 440.00002,340.93362 a 134.28572,114.28571 0 1 1 -268.57145,0 134.28572,114.28571 0 1 1 268.57145,0 z"
       sodipodi:ry="114.28571"
       sodipodi:rx="134.28572"
       sodipodi:cy="340.93362"
       sodipodi:cx="305.71429"
       id="path3058"
       style="fill:#007a28;fill-opacity:1"
       sodipodi:type="arc"
       transform="translate(50.869554,149.78375)" />
    <g
       transform="translate(51.042934,163.78375)"
       id="g3060">
      <g
         id="g3062"
         transform="matrix(0.82734374,0.56169595,-0.56169595,0.82734374,205.1136,-101.27342)">
        <path
           transform="matrix(0.53398057,0,0,0.53398057,178.59917,203.24507)"
           d="m 210,147.36218 a 52.857143,73.571426 0 1 1 -105.71429,0 52.857143,73.571426 0 1 1 105.71429,0 z"
           sodipodi:ry="73.571426"
           sodipodi:rx="52.857143"
           sodipodi:cy="147.36218"
           sodipodi:cx="157.14285"
           id="path3064"
           style="fill:#ffffff;fill-opacity:1"
           sodipodi:type="arc" />
        <path
           transform="matrix(0.53398057,0,0,0.53398057,173.95395,202.42535)"
           d="m 197.14286,136.6479 a 27.142857,32.857143 0 1 1 -54.28572,0 27.142857,32.857143 0 1 1 54.28572,0 z"
           sodipodi:ry="32.857143"
           sodipodi:rx="27.142857"
           sodipodi:cy="136.6479"
           sodipodi:cx="170"
           id="path3066"
           style="fill:#530105;fill-opacity:1"
           sodipodi:type="arc" />
      </g>
      <g
         id="g3068"
         transform="matrix(0.85007889,-0.52665538,0.52665538,0.85007889,-95.961692,219.59454)">
        <path
           transform="matrix(0.53398057,0,0,0.53398057,264.6602,206.8165)"
           d="m 210,147.36218 a 52.857143,73.571426 0 1 1 -105.71429,0 52.857143,73.571426 0 1 1 105.71429,0 z"
           sodipodi:ry="73.571426"
           sodipodi:rx="52.857143"
           sodipodi:cy="147.36218"
           sodipodi:cx="157.14285"
           id="path3070"
           style="fill:#ffffff;fill-opacity:1"
           sodipodi:type="arc" />
        <path
           transform="matrix(0.53398057,0,0,0.53398057,255.54943,205.92295)"
           d="m 197.14286,136.6479 a 27.142857,32.857143 0 1 1 -54.28572,0 27.142857,32.857143 0 1 1 54.28572,0 z"
           sodipodi:ry="32.857143"
           sodipodi:rx="27.142857"
           sodipodi:cy="136.6479"
           sodipodi:cx="170"
           id="path3072"
           style="fill:#530105;fill-opacity:1"
           sodipodi:type="arc" />
      </g>
    </g>
    <g
       id="g3086"
       transform="translate(51.042934,163.78375)">
      <g
         transform="matrix(0.82734374,0.56169595,-0.56169595,0.82734374,205.1136,-101.27342)"
         id="g3088">
        <path
           sodipodi:type="arc"
           style="fill:#ffffff;fill-opacity:1"
           id="path3090"
           sodipodi:cx="157.14285"
           sodipodi:cy="147.36218"
           sodipodi:rx="52.857143"
           sodipodi:ry="73.571426"
           d="m 210,147.36218 a 52.857143,73.571426 0 1 1 -105.71429,0 52.857143,73.571426 0 1 1 105.71429,0 z"
           transform="matrix(0.53398057,0,0,0.53398057,178.59917,203.24507)" />
        <path
           sodipodi:type="arc"
           style="fill:#530105;fill-opacity:1"
           id="path3092"
           sodipodi:cx="170"
           sodipodi:cy="136.6479"
           sodipodi:rx="27.142857"
           sodipodi:ry="32.857143"
           d="m 197.14286,136.6479 a 27.142857,32.857143 0 1 1 -54.28572,0 27.142857,32.857143 0 1 1 54.28572,0 z"
           transform="matrix(0.53398057,0,0,0.53398057,173.95395,202.42535)" />
      </g>
      <g
         transform="matrix(0.85007889,-0.52665538,0.52665538,0.85007889,-95.961692,219.59454)"
         id="g3094">
        <path
           sodipodi:type="arc"
           style="fill:#ffffff;fill-opacity:1"
           id="path3096"
           sodipodi:cx="157.14285"
           sodipodi:cy="147.36218"
           sodipodi:rx="52.857143"
           sodipodi:ry="73.571426"
           d="m 210,147.36218 a 52.857143,73.571426 0 1 1 -105.71429,0 52.857143,73.571426 0 1 1 105.71429,0 z"
           transform="matrix(0.53398057,0,0,0.53398057,264.6602,206.8165)" />
        <path
           sodipodi:type="arc"
           style="fill:#530105;fill-opacity:1"
           id="path3098"
           sodipodi:cx="170"
           sodipodi:cy="136.6479"
           sodipodi:rx="27.142857"
           sodipodi:ry="32.857143"
           d="m 197.14286,136.6479 a 27.142857,32.857143 0 1 1 -54.28572,0 27.142857,32.857143 0 1 1 54.28572,0 z"
           transform="matrix(0.53398057,0,0,0.53398057,255.54943,205.92295)" />
      </g>
    </g>
    <path
       sodipodi:nodetypes="ccccscccccsccsccccccsccccccscccccccscccccccccccccscccccccccccccccccccccccscccscccssscccccccccscccccsccccsscccccccsccccscccsccccccccscccscccccccsccccccccscsccsccscccsccccscccccscccscccccscsccccccccccscccsccccsccccsccccccccccscccccscccscccccccccccccccc"
       inkscape:connector-curvature="0"
       id="path3074"
       d="m 455.59375,406.03125 c -0.19873,0.0117 -0.39693,0.0326 -0.59375,0.0625 -2.29388,0.29477 -4.37019,1.91105 -5.21875,4.0625 L 431.8125,454.6875 c -0.74879,1.84064 -0.59156,4.02563 0.41305,5.74009 1.00462,1.71447 2.83393,2.91968 4.8057,3.16616 L 434.25,468.9375 c -0.91313,0.23882 -1.7729,0.67945 -2.5,1.28125 l -4.34375,-5.78125 0.125,-2.25 c 0.12176,-1.85455 -0.5981,-3.74814 -1.92112,-5.05344 -1.32302,-1.30529 -3.22614,-1.99957 -5.07888,-1.85281 l -5.1875,-6.90625 c -1.34276,-1.84113 -3.70732,-2.88252 -5.97207,-2.63018 -2.26475,0.25234 -4.3421,1.78865 -5.24668,3.88018 -0.92256,2.12037 -0.59932,4.73115 0.8125,6.5625 l 9.25,12.3125 -0.25,4.5 c -1.35226,-0.43771 -2.84891,-0.41537 -4.1875,0.0625 l -0.0937,-0.34375 c -0.63378,-2.18802 -2.50001,-3.97327 -4.71398,-4.50941 -2.21397,-0.53615 -4.69019,0.1975 -6.25477,1.85316 -1.58547,1.6781 -2.16948,4.23779 -1.46875,6.4375 l 1.25,4.0625 -6.09375,4.25 -19.5,-2.71875 9.15625,-18.90625 c 1.00612,-2.03041 0.84504,-4.59136 -0.40756,-6.4797 -1.2526,-1.88835 -3.54933,-3.03264 -5.81119,-2.8953 -2.30799,0.14685 -4.48373,1.62635 -5.46875,3.71875 l -0.53125,1.09375 c -0.41799,-0.80789 -1.00779,-1.52636 -1.71875,-2.09375 -1.81945,-1.43212 -4.43139,-1.78037 -6.5625,-0.875 l -9.0313,3.71875 -1.59375,-4.6875 c -0.71032,-2.14846 -2.62026,-3.85546 -4.83469,-4.32099 -2.21442,-0.46553 -4.65002,0.32792 -6.16531,2.00849 -1.54407,1.72779 -2.05415,4.3155 -1.28125,6.5 l 1.84375,5.4375 -19.9375,8.21875 c -0.11925,-0.84716 -0.40783,-1.67013 -0.84375,-2.40625 -1.1805,-1.99578 -3.49503,-3.26503 -5.8125,-3.1875 l -20.28125,0.46875 -2.375,-7.65625 c -0.93689,-3.13947 -4.52964,-5.21948 -7.71875,-4.46875 -0.0473,-0.7861 -0.23889,-1.56329 -0.5625,-2.28125 -0.0406,-0.0632 -0.0822,-0.12573 -0.125,-0.1875 0.44837,-1.64222 0.21842,-3.4588 -0.625,-4.9375 l 0.5,-22.59375 c 0.0828,-2.27198 -1.12563,-4.54739 -3.05424,-5.7512 -1.92862,-1.20381 -4.50356,-1.28988 -6.50826,-0.21755 -2.0418,1.09058 -3.40982,3.34161 -3.4375,5.65625 l -0.34375,15 L 237.09375,423 c -0.95461,-0.51575 -2.03999,-0.78709 -3.125,-0.78125 -3.45627,0.0155 -6.56813,3.23262 -6.46875,6.6875 0.0678,2.31235 1.47284,4.53804 3.53125,5.59375 l 11.875,6.25 c -0.52518,1.29975 -0.61436,2.77134 -0.25,4.125 l 0.40625,1.53125 -12.59375,-1.03125 c 1.85852,-2.60352 1.38514,-6.59144 -1.03125,-8.6875 -1.31707,-1.14186 -3.1077,-1.71948 -4.84375,-1.5625 -0.57727,0.0593 -1.1465,0.19632 -1.6875,0.40625 l -1.25,0.46875 -11.1875,-24.09375 c -1.07242,-2.37176 -3.68225,-3.95584 -6.28125,-3.8125 -1.92458,0.10854 -3.7786,1.12411 -4.90625,2.6875 -1.353,1.87896 -1.58931,4.50331 -0.59375,6.59375 l 10.6875,23.0625 -14,5.0625 c -0.21187,0.0622 -0.42056,0.13528 -0.625,0.21875 l -17,6.125 c -3.25098,1.12127 -5.16451,5.13209 -3.99062,8.36444 1.1739,3.23235 5.21526,5.08052 8.42812,3.85431 l 13.8125,-5 21.90625,18 c -1.59867,1.21983 -2.57515,3.21576 -2.55704,5.22658 0.0181,2.01083 1.0304,3.98884 2.65079,5.17967 l -0.75,-0.25 -1.3125,-1.25 c -1.2262,-1.21564 -2.95277,-1.91058 -4.67921,-1.88336 -1.72644,0.0272 -3.43025,0.77623 -4.61752,2.02992 -1.18727,1.25369 -1.84252,2.99571 -1.77581,4.72107 0.0667,1.72537 0.85451,3.4116 2.13504,4.56987 l 0.15625,0.15625 c 0.68662,1.42562 1.9125,2.5834 3.375,3.1875 l 0.6875,0.65625 c 0.33352,1.14679 0.99032,2.19768 1.875,3 -2.37771,-0.28065 -4.86866,0.87677 -6.1875,2.875 L 198.875,496.1875 c -1.40592,-1.6027 -3.63692,-2.43932 -5.75,-2.15625 -1.26684,-1.46839 -3.21817,-2.31988 -5.15625,-2.25 -2.47392,0.094 -4.82305,1.73308 -5.76501,4.02257 -0.94197,2.2895 -0.4265,5.1072 1.26501,6.91493 l 2.59375,2.875 c -0.45243,2.08401 0.20237,4.37583 1.6875,5.90625 l 23.875,25.90625 -9.78125,-0.375 c -3.51902,-0.34243 -6.99828,2.70195 -7.12599,6.23528 -0.12772,3.53333 3.12268,6.82095 6.65724,6.73347 l 9.625,0.375 c 0.16571,0.94117 0.54215,1.84462 1.09375,2.625 L 206.25,571.25 c -0.57697,1.63445 -0.46376,3.50037 0.30658,5.05307 0.77035,1.5527 2.18764,2.77162 3.83813,3.30095 3.30099,1.05865 7.26783,-1.05497 8.23029,-4.38527 l 2.0625,-6.46875 c 3.02257,0.0388 5.90197,-2.31204 6.46875,-5.28125 l 0.0312,-0.15625 c 0.67233,-0.36908 1.2785,-0.85828 1.78125,-1.4375 l 4.75,-5.46875 c 0.32101,2.12307 1.76686,4.04276 3.71875,4.9375 -1.77247,1.8485 -2.28897,4.79348 -1.25133,7.13482 1.03764,2.34134 3.56636,3.93674 6.12633,3.86518 l 0.15625,0 c -0.45168,0.62121 -0.79201,1.32314 -1,2.0625 l -13.3125,5.53125 c -3.18855,1.27595 -4.90637,5.36541 -3.58545,8.53561 1.32091,3.17019 5.43425,4.83 8.58545,3.46439 l 16.375,-6.8125 10.5,20.6875 c 1.54602,3.03564 5.71488,4.39078 8.75034,2.84442 3.03546,-1.54637 4.39013,-5.71539 2.84341,-8.75067 l -3.40625,-6.6875 20.0625,9.625 c 1.17811,0.59162 2.53889,0.81288 3.84375,0.625 0.5106,0.54587 1.11615,1.00269 1.78125,1.34375 l 3.9375,2.15625 -6.03125,5.875 c -1.55988,1.41888 -2.35765,3.63085 -2.0625,5.71875 -1.20874,2.26636 -0.90097,5.25197 0.74468,7.22408 1.64566,1.97212 4.52793,2.8094 6.97407,2.02592 l 25.3125,-7.28125 13.28125,7.25 c 1.97774,1.09826 4.53817,1.05964 6.48187,-0.0978 1.94371,-1.15742 3.19764,-3.39012 3.17438,-5.65222 -0.0277,-2.31464 -1.3957,-4.56567 -3.4375,-5.65625 l -1.71875,-0.9375 3.03125,-0.875 c 2.87297,-0.79445 4.97216,-3.7775 4.75,-6.75 l 23.8125,30.3125 c 1.42772,1.92551 3.98265,2.94496 6.34375,2.53125 1.16626,3.09176 4.94934,4.91325 8.09358,3.89693 3.14424,-1.01632 5.14545,-4.70748 4.28142,-7.89693 l -8,-26.71875 c 2.0072,-1.33633 3.15493,-3.8588 2.84375,-6.25 -0.0496,-0.31733 -0.12281,-0.63098 -0.21875,-0.9375 0.58541,0.0376 1.17587,-0.005 1.75,-0.125 l 5.125,-1 c 0.5446,1.36257 1.56553,2.52934 2.84375,3.25 l 2.46875,19.09375 c 0.37239,2.87833 2.89118,5.33537 5.77787,5.63622 2.88669,0.30084 5.85799,-1.58403 6.81588,-4.32372 0.77291,2.27427 2.90179,4.0275 5.28205,4.35003 2.38026,0.32253 4.89894,-0.80096 6.2492,-2.78753 l 0.0625,-0.0937 c 1.78506,-0.17696 3.47945,-1.13081 4.55667,-2.56516 1.07722,-1.43434 1.52096,-3.32745 1.19333,-5.09109 l 1,-1.34375 c 2.31742,0.68789 4.99718,-0.0516 6.63387,-1.83059 1.63669,-1.77901 2.15067,-4.511 1.27238,-6.76316 l -0.3125,-0.8125 9.8125,0.65625 c 2.2623,0.17752 4.58211,-0.92971 5.86691,-2.80022 1.2848,-1.87051 1.4857,-4.43315 0.50809,-6.48103 -0.99855,-2.08958 -3.18775,-3.55734 -5.5,-3.6875 l -1.8125,-0.125 5.59375,-7.4375 c 1.38235,-1.79657 1.72217,-4.34113 0.8597,-6.43749 -0.86246,-2.09637 -2.89454,-3.6651 -5.14095,-3.96876 -0.21751,-0.0319 -0.43663,-0.0528 -0.65625,-0.0625 -0.34468,-0.007 -0.68988,0.0144 -1.03125,0.0625 l 0.0625,-0.71875 2.625,-2.15625 c 1.52258,1.12461 3.55103,1.53453 5.39084,1.08942 1.8398,-0.44511 3.45654,-1.73694 4.29666,-3.43317 l 0.375,0.0937 3.1875,24.75 c 0.44216,3.37854 3.91818,6.05036 7.29677,5.6086 3.3786,-0.44175 6.05083,-3.91746 5.60948,-7.2961 l -5.03125,-38.71875 c 1.07821,-1.82134 1.18711,-4.18084 0.28125,-6.09375 l 12.4375,10.34375 9.59375,21.375 c 1.40142,2.994 5.32022,4.51496 8.37451,3.25029 3.05429,-1.26466 4.75081,-5.11071 3.62549,-8.21904 2.79095,0.23698 5.63311,-1.5513 6.62734,-4.1699 0.99423,-2.6186 0.0551,-5.84256 -2.18984,-7.5176 l -4.75,-3.9375 c 1.83506,-1.23057 2.96241,-3.44851 2.875,-5.65625 -0.0318,-0.56251 -0.13715,-1.12082 -0.3125,-1.65625 1.37206,-2.43631 0.93016,-5.75726 -1.03125,-7.75 l -7.03125,-7.46875 c 0.007,-0.46104 -0.0347,-0.92283 -0.125,-1.375 2.48565,-1.13704 4.07629,-3.97368 3.75,-6.6875 -0.0919,-0.71583 -0.30411,-1.41606 -0.625,-2.0625 l 17.25,13.78125 c 1.75863,1.43706 4.29841,1.84968 6.42153,1.04327 2.12312,-0.8064 3.74855,-2.80106 4.10972,-5.04327 0.36286,-2.28711 -0.60733,-4.73745 -2.4375,-6.15625 L 501.84375,514.5 c 1.38775,-1.44619 2.04669,-3.55921 1.72696,-5.53786 -0.31972,-1.97866 -1.61061,-3.77662 -3.38321,-4.71214 l -8.03125,-4.71875 6.46875,-17.65625 23.34375,-4.21875 c 2.23754,-0.38187 4.21611,-2.0242 5.00346,-4.15317 0.78734,-2.12897 0.35346,-4.66348 -1.09721,-6.40933 -1.47209,-1.78359 -3.94621,-2.67875 -6.21875,-2.25 l -15.84375,2.875 0.34375,-0.90625 c 0.77927,-2.03143 0.44879,-4.45095 -0.84674,-6.19897 -1.29552,-1.74803 -3.51424,-2.76811 -5.68451,-2.61353 -0.19922,0.0221 -0.39742,0.0534 -0.59375,0.0937 -2.29103,0.36941 -4.3199,2.0622 -5.09375,4.25 l -2.21875,6.03125 c -0.15221,-0.10027 -0.30865,-0.19413 -0.46875,-0.28125 0.98202,-2.22379 0.57725,-4.99392 -1,-6.84375 -1.51768,-1.74894 -4.01774,-2.58229 -6.28125,-2.09375 l -2.53125,0.53125 c -0.004,-0.548 -0.0777,-1.09544 -0.21875,-1.625 l 21.75,-22.25 c 1.31563,-1.32854 2.01338,-3.2455 1.85957,-5.1089 -0.1538,-1.86339 -1.15641,-3.64 -2.67207,-4.73485 0.75041,-3.08562 -1.13534,-6.58568 -4.125,-7.65625 -2.1845,-0.7729 -4.77221,-0.26282 -6.5,1.28125 l -26.65625,23.125 3,-6.5625 c 0.95455,-2.05293 0.73138,-4.6064 -0.56483,-6.46262 -1.29621,-1.85622 -3.61658,-2.9452 -5.87267,-2.75613 -0.96659,0.0816 -1.91398,0.38304 -2.75,0.875 l 5.15625,-12.78125 c 0.83677,-2.00452 0.57948,-4.42799 -0.65951,-6.21214 -1.239,-1.78415 -3.41995,-2.87175 -5.59049,-2.78786 z M 489.0625,519.6875 495.46875,526 483.75,521.53125 c 1.92603,0.21903 3.93626,-0.47864 5.3125,-1.84375 z m -80.53125,86.75 1.09375,0.0625 3.53125,10.25 -1.71875,2.28125 c -0.43524,0.53409 -0.78479,1.13786 -1.03125,1.78125 z m -38.75,5.0625 1.21875,4.09375 -2.125,-2.6875 c 0.36089,-0.42717 0.66633,-0.90113 0.90625,-1.40625 z"
       style="font-size:medium;font-style:normal;font-variant:normal;font-weight:normal;font-stretch:normal;text-indent:0;text-align:start;text-decoration:none;line-height:normal;letter-spacing:normal;word-spacing:normal;text-transform:none;direction:ltr;block-progression:tb;writing-mode:lr-tb;text-anchor:start;baseline-shift:baseline;color:#000000;fill:#920000;fill-opacity:1;stroke:none;stroke-width:13;marker:none;visibility:visible;display:inline;overflow:visible;enable-background:accumulate;font-family:Sans;-inkscape-font-specification:Sans" />
    <path
       sodipodi:nodetypes="cccc"
       inkscape:connector-curvature="0"
       id="path3076"
       d="m 304.12579,394.19304 21.42857,0 -10.71429,-23.28571 z"
       style="fill:#ffffff;fill-opacity:1;stroke:none" />
    <path
       sodipodi:nodetypes="cccc"
       inkscape:connector-curvature="0"
       id="path3078"
       d="m 324.84008,394.19304 21.42857,0 -10.71429,-23.28571 z"
       style="fill:#ffffff;fill-opacity:1;stroke:none" />
    <path
       sodipodi:nodetypes="cccc"
       inkscape:connector-curvature="0"
       id="path3080"
       d="m 345.55437,394.19304 21.42857,0 -10.71429,-23.28571 z"
       style="fill:#ffffff;fill-opacity:1;stroke:none" />
    <path
       sodipodi:nodetypes="cccc"
       inkscape:connector-curvature="0"
       id="path3082"
       d="m 366.26866,394.19304 21.42857,0 -10.71429,-23.28571 z"
       style="fill:#ffffff;fill-opacity:1;stroke:none" />
    <path
       sodipodi:nodetypes="cccc"
       inkscape:connector-curvature="0"
       id="path3084"
       d="m 386.98296,394.19304 21.42857,0 -10.71429,-23.28571 z"
       style="fill:#ffffff;fill-opacity:1;stroke:none" />
  </g>
  <g
     style="display:inline"
     inkscape:label="Anim 4"
     inkscape:groupmode="layer"
     id="layer5"
     transform="translate(-153.41151,-262.81948)">
    <g
       id="g3074"
       transform="matrix(0.947302,-0.32034189,0.32034189,0.947302,-114.20276,118.86435)">
      <path
         inkscape:connector-curvature="0"
         id="path3077"
         d="m 202.72604,343.47873 c 0.1049,28.40532 -5.58581,58.7459 5.78845,85.92079 10.97611,23.48827 34.82093,36.93294 56.28926,49.15167 6.75832,1.00606 7.7451,-7.87537 11.58462,-11.4283 3.74067,-5.46956 7.46512,-10.8958 11.13637,-16.40818 -17.08152,-12.15851 -38.62436,-21.93485 -47.29273,-42.27425 -6.37027,-18.96074 -1.40978,-39.30841 1.74109,-58.3912 2.0941,-4.26831 -0.88664,-10.08247 -5.98404,-9.31355 -10.98457,1.11575 -22.12744,0.4705 -33.18492,0.82203 l -0.0406,0.99918 -0.0375,0.92181 z"
         style="fill:#059134;fill-opacity:1;stroke:none" />
      <path
         sodipodi:nodetypes="aaccccccca"
         inkscape:connector-curvature="0"
         id="path3079"
         d="m 186.42858,353.67662 c 12.08134,18.45705 42.60146,19.76577 64.28571,15.71429 24.54239,-4.5855 61.42856,-42.85715 61.42856,-42.85715 l -43.97207,10.42516 23.848,-68.41654 -41.3045,43.70566 -4.99999,-53.57142 -28.57143,45.71428 -12.85715,-53.57142 c 0,0 -36.91529,73.74138 -17.85713,102.85714 z"
         style="fill:#007a28;fill-opacity:1;stroke:none" />
    </g>
    <g
       id="g3081"
       transform="matrix(0.92334044,0.38398233,-0.38398233,0.92334044,167.59145,-137.92676)">
      <path
         inkscape:connector-curvature="0"
         id="path3083"
         d="m 531.73342,343.47874 c -0.1049,28.40532 5.58581,58.7459 -5.78845,85.92079 -10.97611,23.48826 -34.82093,36.93293 -56.28926,49.15166 -6.75832,1.00606 -7.7451,-7.87537 -11.58462,-11.4283 -3.74067,-5.46956 -7.46512,-10.8958 -11.13637,-16.40818 17.08152,-12.1585 38.62436,-21.93484 47.29273,-42.27424 6.37027,-18.96074 1.40978,-39.30841 -1.74109,-58.3912 -2.0941,-4.26831 0.88664,-10.08247 5.98404,-9.31355 10.98457,1.11575 22.12744,0.4705 33.18492,0.82203 l 0.0406,0.99918 0.0375,0.92181 z"
         style="fill:#059134;fill-opacity:1;stroke:none" />
      <path
         sodipodi:nodetypes="aaccccccca"
         inkscape:connector-curvature="0"
         id="path3085"
         d="m 544.41076,353.67662 c -12.08134,18.45705 -42.60146,19.76577 -64.28571,15.71429 -24.54239,-4.5855 -61.42856,-42.85715 -61.42856,-42.85715 l 43.97207,10.42516 -23.848,-68.41654 41.3045,43.70566 4.99999,-53.57142 28.57143,45.71428 12.85715,-53.57142 c 0,0 36.91529,73.74138 17.85713,102.85714 z"
         style="fill:#007a28;fill-opacity:1;stroke:none" />
    </g>
    <path
       transform="translate(50.869554,149.78375)"
       sodipodi:type="arc"
       style="fill:#007a28;fill-opacity:1"
       id="path3087"
       sodipodi:cx="305.71429"
       sodipodi:cy="340.93362"
       sodipodi:rx="134.28572"
       sodipodi:ry="114.28571"
       d="m 440.00002,340.93362 c 0,63.11826 -60.12177,114.28572 -134.28573,114.28572 -74.16395,0 -134.28572,-51.16746 -134.28572,-114.28572 0,-63.11825 60.12177,-114.28571 134.28572,-114.28571 74.16396,0 134.28573,51.16746 134.28573,114.28571 z" />
    <g
       id="g3089"
       transform="translate(51.042934,163.78375)">
      <g
         transform="matrix(0.82734374,0.56169595,-0.56169595,0.82734374,205.1136,-101.27342)"
         id="g3091">
        <path
           sodipodi:type="arc"
           style="fill:#ffffff;fill-opacity:1"
           id="path3093"
           sodipodi:cx="157.14285"
           sodipodi:cy="147.36218"
           sodipodi:rx="52.857143"
           sodipodi:ry="73.571426"
           d="m 210,147.36218 c 0,40.63238 -23.66495,73.57143 -52.85715,73.57143 -29.19219,0 -52.85714,-32.93905 -52.85714,-73.57143 0,-40.63237 23.66495,-73.571424 52.85714,-73.571424 29.1922,0 52.85715,32.939054 52.85715,73.571424 z"
           transform="matrix(0.53398057,0,0,0.53398057,178.59917,203.24507)" />
        <path
           sodipodi:type="arc"
           style="fill:#530105;fill-opacity:1"
           id="path3095"
           sodipodi:cx="170"
           sodipodi:cy="136.6479"
           sodipodi:rx="27.142857"
           sodipodi:ry="32.857143"
           d="m 197.14286,136.6479 c 0,18.1465 -12.15227,32.85715 -27.14286,32.85715 -14.99059,0 -27.14286,-14.71065 -27.14286,-32.85715 0,-18.1465 12.15227,-32.85714 27.14286,-32.85714 14.99059,0 27.14286,14.71064 27.14286,32.85714 z"
           transform="matrix(0.53398057,0,0,0.53398057,173.95395,202.42535)" />
      </g>
      <g
         transform="matrix(0.85007889,-0.52665538,0.52665538,0.85007889,-95.961692,219.59454)"
         id="g3097">
        <path
           sodipodi:type="arc"
           style="fill:#ffffff;fill-opacity:1"
           id="path3099"
           sodipodi:cx="157.14285"
           sodipodi:cy="147.36218"
           sodipodi:rx="52.857143"
           sodipodi:ry="73.571426"
           d="m 210,147.36218 c 0,40.63238 -23.66495,73.57143 -52.85715,73.57143 -29.19219,0 -52.85714,-32.93905 -52.85714,-73.57143 0,-40.63237 23.66495,-73.571424 52.85714,-73.571424 29.1922,0 52.85715,32.939054 52.85715,73.571424 z"
           transform="matrix(0.53398057,0,0,0.53398057,264.6602,206.8165)" />
        <path
           sodipodi:type="arc"
           style="fill:#530105;fill-opacity:1"
           id="path3101"
           sodipodi:cx="170"
           sodipodi:cy="136.6479"
           sodipodi:rx="27.142857"
           sodipodi:ry="32.857143"
           d="m 197.14286,136.6479 c 0,18.1465 -12.15227,32.85715 -27.14286,32.85715 -14.99059,0 -27.14286,-14.71065 -27.14286,-32.85715 0,-18.1465 12.15227,-32.85714 27.14286,-32.85714 14.99059,0 27.14286,14.71064 27.14286,32.85714 z"
           transform="matrix(0.53398057,0,0,0.53398057,255.54943,205.92295)" />
      </g>
    </g>
    <g
       transform="translate(51.042934,163.78375)"
       id="g3103">
      <g
         id="g3105"
         transform="matrix(0.82734374,0.56169595,-0.56169595,0.82734374,205.1136,-101.27342)">
        <path
           transform="matrix(0.53398057,0,0,0.53398057,178.59917,203.24507)"
           d="m 210,147.36218 c 0,40.63238 -23.66495,73.57143 -52.85715,73.57143 -29.19219,0 -52.85714,-32.93905 -52.85714,-73.57143 0,-40.63237 23.66495,-73.571424 52.85714,-73.571424 29.1922,0 52.85715,32.939054 52.85715,73.571424 z"
           sodipodi:ry="73.571426"
           sodipodi:rx="52.857143"
           sodipodi:cy="147.36218"
           sodipodi:cx="157.14285"
           id="path3107"
           style="fill:#ffffff;fill-opacity:1"
           sodipodi:type="arc" />
        <path
           transform="matrix(0.53398057,0,0,0.53398057,173.42265,205.20343)"
           d="m 197.14286,136.6479 c 0,18.1465 -12.15227,32.85715 -27.14286,32.85715 -14.99059,0 -27.14286,-14.71065 -27.14286,-32.85715 0,-18.1465 12.15227,-32.85714 27.14286,-32.85714 14.99059,0 27.14286,14.71064 27.14286,32.85714 z"
           sodipodi:ry="32.857143"
           sodipodi:rx="27.142857"
           sodipodi:cy="136.6479"
           sodipodi:cx="170"
           id="path3109"
           style="fill:#530105;fill-opacity:1"
           sodipodi:type="arc" />
      </g>
      <g
         id="g3111"
         transform="matrix(0.85007889,-0.52665538,0.52665538,0.85007889,-95.961692,219.59454)">
        <path
           transform="matrix(0.53398057,0,0,0.53398057,264.6602,206.8165)"
           d="m 210,147.36218 c 0,40.63238 -23.66495,73.57143 -52.85715,73.57143 -29.19219,0 -52.85714,-32.93905 -52.85714,-73.57143 0,-40.63237 23.66495,-73.571424 52.85714,-73.571424 29.1922,0 52.85715,32.939054 52.85715,73.571424 z"
           sodipodi:ry="73.571426"
           sodipodi:rx="52.857143"
           sodipodi:cy="147.36218"
           sodipodi:cx="157.14285"
           id="path3113"
           style="fill:#ffffff;fill-opacity:1"
           sodipodi:type="arc" />
        <path
           transform="matrix(0.53398057,0,0,0.53398057,256.19628,208.67642)"
           d="m 197.14286,136.6479 c 0,18.1465 -12.15227,32.85715 -27.14286,32.85715 -14.99059,0 -27.14286,-14.71065 -27.14286,-32.85715 0,-18.1465 12.15227,-32.85714 27.14286,-32.85714 14.99059,0 27.14286,14.71064 27.14286,32.85714 z"
           sodipodi:ry="32.857143"
           sodipodi:rx="27.142857"
           sodipodi:cy="136.6479"
           sodipodi:cx="170"
           id="path3115"
           style="fill:#530105;fill-opacity:1"
           sodipodi:type="arc" />
      </g>
    </g>
    <path
       style="font-size:medium;font-style:normal;font-variant:normal;font-weight:normal;font-stretch:normal;text-indent:0;text-align:start;text-decoration:none;line-height:normal;letter-spacing:normal;word-spacing:normal;text-transform:none;direction:ltr;block-progression:tb;writing-mode:lr-tb;text-anchor:start;baseline-shift:baseline;color:#000000;fill:#920000;fill-opacity:1;stroke:none;stroke-width:13;marker:none;visibility:visible;display:inline;overflow:visible;enable-background:accumulate;font-family:Sans;-inkscape-font-specification:Sans"
       d="m 455.59375,406.03125 c -0.19873,0.0117 -0.39693,0.0326 -0.59375,0.0625 -2.29388,0.29477 -4.37019,1.91105 -5.21875,4.0625 L 431.8125,454.6875 c -0.74879,1.84064 -0.59156,4.02563 0.41305,5.74009 1.00462,1.71447 2.83393,2.91968 4.8057,3.16616 L 434.25,468.9375 c -0.91313,0.23882 -1.7729,0.67945 -2.5,1.28125 l -4.34375,-5.78125 0.125,-2.25 c 0.12176,-1.85455 -0.5981,-3.74814 -1.92112,-5.05344 -1.32302,-1.30529 -3.22614,-1.99957 -5.07888,-1.85281 l -5.1875,-6.90625 c -1.34276,-1.84113 -3.70732,-2.88252 -5.97207,-2.63018 -2.26475,0.25234 -4.3421,1.78865 -5.24668,3.88018 -0.92256,2.12037 -0.59932,4.73115 0.8125,6.5625 l 9.25,12.3125 -0.25,4.5 c -1.35226,-0.43771 -2.84891,-0.41537 -4.1875,0.0625 l -0.0937,-0.34375 c -0.63378,-2.18802 -2.50001,-3.97327 -4.71398,-4.50941 -2.21397,-0.53615 -4.69019,0.1975 -6.25477,1.85316 -1.58547,1.6781 -2.16948,4.23779 -1.46875,6.4375 l 1.25,4.0625 -6.09375,4.25 -19.5,-2.71875 9.15625,-18.90625 c 1.00612,-2.03041 0.84504,-4.59136 -0.40756,-6.4797 -1.2526,-1.88835 -3.54933,-3.03264 -5.81119,-2.8953 -2.30799,0.14685 -4.48373,1.62635 -5.46875,3.71875 l -0.53125,1.09375 c -0.41799,-0.80789 -1.00779,-1.52636 -1.71875,-2.09375 -1.81945,-1.43212 -4.43139,-1.78037 -6.5625,-0.875 l -9.0313,3.71875 -1.59375,-4.6875 c -0.71032,-2.14846 -2.62026,-3.85546 -4.83469,-4.32099 -2.21442,-0.46553 -4.65002,0.32792 -6.16531,2.00849 -1.54407,1.72779 -2.05415,4.3155 -1.28125,6.5 l 1.84375,5.4375 -19.9375,8.21875 c -0.11925,-0.84716 -0.40783,-1.67013 -0.84375,-2.40625 -1.1805,-1.99578 -3.49503,-3.26503 -5.8125,-3.1875 l -20.28125,0.46875 -2.375,-7.65625 c -0.93689,-3.13947 -4.52964,-5.21948 -7.71875,-4.46875 -0.0473,-0.7861 -0.23889,-1.56329 -0.5625,-2.28125 -0.0406,-0.0632 -0.0822,-0.12573 -0.125,-0.1875 0.44837,-1.64222 0.21842,-3.4588 -0.625,-4.9375 l 0.5,-22.59375 c 0.0828,-2.27198 -1.12563,-4.54739 -3.05424,-5.7512 -1.92862,-1.20381 -4.50356,-1.28988 -6.50826,-0.21755 -2.0418,1.09058 -3.40982,3.34161 -3.4375,5.65625 l -0.34375,15 L 237.09375,423 c -0.95461,-0.51575 -2.03999,-0.78709 -3.125,-0.78125 -3.45627,0.0155 -6.56813,3.23262 -6.46875,6.6875 0.0678,2.31235 1.47284,4.53804 3.53125,5.59375 l 11.875,6.25 c -0.52518,1.29975 -0.61436,2.77134 -0.25,4.125 l 0.40625,1.53125 -12.59375,-1.03125 c 1.85852,-2.60352 1.38514,-6.59144 -1.03125,-8.6875 -1.31707,-1.14186 -3.1077,-1.71948 -4.84375,-1.5625 -0.57727,0.0593 -1.1465,0.19632 -1.6875,0.40625 l -1.25,0.46875 -11.1875,-24.09375 c -1.07242,-2.37176 -3.68225,-3.95584 -6.28125,-3.8125 -1.92458,0.10854 -3.7786,1.12411 -4.90625,2.6875 -1.353,1.87896 -1.58931,4.50331 -0.59375,6.59375 l 10.6875,23.0625 -14,5.0625 c -0.21187,0.0622 -0.42056,0.13528 -0.625,0.21875 l -17,6.125 c -3.25098,1.12127 -5.16451,5.13209 -3.99062,8.36444 1.1739,3.23235 5.21526,5.08052 8.42812,3.85431 l 13.8125,-5 21.90625,18 c -1.59867,1.21983 -2.57515,3.21576 -2.55704,5.22658 0.0181,2.01083 1.0304,3.98884 2.65079,5.17967 l -0.75,-0.25 -1.3125,-1.25 c -1.2262,-1.21564 -2.95277,-1.91058 -4.67921,-1.88336 -1.72644,0.0272 -3.43025,0.77623 -4.61752,2.02992 -1.18727,1.25369 -1.84252,2.99571 -1.77581,4.72107 0.0667,1.72537 0.85451,3.4116 2.13504,4.56987 l 0.15625,0.15625 c 0.68662,1.42562 1.9125,2.5834 3.375,3.1875 l 0.6875,0.65625 c 0.33352,1.14679 0.99032,2.19768 1.875,3 -2.37771,-0.28065 -4.86866,0.87677 -6.1875,2.875 L 198.875,496.1875 c -1.40592,-1.6027 -3.63692,-2.43932 -5.75,-2.15625 -1.26684,-1.46839 -3.21817,-2.31988 -5.15625,-2.25 -2.47392,0.094 -4.82305,1.73308 -5.76501,4.02257 -0.94197,2.2895 -0.4265,5.1072 1.26501,6.91493 l 2.59375,2.875 c -0.45243,2.08401 0.20237,4.37583 1.6875,5.90625 l 23.875,25.90625 -9.78125,-0.375 c -3.51902,-0.34243 -6.99828,2.70195 -7.12599,6.23528 -0.12772,3.53333 3.12268,6.82095 6.65724,6.73347 l 9.625,0.375 c 0.16571,0.94117 0.54215,1.84462 1.09375,2.625 L 206.25,571.25 c -0.57697,1.63445 -0.46376,3.50037 0.30658,5.05307 0.77035,1.5527 2.18764,2.77162 3.83813,3.30095 3.30099,1.05865 7.26783,-1.05497 8.23029,-4.38527 l 2.0625,-6.46875 c 3.02257,0.0388 5.90197,-2.31204 6.46875,-5.28125 l 0.0312,-0.15625 c 0.67233,-0.36908 1.2785,-0.85828 1.78125,-1.4375 l 4.75,-5.46875 c 0.32101,2.12307 1.76686,4.04276 3.71875,4.9375 -1.77247,1.8485 -2.28897,4.79348 -1.25133,7.13482 1.03764,2.34134 3.56636,3.93674 6.12633,3.86518 l 0.15625,0 c -0.45168,0.62121 -0.79201,1.32314 -1,2.0625 l -13.3125,5.53125 c -3.18855,1.27595 -4.90637,5.36541 -3.58545,8.53561 1.32091,3.17019 5.43425,4.83 8.58545,3.46439 l 16.375,-6.8125 10.5,20.6875 c 1.54602,3.03564 5.71488,4.39078 8.75034,2.84442 3.03546,-1.54637 4.39013,-5.71539 2.84341,-8.75067 l -3.40625,-6.6875 20.0625,9.625 c 1.17811,0.59162 2.53889,0.81288 3.84375,0.625 0.5106,0.54587 1.11615,1.00269 1.78125,1.34375 l 3.9375,2.15625 -6.03125,5.875 c -1.55988,1.41888 -2.35765,3.63085 -2.0625,5.71875 -1.20874,2.26636 -0.90097,5.25197 0.74468,7.22408 1.64566,1.97212 4.52793,2.8094 6.97407,2.02592 l 25.3125,-7.28125 13.28125,7.25 c 1.97774,1.09826 4.53817,1.05964 6.48187,-0.0978 1.94371,-1.15742 3.19764,-3.39012 3.17438,-5.65222 -0.0277,-2.31464 -1.3957,-4.56567 -3.4375,-5.65625 l -1.71875,-0.9375 3.03125,-0.875 c 2.87297,-0.79445 4.97216,-3.7775 4.75,-6.75 l 23.8125,30.3125 c 1.42772,1.92551 3.98265,2.94496 6.34375,2.53125 1.16626,3.09176 4.94934,4.91325 8.09358,3.89693 3.14424,-1.01632 5.14545,-4.70748 4.28142,-7.89693 l -8,-26.71875 c 2.0072,-1.33633 3.15493,-3.8588 2.84375,-6.25 -0.0496,-0.31733 -0.12281,-0.63098 -0.21875,-0.9375 0.58541,0.0376 1.17587,-0.005 1.75,-0.125 l 5.125,-1 c 0.5446,1.36257 1.56553,2.52934 2.84375,3.25 l 2.46875,19.09375 c 0.37239,2.87833 2.89118,5.33537 5.77787,5.63622 2.88669,0.30084 5.85799,-1.58403 6.81588,-4.32372 0.77291,2.27427 2.90179,4.0275 5.28205,4.35003 2.38026,0.32253 4.89894,-0.80096 6.2492,-2.78753 l 0.0625,-0.0937 c 1.78506,-0.17696 3.47945,-1.13081 4.55667,-2.56516 1.07722,-1.43434 1.52096,-3.32745 1.19333,-5.09109 l 1,-1.34375 c 2.31742,0.68789 4.99718,-0.0516 6.63387,-1.83059 1.63669,-1.77901 2.15067,-4.511 1.27238,-6.76316 l -0.3125,-0.8125 9.8125,0.65625 c 2.2623,0.17752 4.58211,-0.92971 5.86691,-2.80022 1.2848,-1.87051 1.4857,-4.43315 0.50809,-6.48103 -0.99855,-2.08958 -3.18775,-3.55734 -5.5,-3.6875 l -1.8125,-0.125 5.59375,-7.4375 c 1.38235,-1.79657 1.72217,-4.34113 0.8597,-6.43749 -0.86246,-2.09637 -2.89454,-3.6651 -5.14095,-3.96876 -0.21751,-0.0319 -0.43663,-0.0528 -0.65625,-0.0625 -0.34468,-0.007 -0.68988,0.0144 -1.03125,0.0625 l 0.0625,-0.71875 2.625,-2.15625 c 1.52258,1.12461 3.55103,1.53453 5.39084,1.08942 1.8398,-0.44511 3.45654,-1.73694 4.29666,-3.43317 l 0.375,0.0937 3.1875,24.75 c 0.44216,3.37854 3.91818,6.05036 7.29677,5.6086 3.3786,-0.44175 6.05083,-3.91746 5.60948,-7.2961 l -5.03125,-38.71875 c 1.07821,-1.82134 1.18711,-4.18084 0.28125,-6.09375 l 12.4375,10.34375 9.59375,21.375 c 1.40142,2.994 5.32022,4.51496 8.37451,3.25029 3.05429,-1.26466 4.75081,-5.11071 3.62549,-8.21904 2.79095,0.23698 5.63311,-1.5513 6.62734,-4.1699 0.99423,-2.6186 0.0551,-5.84256 -2.18984,-7.5176 l -4.75,-3.9375 c 1.83506,-1.23057 2.96241,-3.44851 2.875,-5.65625 -0.0318,-0.56251 -0.13715,-1.12082 -0.3125,-1.65625 1.37206,-2.43631 0.93016,-5.75726 -1.03125,-7.75 l -7.03125,-7.46875 c 0.007,-0.46104 -0.0347,-0.92283 -0.125,-1.375 2.48565,-1.13704 4.07629,-3.97368 3.75,-6.6875 -0.0919,-0.71583 -0.30411,-1.41606 -0.625,-2.0625 l 17.25,13.78125 c 1.75863,1.43706 4.29841,1.84968 6.42153,1.04327 2.12312,-0.8064 3.74855,-2.80106 4.10972,-5.04327 0.36286,-2.28711 -0.60733,-4.73745 -2.4375,-6.15625 L 501.84375,514.5 c 1.38775,-1.44619 2.04669,-3.55921 1.72696,-5.53786 -0.31972,-1.97866 -1.61061,-3.77662 -3.38321,-4.71214 l -8.03125,-4.71875 6.46875,-17.65625 23.34375,-4.21875 c 2.23754,-0.38187 4.21611,-2.0242 5.00346,-4.15317 0.78734,-2.12897 0.35346,-4.66348 -1.09721,-6.40933 -1.47209,-1.78359 -3.94621,-2.67875 -6.21875,-2.25 l -15.84375,2.875 0.34375,-0.90625 c 0.77927,-2.03143 0.44879,-4.45095 -0.84674,-6.19897 -1.29552,-1.74803 -3.51424,-2.76811 -5.68451,-2.61353 -0.19922,0.0221 -0.39742,0.0534 -0.59375,0.0937 -2.29103,0.36941 -4.3199,2.0622 -5.09375,4.25 l -2.21875,6.03125 c -0.15221,-0.10027 -0.30865,-0.19413 -0.46875,-0.28125 0.98202,-2.22379 0.57725,-4.99392 -1,-6.84375 -1.51768,-1.74894 -4.01774,-2.58229 -6.28125,-2.09375 l -2.53125,0.53125 c -0.004,-0.548 -0.0777,-1.09544 -0.21875,-1.625 l 21.75,-22.25 c 1.31563,-1.32854 2.01338,-3.2455 1.85957,-5.1089 -0.1538,-1.86339 -1.15641,-3.64 -2.67207,-4.73485 0.75041,-3.08562 -1.13534,-6.58568 -4.125,-7.65625 -2.1845,-0.7729 -4.77221,-0.26282 -6.5,1.28125 l -26.65625,23.125 3,-6.5625 c 0.95455,-2.05293 0.73138,-4.6064 -0.56483,-6.46262 -1.29621,-1.85622 -3.61658,-2.9452 -5.87267,-2.75613 -0.96659,0.0816 -1.91398,0.38304 -2.75,0.875 l 5.15625,-12.78125 c 0.83677,-2.00452 0.57948,-4.42799 -0.65951,-6.21214 -1.239,-1.78415 -3.41995,-2.87175 -5.59049,-2.78786 z M 489.0625,519.6875 495.46875,526 483.75,521.53125 c 1.92603,0.21903 3.93626,-0.47864 5.3125,-1.84375 z m -80.53125,86.75 1.09375,0.0625 3.53125,10.25 -1.71875,2.28125 c -0.43524,0.53409 -0.78479,1.13786 -1.03125,1.78125 z m -38.75,5.0625 1.21875,4.09375 -2.125,-2.6875 c 0.36089,-0.42717 0.66633,-0.90113 0.90625,-1.40625 z"
       id="path3117"
       inkscape:connector-curvature="0"
       sodipodi:nodetypes="ccccscccccsccsccccccsccccccscccccccscccccccccccccscccccccccccccccccccccccscccscccssscccccccccscccccsccccsscccccccsccccscccsccccccccscccscccccccsccccccccscsccsccscccsccccscccccscccscccccscsccccccccccscccsccccsccccsccccccccccscccccscccscccccccccccccccc" />
    <path
       style="fill:#ffffff;fill-opacity:1;stroke:none"
       d="m 304.12579,394.19304 21.42857,0 -10.71429,-23.28571 z"
       id="path3119"
       inkscape:connector-curvature="0"
       sodipodi:nodetypes="cccc" />
    <path
       style="fill:#ffffff;fill-opacity:1;stroke:none"
       d="m 324.84008,394.19304 21.42857,0 -10.71429,-23.28571 z"
       id="path3121"
       inkscape:connector-curvature="0"
       sodipodi:nodetypes="cccc" />
    <path
       style="fill:#ffffff;fill-opacity:1;stroke:none"
       d="m 345.55437,394.19304 21.42857,0 -10.71429,-23.28571 z"
       id="path3123"
       inkscape:connector-curvature="0"
       sodipodi:nodetypes="cccc" />
    <path
       style="fill:#ffffff;fill-opacity:1;stroke:none"
       d="m 366.26866,394.19304 21.42857,0 -10.71429,-23.28571 z"
       id="path3125"
       inkscape:connector-curvature="0"
       sodipodi:nodetypes="cccc" />
    <path
       style="fill:#ffffff;fill-opacity:1;stroke:none"
       d="m 386.98296,394.19304 21.42857,0 -10.71429,-23.28571 z"
       id="path3127"
       inkscape:connector-curvature="0"
       sodipodi:nodetypes="cccc" />
  </g>
</svg>
